<svg width="347" height="278" viewBox="0 0 347 278" fill="none" xmlns="http://www.w3.org/2000/svg">
<path fill-rule="evenodd" clip-rule="evenodd" d="M242.091 0.692184C182.593 -9.06875 188.659 88.6377 109.492 75.2647C28.5186 61.5863 4.31707 158.079 28.5186 211.378C54.6578 268.945 222.032 299.891 281.911 257.455C349.305 209.693 353.725 19.0065 242.091 0.692184Z" fill="#1E1E1E"/>
<path fill-rule="evenodd" clip-rule="evenodd" d="M109.953 105.586C109.953 105.586 116.785 120.482 122.718 127.387C131.138 137.187 143.162 145.327 147.677 152.97C158.406 171.13 153.647 180.012 153.647 180.012C153.647 180.012 147.979 160.436 139.855 150.875C133.655 143.577 121.477 135.484 117.406 129.49C110.073 118.695 106.285 108.352 106.285 108.352L109.953 105.586Z" fill="white"/>
<path d="M194.297 264.135C166.286 265.443 138.294 267.178 110.335 269.34C106.75 269.695 104.097 269.747 104.239 270.128C101.719 269.968 97.1621 268.597 94.5132 269.695C96.5085 270.157 100.28 271.921 100.504 273.957C74.1199 275.479 47.5893 274.452 21.4014 270.895C47.0421 272.643 72.7615 273.243 98.4561 272.692C95.145 270.47 90.8865 269.714 87.0125 270.66C92.0062 268.245 97.7929 267.509 103.232 268.597C99.0818 263.954 96.3316 258.076 95.4262 251.916C99.5723 254.75 102.888 258.784 104.866 263.401C104.677 254.724 110.817 246.293 119.134 243.81C113.823 250.574 111.015 259.26 111.362 267.853C137.914 265.584 164.523 263.998 191.156 263.096C189.842 262.053 188.947 260.494 188.711 258.834C190.013 257.722 191.937 257.395 193.533 258.014C194.705 248.737 201.158 240.313 209.809 236.767C204.99 242.209 201.643 248.942 200.212 256.069C201.699 255.169 203.58 254.951 205.233 255.487C204.762 257.497 203.583 259.333 201.952 260.598C234.928 253.061 269.545 265.902 303.042 261.192C286.133 266.661 267.861 262.421 250.185 260.582C224.309 258.014 199.458 263.096 194.297 264.135Z" fill="white"/>
<path d="M264.074 63.5537C264.364 60.7938 266.74 58.7251 269.177 57.3971C273.584 54.9955 278.774 54.0587 283.743 54.767C285.993 55.0878 287.709 52.9435 289.316 51.3369C293.489 47.1675 299.866 45.645 305.685 46.6082C311.505 47.5714 316.778 50.7862 321.026 54.88C325.273 58.9734 328.588 63.9266 331.657 68.9649C332.3 70.0218 333.793 70.0496 335.029 69.9893C337.696 69.8586 340.502 69.9321 342.832 71.2367C345.162 72.5409 346.799 75.4365 345.856 77.9349C345.415 79.1048 344.477 80.037 343.406 80.6825C341.27 81.9705 338.68 82.1919 336.193 82.3819C319.607 83.6486 303.021 84.9147 286.436 86.1814C281.898 86.528 277.288 86.8705 272.832 85.9473C268.375 85.0237 264.012 82.6489 261.73 78.7106C259.449 74.7723 259.83 69.163 263.331 66.2537C264.07 65.6386 263.973 64.5102 264.074 63.5537Z" fill="white"/>
<path d="M208.557 88.964C212.177 93.1222 230.863 91.666 231.469 99.2736C229.328 99.8609 227.187 100.448 225.047 101.035C221.566 101.99 218.047 102.96 214.898 104.724C213.42 105.552 211.664 106.575 210.161 105.794C204.35 102.775 197.593 101.836 191.074 102.46C184.556 103.083 178.25 105.207 172.334 108.015C169.246 109.481 165.766 111.175 162.569 109.963C150.898 105.538 137.584 105.615 125.965 110.176C123.905 110.984 121.609 110.087 119.582 109.2C117.389 108.24 115.196 107.281 113.004 106.321C115.831 103.087 127.921 98.5876 130.385 95.4569C130.818 94.9072 146.961 83.7129 164.662 88.7709C165.456 88.3985 192.986 83.7129 208.557 88.964Z" fill="white"/>
<path fill-rule="evenodd" clip-rule="evenodd" d="M136.203 141.83C125.939 132.074 114.089 122.199 111.325 108.31C116.398 121.339 127.663 130.719 137.543 140.612C147.423 150.505 156.782 162.846 156.172 176.814C172.326 173.288 189.067 172.461 205.491 174.379C207.174 166.797 212.075 160.414 215.92 153.666C225.453 136.938 228.675 117.465 231.738 98.4564C232.513 93.6507 226.629 90.8022 221.912 89.6004C217.201 88.3996 212.489 87.1993 207.778 85.999C198.924 83.7428 189.751 81.4709 180.745 83.0132C174.656 84.0564 168.642 86.8314 162.552 85.7923C152.857 84.1385 142.572 86.2331 134.296 91.546C130.135 94.2166 126.438 97.6792 121.896 99.6329C112.338 103.745 103.919 110.47 97.795 118.884C94.5959 102.335 99.9858 85.4001 106.288 69.7674C113.332 52.2925 122.175 34.6118 137.331 23.4186C159.552 7.00763 188.524 10.2022 211.639 25.3272C234.755 40.4522 248.879 65.3939 253.444 92.6383C253.975 95.8075 254.351 99.2372 252.859 102.083C251.368 104.928 250.805 106.575 248.372 104.476C246.299 102.686 244.092 100.83 241.402 100.315C238.712 99.7996 235.448 101.197 234.926 103.886C231.107 123.579 227.095 143.771 216.483 160.794C213.719 165.226 210.501 169.459 208.743 174.378C207.399 178.142 206.965 182.161 206.541 186.136C205.658 194.418 204.775 202.7 203.892 210.981C203.52 214.472 203.001 218.273 200.458 220.694C198.03 223.005 194.416 223.421 191.076 223.718C180.232 224.681 169.387 225.644 158.543 226.607C156.604 226.779 154.405 226.867 152.988 225.531C151.897 224.502 151.594 222.908 151.38 221.423C149.856 210.887 149.857 200.131 151.381 189.595C153.568 174.478 146.803 159.012 136.147 148.068C130.594 142.365 124.045 137.703 118.501 131.991C112.957 126.278 108.317 119.1 107.985 111.146C111.757 121.599 118.709 130.881 127.679 137.441C141.084 147.244 150.634 162.179 153.909 178.46C156.484 164.535 146.467 151.585 136.203 141.83Z" fill="white"/>
<path fill-rule="evenodd" clip-rule="evenodd" d="M108.465 173.646C106.839 172.754 106.239 170.754 105.812 168.949C103.714 160.093 102.18 151.103 101.222 142.053C101.162 141.477 101.134 140.813 101.552 140.413C102.449 141.471 102.608 142.948 102.746 144.328C103.735 154.251 105.653 164.08 108.465 173.646Z" fill="#00A3B9"/>
<path fill-rule="evenodd" clip-rule="evenodd" d="M237.457 143.479C238.931 138.55 240.018 133.505 240.704 128.405C240.797 127.714 241.057 126.846 241.752 126.793C242.157 127.147 242.118 127.778 242.041 128.311C241.388 132.858 240.455 137.364 239.251 141.797C239.006 142.697 238.322 143.826 237.457 143.479Z" fill="#00A3B9"/>
<path fill-rule="evenodd" clip-rule="evenodd" d="M199.888 261.985C200.692 259.801 202.166 257.869 204.058 256.515C202.047 256.638 200.091 257.514 198.66 258.932C199.448 252.75 201.425 246.72 204.452 241.272C198.854 245.867 195.24 252.804 194.682 260.025C193.348 259.248 191.684 259.061 190.211 259.521C191.573 261.059 192.935 262.597 194.297 264.135C166.286 265.443 138.294 267.178 110.335 269.34C108.882 261.614 110.772 253.317 115.429 246.982C109.284 251.316 105.491 258.797 105.625 266.315C102.885 262.66 101.52 257.439 97.4058 255.351C98.1339 258.932 98.9749 259.738 103.808 268.989C104.006 269.368 104.097 269.747 104.239 270.128C101.719 269.968 97.1621 268.597 94.5132 269.695C96.5085 270.157 100.28 271.921 100.504 273.957C74.1199 275.479 47.5893 274.452 21.4014 270.895C47.0421 272.643 72.7615 273.243 98.4561 272.692C95.145 270.47 90.8865 269.714 87.0125 270.66C92.0062 268.245 97.7929 267.509 103.232 268.597C99.0818 263.954 96.3316 258.076 95.4262 251.916C99.5723 254.75 102.888 258.784 104.866 263.401C104.677 254.724 110.817 246.293 119.134 243.81C113.823 250.574 111.015 259.26 111.362 267.853C137.914 265.584 164.523 263.998 191.156 263.096C189.842 262.053 188.947 260.494 188.711 258.834C190.013 257.722 191.937 257.395 193.533 258.014C194.705 248.737 201.158 240.313 209.809 236.767C204.99 242.209 201.643 248.942 200.212 256.069C201.699 255.169 203.58 254.951 205.233 255.487C204.762 257.497 203.583 259.333 201.952 260.598C234.928 253.061 269.545 265.902 303.042 261.192C286.133 266.661 267.861 262.421 250.185 260.582C233.454 258.841 216.495 259.314 199.888 261.985Z" fill="#00A3B9"/>
<path fill-rule="evenodd" clip-rule="evenodd" d="M214.737 141.411C215.141 142.005 215.014 142.8 214.851 143.501C213.872 147.705 212.146 151.735 209.778 155.344C209.12 154.524 209.725 153.334 210.279 152.439C211.755 150.058 212.839 147.434 213.476 144.706C213.746 143.549 213.963 142.313 214.737 141.411Z" fill="#00A3B9"/>
<path fill-rule="evenodd" clip-rule="evenodd" d="M208.425 149.045C207.815 148.52 208.088 147.541 208.38 146.791C209.317 144.383 209.948 141.855 210.251 139.288C210.351 138.437 210.511 137.436 211.278 137.055C211.639 137.381 211.585 137.953 211.501 138.433C210.865 142.079 210.204 145.8 208.425 149.045Z" fill="#00A3B9"/>
<path fill-rule="evenodd" clip-rule="evenodd" d="M157.726 162.635C157.904 162.475 158.182 162.639 158.347 162.813C159.089 163.589 159.531 164.646 159.564 165.72C158.572 165.187 157.844 164.186 157.645 163.078C157.617 162.924 157.608 162.74 157.726 162.635Z" fill="#00A3B9"/>
<path fill-rule="evenodd" clip-rule="evenodd" d="M235.838 130.074C235.574 134.756 234.505 139.391 232.692 143.715C232.645 143.827 232.595 143.943 232.503 144.022C232.234 144.254 231.78 144.004 231.684 143.662C231.587 143.32 231.725 142.961 231.855 142.631C233.134 139.394 233.982 135.988 234.371 132.53C234.487 131.501 234.811 130.195 235.838 130.074Z" fill="#00A3B9"/>
<path fill-rule="evenodd" clip-rule="evenodd" d="M155.996 154.56C154.254 152.205 152.853 149.598 151.85 146.846C151.721 146.492 151.8 145.895 152.164 145.993C152.301 146.03 152.382 146.167 152.449 146.292C153.961 149.112 155.474 151.933 156.986 154.753C156.909 155.177 156.252 154.907 155.996 154.56Z" fill="#00A3B9"/>
<path fill-rule="evenodd" clip-rule="evenodd" d="M106.399 105.62C105.599 105.205 105.567 104.09 105.663 103.193C107.453 86.4879 115.586 70.5401 128.057 59.2814C128.343 61.4008 126.707 63.2365 125.257 64.8076C114.924 76.0009 108.226 90.4972 106.399 105.62Z" fill="#00A3B9"/>
<path fill-rule="evenodd" clip-rule="evenodd" d="M211.233 105.604C211.461 100.12 210.543 94.0829 208.557 88.965C212.177 93.1237 212.328 99.1738 212.289 104.687C218.064 101.253 224.75 99.3659 231.469 99.2752C229.328 99.8624 227.187 100.449 225.047 101.036C221.566 101.991 218.047 102.962 214.898 104.725C213.42 105.553 211.664 106.577 210.161 105.795C204.35 102.776 197.593 101.837 191.074 102.461C184.556 103.084 178.25 105.715 172.334 108.523C169.246 109.99 165.766 111.683 162.569 110.47C150.898 106.046 137.584 105.616 125.965 110.177C123.905 110.985 121.609 110.088 119.582 109.201C117.389 108.242 115.196 107.282 113.004 106.323C115.553 106.857 121.882 109.134 121.882 109.134C121.882 109.134 123.705 109.355 124.279 108.655C124.853 107.954 125.034 107.024 125.241 106.142C126.151 102.264 127.921 98.5886 130.385 95.4585C130.818 94.9082 131.746 94.395 132.091 95.004C128.68 98.9575 126.405 103.881 125.606 109.041C138.038 104.351 152.225 104.5 164.556 109.447C165.734 102.625 165.77 95.6064 164.662 88.772C165.456 88.4001 166.038 89.5816 166.116 90.4541C166.684 96.8102 166.582 103.226 165.812 109.561C172.943 106.116 180.34 103.003 188.159 101.747C195.979 100.49 204.327 101.727 211.233 105.604Z" fill="#00A3B9"/>
<path fill-rule="evenodd" clip-rule="evenodd" d="M120.589 91.9853C124.317 81.3154 130.129 71.3781 137.6 62.898C138.148 62.2759 138.799 61.6157 139.627 61.5873C140.455 61.5594 141.233 62.6417 140.649 63.2294C132.053 71.8711 125.348 82.3844 121.139 93.8235C120.381 93.8432 120.339 92.7007 120.589 91.9853Z" fill="#00A3B9"/>
<path fill-rule="evenodd" clip-rule="evenodd" d="M108.81 140.029C108.919 140.162 108.932 140.347 108.941 140.518C109.298 147.624 111.104 154.568 112.901 161.452C112.977 161.746 112.548 161.958 112.279 161.818C112.009 161.678 111.892 161.362 111.798 161.073C109.703 154.623 108.365 147.927 107.822 141.168C107.795 140.83 107.776 140.467 107.955 140.18C108.135 139.894 108.596 139.768 108.81 140.029Z" fill="#00A3B9"/>
<path fill-rule="evenodd" clip-rule="evenodd" d="M164.944 82.3277C164.196 82.3591 163.952 81.3417 163.963 80.5934C164.076 72.7669 164.19 64.9409 164.303 57.1149C164.315 56.2506 164.549 55.1253 165.408 55.03C166.172 55.9248 166.155 57.2249 166.099 58.3998C165.714 66.3758 165.329 74.3517 164.944 82.3277Z" fill="#00A3B9"/>
<path fill-rule="evenodd" clip-rule="evenodd" d="M237.005 94.3063C238.663 91.6139 238.551 88.2258 238.272 85.0758C237.782 79.5587 236.942 74.0726 235.759 68.6619C235.646 68.143 235.578 67.4894 236.015 67.188C236.376 66.9382 236.903 67.1104 237.186 67.4464C237.469 67.7818 237.568 68.2307 237.655 68.6608C239.012 75.3874 239.63 82.2633 239.494 89.1241C239.444 91.6757 239.026 94.6686 236.786 95.8917C236.356 95.4995 236.699 94.8023 237.005 94.3063Z" fill="#00A3B9"/>
<path fill-rule="evenodd" clip-rule="evenodd" d="M210.738 76.1742C211.3 78.6761 211.062 81.3518 210.065 83.7144C209.38 82.9787 209.572 81.8245 209.691 80.8269C210.151 76.9499 208.794 73.0891 207.124 69.5602C205.455 66.0307 203.438 62.6229 202.435 58.8503C202.284 58.2828 202.307 57.4605 202.886 57.3602C203.375 57.2755 203.708 57.8283 203.89 58.2899C205.766 63.0424 207.642 67.795 209.517 72.5475C209.987 73.7351 210.457 74.9288 210.738 76.1742Z" fill="#00A3B9"/>
<path fill-rule="evenodd" clip-rule="evenodd" d="M261.54 62.0336C261.83 59.2738 264.207 57.2051 266.644 55.8771C271.051 53.4755 276.24 52.5387 281.21 53.247C283.46 53.5678 285.175 51.4235 286.783 49.8169C290.956 45.6475 297.332 44.125 303.152 45.0882C308.972 46.0514 314.245 49.2662 318.492 53.36C322.74 57.4534 326.055 62.4066 329.123 67.4449C329.767 68.5018 331.26 68.5296 332.496 68.4693C335.163 68.3386 337.969 68.4121 340.299 69.7167C342.628 71.0209 344.265 73.9165 343.323 76.4149C342.881 77.5848 341.944 78.517 340.873 79.1625C338.737 80.4505 336.147 80.6719 333.659 80.8619C317.074 82.1286 300.488 83.3947 283.902 84.6614C279.365 85.0079 274.755 85.3504 270.298 84.4273C265.842 83.5036 261.479 81.1289 259.197 77.1906C256.916 73.2523 257.297 67.643 260.797 64.7337C261.536 64.1186 261.44 62.9902 261.54 62.0336ZM267.823 56.7334C265.838 57.6794 263.856 59.0727 263.202 61.1728C262.969 61.9207 262.921 62.7151 262.705 63.4685C262.144 65.4212 260.528 66.8875 259.675 68.7318C257.899 72.5769 259.924 77.3588 263.312 79.9007C266.7 82.4427 271.089 83.1981 275.314 83.4961C290.522 84.5666 305.644 80.7079 320.885 80.3243C326.872 80.1738 333.049 80.53 338.649 78.4096C340.768 77.6066 343.098 75.5758 342.188 73.5C341.958 72.9756 341.544 72.5546 341.11 72.1812C338.429 69.8758 334.589 68.9937 331.171 69.8981C329.427 70.3592 327.971 68.5909 327.017 67.0608C322.863 60.4042 318.16 53.7689 311.45 49.7019C304.74 45.6354 295.539 44.7457 289.298 49.5002C286.493 51.6368 283.884 54.9565 280.378 54.5846C276.102 54.1312 271.705 54.8836 267.823 56.7334Z" fill="#00A3B9"/>
<path fill-rule="evenodd" clip-rule="evenodd" d="M35.558 37.2273C34.9981 38.9742 35.7039 40.8545 36.4684 42.5214C37.3571 44.4594 38.8184 46.6452 40.9459 46.5109C47.5163 46.0959 54.0863 45.681 60.6567 45.266C61.6082 45.2057 62.918 45.454 62.9235 46.4081C54.6846 47.0672 46.4457 47.7269 38.2068 48.3861C32.6644 48.8299 26.8695 49.3553 22.19 52.3578C17.5104 55.3598 14.4602 61.6901 16.9844 66.6438C17.9408 68.5205 19.8179 70.0897 21.9235 70.0268C27.5985 69.8581 33.2734 69.6889 38.9481 69.5202C40.2705 69.4806 42.0798 69.8981 42.0205 71.2195C33.0023 70.6804 23.9304 71.0371 14.9821 72.2825C11.7694 72.7294 8.46473 73.3323 5.77058 75.1386C3.07648 76.9449 1.14066 80.2615 1.89503 83.416C2.41569 85.5937 4.12128 87.3422 6.09363 88.4016C8.06598 89.4605 10.2986 89.9196 12.5065 90.29C35.9197 94.2217 59.9393 89.6237 83.6183 91.3408C86.2677 91.5328 89.1359 91.9047 91.0228 93.7743C70.594 89.8532 49.5268 94.2293 28.7482 93.2458C24.1233 93.0275 19.5155 92.5426 14.9108 92.0582C11.1419 91.6615 7.1931 91.2004 4.08389 89.0334C2.5879 87.9907 1.3339 86.5502 0.708066 84.8377C-0.842232 80.5949 1.89362 75.7476 5.74869 73.3931C9.60377 71.0386 14.2818 70.5725 18.7805 70.1631C15.1037 67.6475 14.0105 62.3478 15.6013 58.1865C17.192 54.0248 20.9756 50.9909 25.1225 49.3619C29.2694 47.7335 33.7877 47.3403 38.2377 47.1306C36.9255 45.4119 35.5934 43.6574 34.8598 41.6231C34.1261 39.5883 34.0719 37.1923 35.2428 35.3734C36.0565 34.1087 37.3622 33.253 38.6649 32.5011C51.1263 25.311 66.19 24.476 80.5728 24.8327C84.4807 24.9294 88.5163 25.1321 92.031 26.8436C97.4838 29.4991 100.798 35.6389 100.831 41.7031C100.864 47.768 97.9296 53.6199 93.6164 57.8835C92.9238 56.9239 93.7897 55.6476 94.5487 54.7397C98.0624 50.5333 100.059 44.9255 99.3108 39.4966C98.5635 34.0672 94.8385 28.9888 89.6457 27.2363C87.4756 26.5042 85.1591 26.3496 82.872 26.2331C67.9993 25.4751 52.4127 26.2539 39.3874 33.4718C37.7838 34.36 36.1168 35.4818 35.558 37.2273Z" fill="#00A3B9"/>
<path fill-rule="evenodd" clip-rule="evenodd" d="M136.203 141.829C125.939 132.073 114.089 122.198 111.325 108.31C116.398 121.338 127.663 130.718 137.543 140.611C147.423 150.504 156.782 162.845 156.172 176.813C172.326 173.287 189.067 172.46 205.491 174.378C207.174 166.796 212.075 160.413 215.92 153.665C225.453 136.937 228.675 117.464 231.738 98.4554C232.513 93.6497 226.629 90.8012 221.912 89.5994C217.201 88.3986 212.489 87.1983 207.778 85.998C198.924 83.7418 189.751 81.4699 180.745 83.0127C174.656 84.0554 168.642 86.8304 162.552 85.7918C152.857 84.138 142.572 86.2321 134.296 91.545C130.135 94.2161 126.476 97.8454 121.896 99.6324C111.98 103.501 106.285 108.186 97.795 118.883C94.5959 102.334 99.9858 85.3991 106.288 69.7669C113.332 52.2915 122.175 34.6108 137.331 23.4175C159.552 7.00712 192.071 8.68115 215.186 23.8062C238.302 38.9312 252.426 65.3929 256.991 92.6373C257.522 95.8065 257.898 99.2362 256.406 102.082C254.914 104.928 250.805 106.574 248.372 104.475C246.299 102.685 244.092 100.829 241.402 100.314C238.712 99.7986 235.448 101.196 234.926 103.885C231.107 123.578 227.095 143.771 216.483 160.793C213.719 165.225 210.501 169.458 208.743 174.377C207.399 178.141 206.965 182.16 206.541 186.135C205.658 194.417 204.775 202.699 203.892 210.98C203.52 214.471 203.001 218.272 200.458 220.693C198.03 223.004 194.416 223.42 191.076 223.717C180.232 224.68 169.387 225.643 158.543 226.606C156.604 226.778 154.405 226.866 152.988 225.53C151.897 224.501 151.594 222.907 151.38 221.422C149.856 210.886 149.857 200.13 151.381 189.594C153.568 174.477 146.803 159.011 136.147 148.067C130.594 142.364 124.045 137.702 118.501 131.99C112.957 126.278 108.317 119.099 107.985 111.146C111.757 121.598 118.709 130.88 127.679 137.44C141.084 147.243 150.634 162.178 153.909 178.459C156.484 164.534 146.467 151.584 136.203 141.829ZM159.225 83.8705C163.587 84.2961 168.154 85.3803 172.224 83.757C183.185 79.3855 195.9 79.6165 206.694 84.3837C211.301 86.4185 216.488 86.5305 221.448 87.3989C226.41 88.2668 231.647 90.2464 234.173 94.6037C237.009 99.4966 245.345 98.1443 248.575 102.786C249.915 104.712 253.21 103.978 254.478 102.005C255.746 100.032 255.576 97.4927 255.292 95.1646C252.984 76.2137 246.044 57.6328 234.066 42.7661C222.089 27.8995 204.908 16.9672 186.058 13.9444C167.207 10.9221 146.868 16.2649 132.916 29.2964C124.471 37.1837 118.614 47.4158 113.468 57.7619C104.505 75.7805 97.1677 95.4524 98.6152 115.525C104.631 108.246 111.166 100.608 120.189 97.8205C122.344 97.1548 124.705 96.7271 126.34 95.1742C135.008 86.9434 147.328 82.7082 159.225 83.8705ZM168.866 208.068C168.833 212.907 169.558 217.751 171.007 222.368C171.13 222.763 171.283 223.187 171.634 223.405C171.975 223.618 172.409 223.577 172.807 223.53C177.657 222.949 182.506 222.37 187.355 221.79C187.533 221.768 187.732 221.736 187.838 221.592C187.949 221.442 187.915 221.235 187.876 221.053C187.003 216.951 186.131 212.849 185.258 208.747C185.209 208.516 185.153 208.272 184.99 208.101C184.79 207.891 184.479 207.842 184.191 207.806C179.428 207.203 174.616 206.978 169.817 207.135C169.536 207.145 169.222 207.17 169.037 207.382C168.879 207.564 168.868 207.826 168.866 208.068ZM184.256 190.968C184.097 190.75 183.795 190.707 183.525 190.683C178.636 190.25 173.703 190.321 168.828 190.894C168.545 190.927 168.246 190.969 168.028 191.151C167.67 191.449 167.667 191.988 167.695 192.453C167.857 195.215 168.02 197.976 168.183 200.737C168.222 201.412 168.485 202.301 169.159 202.268C173.94 202.028 178.742 202.203 183.493 202.791C184.146 202.872 184.398 201.969 184.397 201.311C184.392 198.057 184.386 194.803 184.381 191.548C184.38 191.347 184.375 191.131 184.256 190.968ZM153.948 209.73C153.579 209.897 153.201 210.085 152.952 210.404C152.553 210.911 152.57 211.619 152.606 212.263C152.731 214.523 152.856 216.783 152.982 219.043C153.045 220.187 153.112 221.349 153.5 222.428C153.888 223.505 154.649 224.506 155.723 224.905C156.607 225.234 157.587 225.123 158.524 225.008C160.296 224.79 162.069 224.572 163.842 224.354C164.57 224.265 165.324 224.167 165.947 223.78C164.285 218.734 163.181 213.504 162.66 208.216C162.624 207.846 162.126 207.759 161.755 207.782C159.064 207.952 156.404 208.615 153.948 209.73ZM201.648 203.677C202.173 200.434 202.698 197.19 203.223 193.945C203.269 193.661 203.308 193.343 203.141 193.109C202.971 192.871 202.652 192.806 202.363 192.759C198.52 192.142 194.667 191.585 190.806 191.088C190.516 191.051 190.165 191.04 189.998 191.279C189.898 191.422 189.901 191.61 189.908 191.784C190.048 195.166 190.188 198.548 190.327 201.93C190.34 202.239 190.369 202.585 190.6 202.79C190.763 202.935 190.991 202.975 191.207 203.01C194.448 203.534 197.688 204.057 200.929 204.58C201.354 204.649 201.579 204.102 201.648 203.677ZM167.956 184.54C167.887 184.914 167.863 185.392 168.196 185.576C168.355 185.664 168.549 185.649 168.731 185.631C173.813 185.143 178.895 184.655 183.977 184.167C184.239 184.142 184.516 184.111 184.728 183.954C185.016 183.74 185.104 183.354 185.172 183.002C185.586 180.859 186 178.715 186.415 176.572C186.473 176.267 186.509 175.895 186.267 175.701C186.098 175.566 185.858 175.577 185.642 175.595C180.771 176.003 175.899 176.411 171.027 176.819C170.629 176.852 170.213 176.891 169.877 177.106C169.307 177.469 169.135 178.208 169.012 178.873C168.66 180.762 168.308 182.651 167.956 184.54ZM190.853 177.49C190.663 179.348 190.473 181.207 190.282 183.065C190.251 183.371 190.224 183.699 190.373 183.968C190.593 184.366 191.101 184.481 191.549 184.557C195.627 185.244 199.705 185.93 203.783 186.617C203.952 186.646 204.132 186.673 204.29 186.606C204.59 186.477 204.657 186.088 204.679 185.762C204.841 183.364 204.877 180.957 204.788 178.555C204.773 178.141 204.751 177.716 204.582 177.338C204.071 176.19 202.55 175.999 201.293 175.974C198.35 175.914 195.406 175.854 192.462 175.794C192.157 175.788 191.837 175.785 191.567 175.927C191.037 176.204 190.915 176.895 190.853 177.49ZM234.266 98.4463C232.162 101.189 231.585 104.77 231.05 108.186C228.347 125.465 224.842 143.144 215.334 157.823C212.077 162.851 208.017 167.816 207.557 173.79C209.35 167.571 214.317 162.865 217.727 157.363C220.228 153.327 221.898 148.838 223.427 144.342C227.118 133.49 230.089 122.393 232.315 111.149C233.115 107.106 233.904 102.854 236.507 99.6587C235.623 99.6501 234.757 99.1809 234.266 98.4463ZM161.308 202.912C161.591 202.838 161.894 202.752 162.078 202.525C162.274 202.282 162.283 201.942 162.283 201.628C162.279 198.646 162.275 195.664 162.272 192.683C162.272 192.468 162.265 192.235 162.129 192.069C161.934 191.83 161.573 191.839 161.266 191.872C158.9 192.131 156.557 192.597 154.272 193.262C154.004 193.34 153.723 193.43 153.532 193.634C153.313 193.868 153.257 194.207 153.214 194.525C152.769 197.744 152.592 201.001 152.684 204.249C152.691 204.514 152.73 204.829 152.965 204.95C153.128 205.035 153.325 204.99 153.502 204.944C156.104 204.267 158.706 203.589 161.308 202.912ZM199.419 218.976C201.142 216.904 201.157 213.948 201.086 211.255C201.072 210.73 200.455 210.47 199.946 210.345C197.223 209.673 194.457 209.177 191.67 208.861C191.426 208.833 191.159 208.812 190.956 208.95C190.645 209.16 190.648 209.61 190.689 209.983C191.066 213.461 191.788 216.901 192.841 220.237C192.963 220.624 193.124 221.05 193.491 221.225C193.689 221.319 193.916 221.322 194.135 221.315C196.119 221.258 198.149 220.502 199.419 218.976ZM157.782 178.866C157.105 179.06 156.415 179.289 155.882 179.75C155.376 180.186 155.054 180.798 154.804 181.418C154.008 183.387 153.827 185.542 153.655 187.659C153.642 187.82 153.633 187.999 153.732 188.127C153.88 188.32 154.173 188.294 154.412 188.25C156.475 187.863 158.537 187.477 160.6 187.09C161.187 186.98 161.837 186.83 162.171 186.334C162.397 185.997 162.425 185.569 162.446 185.163C162.573 182.726 162.699 180.289 162.825 177.853C161.12 178.052 159.432 178.391 157.782 178.866ZM169.361 189.3C173.865 188.812 178.415 188.752 182.931 189.121C183.443 189.163 184.005 189.197 184.42 188.894C185.07 188.419 184.982 187.44 184.827 186.65C184.786 186.444 184.74 186.226 184.596 186.074C184.366 185.83 183.982 185.84 183.648 185.869C179.14 186.247 174.632 186.625 170.125 187.002C169.503 187.055 168.839 187.123 168.356 187.518C167.874 187.914 167.717 188.762 168.215 189.138C168.53 189.377 168.967 189.342 169.361 189.3ZM203.679 188.942C203.138 188.388 202.322 188.226 201.559 188.09C198.186 187.49 194.813 186.891 191.44 186.292C190.999 186.214 190.459 186.173 190.194 186.533C190.078 186.69 190.046 186.891 190.017 187.084C189.874 188.044 189.992 189.38 190.954 189.507C194.789 190.012 198.623 190.517 202.458 191.022C202.838 191.073 203.246 191.118 203.586 190.94C204.272 190.58 204.221 189.495 203.679 188.942ZM164.818 207.973C164.589 208.601 164.703 209.295 164.822 209.952C165.549 213.971 166.339 217.979 167.243 221.962C167.365 222.499 167.5 223.057 167.856 223.476C168.213 223.895 168.864 224.119 169.328 223.825C170.027 223.383 169.769 222.324 169.469 221.554C167.917 217.575 167.476 213.256 167.262 208.99C167.225 208.241 167.08 207.327 166.376 207.069C165.75 206.838 165.046 207.345 164.818 207.973ZM200.754 208.714C201.571 208.403 201.007 207.009 201.591 206.359C198.2 205.513 194.742 204.933 191.261 204.625C190.439 204.553 190.059 205.791 190.548 206.454C191.037 207.118 191.931 207.307 192.743 207.447C193.475 207.574 194.207 207.7 194.939 207.827C196.658 208.124 198.377 208.421 200.096 208.719C200.315 208.757 200.546 208.793 200.754 208.714ZM170.16 205.666C174.368 205.419 178.601 205.577 182.779 206.138C183.613 206.25 184.771 206.151 184.883 205.317C184.999 204.453 183.835 204.074 182.965 204.031C178.736 203.82 174.499 203.79 170.268 203.942C169.519 203.969 168.491 204.349 168.689 205.072C168.84 205.627 169.586 205.7 170.16 205.666ZM186.318 191.478C186.12 191.89 186.115 192.365 186.113 192.822C186.104 195.399 186.095 197.977 186.086 200.554C186.084 201.126 186.086 201.719 186.326 202.238C186.566 202.757 187.117 203.179 187.68 203.08C188.614 202.914 188.787 201.663 188.735 200.716C188.585 197.974 188.435 195.232 188.286 192.49C188.249 191.815 188.072 190.968 187.411 190.83C186.964 190.737 186.515 191.066 186.318 191.478ZM189.194 209.313C189.007 208.773 188.574 208.276 188.008 208.198C187.443 208.12 186.819 208.628 186.928 209.188C187.59 212.602 188.253 216.015 188.916 219.428C189.071 220.228 189.285 221.117 189.975 221.55C190.664 221.983 191.863 221.403 191.605 220.63C190.559 217.497 189.504 214.308 189.393 211.007C189.373 210.436 189.381 209.852 189.194 209.313ZM166.126 202.031C166.434 201.482 166.409 200.814 166.376 200.184C166.262 197.989 166.147 195.793 166.033 193.598C165.997 192.916 165.938 192.174 165.477 191.67C165.015 191.167 164.004 191.163 163.782 191.809C163.723 191.98 163.729 192.166 163.735 192.348C163.84 195.285 163.945 198.223 164.049 201.16C164.067 201.669 164.123 202.253 164.536 202.551C165.046 202.92 165.818 202.581 166.126 202.031ZM164.547 178.004C163.963 178.811 163.937 179.879 163.933 180.874C163.928 182.245 163.923 183.616 163.918 184.988C163.915 185.723 164.185 186.727 164.916 186.655C165.489 186.6 165.717 185.9 165.812 185.333C166.24 182.787 166.668 180.241 167.095 177.695C166.495 176.901 165.13 177.198 164.547 178.004ZM160.532 206.607C161.135 206.554 161.806 206.502 162.213 206.055C162.619 205.607 162.366 204.653 161.766 204.735C159.917 204.989 158.068 205.242 156.219 205.495C155.26 205.627 154.242 205.784 153.511 206.419C152.78 207.054 152.539 208.344 153.287 208.959C155.485 207.645 157.981 206.835 160.532 206.607ZM153.791 190.05C153.238 190.576 153.14 191.634 153.793 192.029C155.91 191.322 158.103 190.842 160.322 190.6C160.868 190.54 161.448 190.483 161.886 190.15C162.325 189.818 162.518 189.1 162.121 188.719C161.809 188.418 161.311 188.462 160.883 188.526C159.223 188.775 157.564 189.024 155.905 189.272C155.15 189.385 154.344 189.523 153.791 190.05ZM188.379 175.88C188.184 176.088 188.125 176.386 188.074 176.667C187.684 178.81 187.295 180.953 186.905 183.097C186.835 183.484 186.791 183.952 187.093 184.205C187.401 184.462 187.905 184.304 188.149 183.984C188.393 183.664 188.446 183.243 188.49 182.843C188.732 180.694 188.974 178.546 189.215 176.397C189.237 176.204 189.252 175.989 189.132 175.836C188.955 175.612 188.574 175.672 188.379 175.88ZM187.651 204.266C186.84 204.167 186.054 205.202 186.559 205.844C186.913 206.293 187.328 206.751 187.886 206.873C188.444 206.995 189.138 206.589 189.085 206.02C189.008 205.207 188.461 204.365 187.651 204.266ZM187.971 187.813C188.245 187.156 188.31 186.106 187.604 186.024C187.328 185.991 187.067 186.161 186.877 186.365C185.997 187.31 186.451 189.114 187.675 189.529C188.067 189.077 188.205 188.418 188.027 187.846C187.833 187.22 187.72 188.418 187.971 187.813ZM166.081 189.015C165.917 188.411 165.415 187.842 164.787 187.835C163.975 187.827 163.443 188.981 163.977 189.594C164.511 190.206 165.727 189.837 165.83 189.031C165.921 188.317 166.27 189.71 166.081 189.015ZM166.577 205.643C166.77 205.479 166.908 205.252 166.966 205.005C166.431 204.407 165.494 204.213 164.766 204.55C164.605 204.625 164.448 204.728 164.357 204.88C164.094 205.316 164.53 205.902 165.031 205.985C165.533 206.068 166.024 205.823 166.474 205.586L166.577 205.643Z" fill="#00A3B9"/>
</svg>
