<svg width="271" height="217" viewBox="0 0 271 217" fill="none" xmlns="http://www.w3.org/2000/svg">
<path fill-rule="evenodd" clip-rule="evenodd" d="M189.155 1.1496C142.809 -6.45365 147.534 69.6545 85.8678 59.2377C22.7934 48.5829 3.94175 123.746 22.7934 165.263C43.1546 210.104 173.53 234.21 220.173 201.154C272.669 163.95 276.112 15.4155 189.155 1.1496Z" fill="#9747FF"/>
<path fill-rule="evenodd" clip-rule="evenodd" d="M86.2265 82.8562C86.2265 82.8562 91.5482 94.4594 96.1702 99.8383C102.729 107.472 112.095 113.813 115.612 119.766C123.969 133.911 120.262 140.831 120.262 140.831C120.262 140.831 115.847 125.582 109.519 118.134C104.689 112.449 95.2028 106.145 92.0321 101.477C86.3201 93.0674 83.3691 85.0111 83.3691 85.0111L86.2265 82.8562Z" fill="white"/>
<path d="M151.926 206.358C130.107 207.377 108.303 208.728 86.5244 210.412C83.7318 210.688 81.6653 210.729 81.7758 211.026C79.8123 210.901 76.2631 209.833 74.1998 210.688C75.754 211.049 78.6919 212.422 78.8663 214.008C58.3145 215.194 37.6485 214.394 17.2495 211.624C37.2223 212.985 57.2564 213.452 77.2711 213.024C74.6919 211.293 71.3748 210.703 68.3571 211.44C72.247 209.56 76.7545 208.986 80.9912 209.833C77.7585 206.217 75.6163 201.638 74.911 196.839C78.1405 199.048 80.7232 202.19 82.264 205.786C82.1168 199.027 86.8998 192.46 93.3778 190.526C89.2409 195.795 87.0541 202.561 87.3244 209.254C108.007 207.487 128.734 206.251 149.48 205.548C148.456 204.736 147.759 203.522 147.575 202.228C148.589 201.362 150.087 201.108 151.331 201.59C152.244 194.364 157.27 187.802 164.009 185.039C160.256 189.279 157.648 194.523 156.534 200.075C157.692 199.374 159.157 199.203 160.445 199.621C160.078 201.187 159.16 202.617 157.889 203.603C183.576 197.732 210.54 207.734 236.633 204.065C223.461 208.325 209.229 205.022 195.46 203.59C175.304 201.59 155.946 205.548 151.926 206.358Z" fill="white"/>
<path d="M206.279 50.1155C206.504 47.9657 208.355 46.3543 210.254 45.3199C213.687 43.4492 217.729 42.7194 221.6 43.2712C223.353 43.521 224.689 41.8508 225.941 40.5993C229.191 37.3516 234.159 36.1656 238.692 36.9159C243.225 37.6661 247.333 40.1703 250.641 43.3592C253.95 46.5477 256.532 50.406 258.922 54.3305C259.423 55.1538 260.586 55.1755 261.549 55.1285C263.627 55.0267 265.813 55.0839 267.627 56.1002C269.442 57.1161 270.717 59.3716 269.983 61.3177C269.639 62.229 268.909 62.9552 268.074 63.458C266.411 64.4612 264.393 64.6337 262.456 64.7817C249.536 65.7684 236.617 66.7546 223.697 67.7413C220.163 68.0113 216.572 68.278 213.1 67.559C209.629 66.8395 206.231 64.9897 204.453 61.9219C202.676 58.8542 202.973 54.4848 205.7 52.2187C206.276 51.7395 206.2 50.8606 206.279 50.1155Z" fill="white"/>
<path d="M163.034 69.9086C165.854 73.1476 180.409 72.0134 180.881 77.9393C179.213 78.3967 177.546 78.8541 175.878 79.3115C173.167 80.0551 170.426 80.8109 167.973 82.1851C166.822 82.8296 165.454 83.6268 164.283 83.0186C159.757 80.6664 154.493 79.9355 149.416 80.4209C144.338 80.9064 139.426 82.5608 134.818 84.7485C132.413 85.8906 129.702 87.2096 127.211 86.2656C118.12 82.8186 107.749 82.8789 98.6989 86.4313C97.0946 87.0612 95.3056 86.3623 93.7265 85.6712C92.0184 84.9237 90.3107 84.1766 88.6025 83.4291C90.8052 80.9095 100.222 77.4049 102.142 74.9663C102.479 74.538 115.053 65.8183 128.842 69.7582C129.46 69.4682 150.905 65.8183 163.034 69.9086Z" fill="white"/>
<path fill-rule="evenodd" clip-rule="evenodd" d="M106.674 111.088C98.6791 103.489 89.4487 95.797 87.2954 84.9783C91.2472 95.1276 100.022 102.434 107.718 110.14C115.414 117.846 122.704 127.459 122.228 138.339C134.812 135.592 147.852 134.949 160.645 136.442C161.957 130.537 165.774 125.565 168.77 120.308C176.195 107.278 178.705 92.1092 181.091 77.3029C181.694 73.5595 177.111 71.3406 173.436 70.4045C169.767 69.4691 166.097 68.5342 162.427 67.5992C155.53 65.8418 148.385 64.0721 141.37 65.2734C136.627 66.0861 131.942 68.2476 127.198 67.4382C119.647 66.15 111.635 67.7815 105.188 71.92C101.947 74.0003 99.0675 76.6975 95.5297 78.2193C88.0843 81.4228 81.5261 86.6612 76.7562 93.2147C74.2643 80.3244 78.4627 67.1327 83.3716 54.9557C88.8586 41.3436 95.7468 27.5713 107.552 18.8523C124.862 6.0691 147.43 8.55747 165.435 20.3391C183.441 32.1207 194.443 51.5489 197.999 72.7709C198.412 75.2396 198.705 77.9111 197.543 80.1275C196.381 82.344 195.943 83.6266 194.048 81.9915C192.433 80.5975 190.714 79.1519 188.619 78.7505C186.523 78.3491 183.981 79.438 183.574 81.5325C180.599 96.872 177.474 112.601 169.208 125.86C167.055 129.313 164.548 132.61 163.179 136.442C162.132 139.374 161.794 142.504 161.464 145.6C160.776 152.052 160.088 158.503 159.4 164.954C159.11 167.673 158.706 170.634 156.726 172.519C154.834 174.32 152.019 174.643 149.417 174.875C140.97 175.625 132.523 176.375 124.076 177.125C122.565 177.259 120.852 177.328 119.749 176.287C118.899 175.486 118.663 174.244 118.496 173.088C117.309 164.88 117.31 156.502 118.497 148.295C120.2 136.519 114.931 124.472 106.63 115.947C102.305 111.505 97.2039 107.874 92.8854 103.424C88.567 98.9748 84.9526 93.3828 84.6933 87.1877C87.632 95.3301 93.0472 102.56 100.034 107.67C110.476 115.306 117.915 126.939 120.466 139.621C122.472 128.775 114.669 118.688 106.674 111.088Z" fill="white"/>
<path fill-rule="evenodd" clip-rule="evenodd" d="M85.0677 135.872C83.8009 135.177 83.334 133.619 83.0009 132.213C81.3666 125.315 80.1715 118.312 79.426 111.262C79.3786 110.814 79.3569 110.296 79.6829 109.985C80.3815 110.809 80.505 111.96 80.6123 113.035C81.3831 120.763 82.8769 128.42 85.0677 135.872Z" fill="#333333"/>
<path fill-rule="evenodd" clip-rule="evenodd" d="M185.545 112.373C186.693 108.533 187.54 104.603 188.075 100.631C188.147 100.093 188.349 99.4167 188.891 99.3752C189.206 99.6511 189.176 100.142 189.116 100.558C188.607 104.1 187.881 107.61 186.942 111.063C186.752 111.764 186.219 112.644 185.545 112.373Z" fill="#333333"/>
<path fill-rule="evenodd" clip-rule="evenodd" d="M156.281 204.683C156.908 202.982 158.055 201.477 159.529 200.422C157.963 200.518 156.439 201.201 155.324 202.305C155.938 197.489 157.479 192.793 159.837 188.548C155.475 192.128 152.66 197.531 152.226 203.156C151.187 202.551 149.891 202.405 148.743 202.764C149.804 203.962 150.865 205.16 151.926 206.358C130.107 207.377 108.303 208.728 86.5244 210.412C85.3921 204.394 86.8646 197.931 90.492 192.997C85.7055 196.372 82.7506 202.199 82.8556 208.055C80.7213 205.209 79.658 201.142 76.4529 199.515C77.0201 202.305 77.6752 202.932 81.44 210.139C81.5939 210.434 81.6653 210.729 81.7758 211.026C79.8123 210.901 76.2631 209.833 74.1998 210.688C75.754 211.049 78.6919 212.422 78.8663 214.008C58.3145 215.194 37.6485 214.394 17.2495 211.624C37.2223 212.985 57.2564 213.452 77.2711 213.024C74.6919 211.293 71.3748 210.703 68.3571 211.44C72.247 209.56 76.7545 208.986 80.9912 209.833C77.7585 206.217 75.6163 201.638 74.911 196.839C78.1405 199.048 80.7232 202.19 82.264 205.786C82.1168 199.027 86.8998 192.46 93.3778 190.526C89.2409 195.795 87.0541 202.561 87.3244 209.254C108.007 207.487 128.734 206.251 149.48 205.548C148.456 204.736 147.759 203.522 147.575 202.228C148.589 201.362 150.087 201.108 151.331 201.59C152.244 194.364 157.27 187.802 164.009 185.039C160.256 189.279 157.648 194.523 156.534 200.075C157.692 199.374 159.157 199.203 160.445 199.621C160.078 201.187 159.16 202.617 157.889 203.603C183.576 197.732 210.54 207.734 236.633 204.065C223.461 208.325 209.229 205.022 195.46 203.59C182.428 202.234 169.217 202.602 156.281 204.683Z" fill="#333333"/>
<path fill-rule="evenodd" clip-rule="evenodd" d="M167.848 110.762C168.163 111.225 168.064 111.844 167.937 112.39C167.174 115.665 165.83 118.804 163.986 121.615C163.472 120.976 163.944 120.049 164.376 119.352C165.525 117.497 166.37 115.454 166.865 113.329C167.076 112.427 167.245 111.465 167.848 110.762Z" fill="#333333"/>
<path fill-rule="evenodd" clip-rule="evenodd" d="M162.931 116.709C162.456 116.299 162.669 115.537 162.896 114.953C163.626 113.077 164.117 111.108 164.353 109.109C164.431 108.446 164.556 107.666 165.153 107.369C165.435 107.623 165.393 108.069 165.327 108.442C164.832 111.282 164.316 114.181 162.931 116.709Z" fill="#333333"/>
<path fill-rule="evenodd" clip-rule="evenodd" d="M123.439 127.294C123.578 127.17 123.794 127.298 123.923 127.433C124.501 128.038 124.845 128.861 124.871 129.698C124.098 129.283 123.531 128.503 123.376 127.64C123.354 127.519 123.348 127.376 123.439 127.294Z" fill="#333333"/>
<path fill-rule="evenodd" clip-rule="evenodd" d="M184.284 101.931C184.078 105.578 183.246 109.189 181.834 112.557C181.797 112.644 181.758 112.734 181.686 112.796C181.477 112.977 181.123 112.782 181.048 112.516C180.973 112.249 181.08 111.969 181.182 111.712C182.178 109.191 182.839 106.538 183.141 103.844C183.231 103.043 183.484 102.025 184.284 101.931Z" fill="#333333"/>
<path fill-rule="evenodd" clip-rule="evenodd" d="M122.092 121.005C120.735 119.17 119.643 117.14 118.862 114.996C118.762 114.72 118.823 114.255 119.107 114.332C119.213 114.36 119.276 114.467 119.328 114.564C120.507 116.761 121.685 118.958 122.863 121.155C122.803 121.485 122.291 121.275 122.092 121.005Z" fill="#333333"/>
<path fill-rule="evenodd" clip-rule="evenodd" d="M83.4582 82.883C82.8351 82.5598 82.8098 81.6907 82.8848 80.9926C84.2791 67.98 90.6143 55.5575 100.328 46.7876C100.552 48.4385 99.2773 49.8684 98.1473 51.0922C90.0989 59.8112 84.8814 71.103 83.4582 82.883Z" fill="#333333"/>
<path fill-rule="evenodd" clip-rule="evenodd" d="M165.118 82.8708C165.295 78.5985 164.581 73.896 163.034 69.9095C165.854 73.1489 165.971 77.8617 165.941 82.1564C170.439 79.481 175.647 78.0112 180.881 77.9406C179.213 78.398 177.546 78.855 175.878 79.3125C173.167 80.056 170.426 80.8122 167.973 82.186C166.822 82.8309 165.454 83.6281 164.283 83.0196C159.757 80.6674 154.493 79.9364 149.416 80.4219C144.338 80.9077 139.426 82.9568 134.818 85.1445C132.413 86.2866 129.702 87.6056 127.211 86.6612C118.12 83.2145 107.749 82.8799 98.6989 86.4323C97.0946 87.0621 95.3056 86.3632 93.7265 85.6721C92.0184 84.925 90.3107 84.1775 88.6025 83.4304C90.5881 83.8468 95.5183 85.6204 95.5183 85.6204C95.5183 85.6204 96.9387 85.7921 97.3858 85.2467C97.8326 84.7012 97.9739 83.9762 98.1349 83.2895C98.8438 80.2683 100.222 77.4058 102.142 74.9676C102.479 74.539 103.202 74.1392 103.47 74.6136C100.814 77.6931 99.0419 81.5281 98.4195 85.5474C108.103 81.8948 119.154 82.0104 128.759 85.8639C129.677 80.5497 129.705 75.0828 128.842 69.7592C129.46 69.4695 129.913 70.3898 129.974 71.0694C130.417 76.0205 130.337 81.0182 129.737 85.9527C135.292 83.269 141.054 80.8442 147.145 79.8658C153.236 78.887 159.738 79.8504 165.118 82.8708Z" fill="#333333"/>
<path fill-rule="evenodd" clip-rule="evenodd" d="M94.5115 72.2621C97.4158 63.9508 101.943 56.2102 107.762 49.6047C108.189 49.12 108.696 48.6058 109.341 48.5837C109.986 48.562 110.592 49.405 110.137 49.8628C103.441 56.5942 98.2189 64.7836 94.9397 73.6939C94.3496 73.7093 94.3169 72.8194 94.5115 72.2621Z" fill="#333333"/>
<path fill-rule="evenodd" clip-rule="evenodd" d="M85.3367 109.686C85.4215 109.789 85.4314 109.933 85.4381 110.067C85.7167 115.602 87.1233 121.011 88.5228 126.373C88.5824 126.602 88.2481 126.768 88.0385 126.658C87.8286 126.549 87.737 126.303 87.6636 126.078C86.0317 121.054 84.9897 115.838 84.5667 110.573C84.5457 110.31 84.5307 110.027 84.6705 109.804C84.8106 109.581 85.1697 109.482 85.3367 109.686Z" fill="#333333"/>
<path fill-rule="evenodd" clip-rule="evenodd" d="M129.062 64.7393C128.479 64.7638 128.289 63.9713 128.297 63.3883C128.386 57.2919 128.474 51.1959 128.562 45.0999C128.572 44.4266 128.754 43.55 129.423 43.4758C130.018 44.1728 130.005 45.1855 129.961 46.1008C129.661 52.3136 129.362 58.5264 129.062 64.7393Z" fill="#333333"/>
<path fill-rule="evenodd" clip-rule="evenodd" d="M185.193 74.07C186.485 71.9727 186.398 69.3336 186.18 66.8799C185.799 62.5824 185.144 58.3089 184.223 54.0943C184.135 53.6902 184.082 53.181 184.422 52.9462C184.703 52.7516 185.114 52.8858 185.334 53.1475C185.555 53.4088 185.631 53.7584 185.699 54.0935C186.757 59.3331 187.238 64.6891 187.132 70.0333C187.093 72.0208 186.767 74.3521 185.023 75.3049C184.687 74.9994 184.955 74.4563 185.193 74.07Z" fill="#333333"/>
<path fill-rule="evenodd" clip-rule="evenodd" d="M164.732 59.9461C165.171 61.8949 164.985 63.9792 164.208 65.8195C163.675 65.2465 163.825 64.3474 163.917 63.5703C164.276 60.5503 163.219 57.5429 161.918 54.7941C160.618 52.0448 159.047 49.3903 158.265 46.4516C158.147 46.0096 158.166 45.3691 158.616 45.2909C158.997 45.225 159.256 45.6556 159.399 46.0151C160.86 49.7171 162.321 53.4191 163.782 57.1211C164.148 58.0462 164.514 58.976 164.732 59.9461Z" fill="#333333"/>
<path fill-rule="evenodd" clip-rule="evenodd" d="M204.305 48.9314C204.531 46.7817 206.382 45.1702 208.28 44.1358C211.713 42.2651 215.756 41.5354 219.626 42.0871C221.379 42.3369 222.715 40.6667 223.968 39.4152C227.218 36.1675 232.185 34.9815 236.718 35.7318C241.251 36.482 245.359 38.9862 248.668 42.1751C251.976 45.3636 254.558 49.2219 256.948 53.1464C257.45 53.9697 258.613 53.9914 259.575 53.9445C261.653 53.8426 263.839 53.8999 265.654 54.9161C267.468 55.932 268.743 58.1875 268.009 60.1336C267.665 61.0449 266.935 61.7711 266.101 62.2739C264.437 63.2771 262.419 63.4496 260.482 63.5976C247.563 64.5843 234.643 65.5706 221.724 66.5572C218.189 66.8272 214.598 67.094 211.127 66.3749C207.655 65.6554 204.257 63.8056 202.48 60.7379C200.703 57.6701 201 53.3008 203.726 51.0346C204.302 50.5555 204.227 49.6765 204.305 48.9314ZM209.199 44.8028C207.653 45.5396 206.109 46.625 205.6 48.2609C205.418 48.8434 205.381 49.4622 205.212 50.0491C204.775 51.5701 203.517 52.7123 202.852 54.1489C201.468 57.144 203.046 60.8689 205.685 62.8489C208.324 64.829 211.743 65.4174 215.034 65.6495C226.88 66.4834 238.66 63.4776 250.532 63.1789C255.195 63.0617 260.006 63.3391 264.368 61.6874C266.019 61.0619 267.834 59.4801 267.125 57.8631C266.946 57.4546 266.624 57.1267 266.285 56.8358C264.197 55.0401 261.206 54.3529 258.543 55.0574C257.185 55.4166 256.051 54.0392 255.307 52.8473C252.072 47.6622 248.409 42.4936 243.182 39.3256C237.955 36.158 230.788 35.465 225.926 39.1685C223.742 40.8328 221.709 43.4187 218.978 43.129C215.648 42.7758 212.222 43.3619 209.199 44.8028Z" fill="#333333"/>
<path fill-rule="evenodd" clip-rule="evenodd" d="M28.2767 29.6086C27.8406 30.9694 28.3904 32.434 28.986 33.7325C29.6782 35.2421 30.8164 36.9447 32.4736 36.8401C37.5917 36.5168 42.7093 36.1936 47.8273 35.8704C48.5685 35.8234 49.5887 36.0168 49.5931 36.76C43.1754 37.2734 36.7577 37.7873 30.3401 38.3007C26.0228 38.6465 21.5089 39.0557 17.8638 41.3945C14.2187 43.7329 11.8427 48.6639 13.8089 52.5225C14.5539 53.9844 16.016 55.2067 17.6562 55.1577C22.0767 55.0263 26.4972 54.8945 30.9175 54.7631C31.9475 54.7323 33.3569 55.0575 33.3107 56.0868C26.286 55.6669 19.2195 55.9447 12.2492 56.9148C9.74671 57.2629 7.17253 57.7325 5.07393 59.1395C2.97537 60.5465 1.46747 63.13 2.05509 65.5872C2.46064 67.2835 3.78921 68.6455 5.32557 69.4707C6.86193 70.2956 8.60103 70.6531 10.3208 70.9416C28.5585 74.0043 47.2685 70.4226 65.7132 71.7602C67.777 71.9098 70.0112 72.1994 71.4809 73.6558C55.5679 70.6014 39.1577 74.0102 22.9723 73.2441C19.3697 73.074 15.7805 72.6963 12.1937 72.319C9.25791 72.01 6.182 71.6509 3.76008 69.9629C2.59479 69.1506 1.61799 68.0286 1.1305 66.6946C-0.077102 63.3897 2.05398 59.6139 5.05688 57.7799C8.05978 55.9459 11.7037 55.5828 15.2079 55.2639C12.3439 53.3044 11.4924 49.1762 12.7315 45.9348C13.9706 42.693 16.9179 40.3297 20.1481 39.0609C23.3783 37.7924 26.8978 37.4861 30.3641 37.3227C29.3419 35.984 28.3044 34.6173 27.7329 33.0327C27.1614 31.4477 27.1192 29.5814 28.0313 28.1645C28.6651 27.1794 29.6821 26.5128 30.6968 25.9271C40.4037 20.3264 52.1375 19.676 63.3409 19.9539C66.385 20.0292 69.5285 20.1871 72.2663 21.5203C76.5137 23.5887 79.0952 28.3713 79.1209 33.0951C79.1465 37.8192 76.861 42.3776 73.5012 45.6988C72.9617 44.9513 73.6362 43.9571 74.2274 43.2499C76.9644 39.9733 78.5194 35.6052 77.9369 31.3763C77.3547 27.1471 74.4531 23.1913 70.4082 21.8262C68.7178 21.2559 66.9134 21.1355 65.1319 21.0447C53.5469 20.4543 41.4057 21.0609 31.2596 26.6833C30.0105 27.3752 28.7121 28.249 28.2767 29.6086Z" fill="#333333"/>
<path fill-rule="evenodd" clip-rule="evenodd" d="M106.674 111.087C98.6791 103.488 89.4487 95.796 87.2954 84.9778C91.2472 95.1267 100.022 102.433 107.718 110.139C115.414 117.845 122.704 127.458 122.228 138.339C134.812 135.591 147.852 134.948 160.645 136.442C161.957 130.536 165.774 125.564 168.77 120.308C176.195 107.277 178.705 92.1082 181.091 77.3019C181.694 73.5585 177.111 71.3397 173.436 70.4036C169.767 69.4682 166.097 68.5332 162.427 67.5983C155.53 65.8408 148.385 64.0711 141.37 65.2729C136.627 66.0851 131.942 68.2467 127.198 67.4376C119.647 66.1494 111.635 67.7806 105.188 71.9191C101.947 73.9998 99.0971 76.8268 95.5297 78.2187C87.8053 81.232 83.3692 84.8819 76.7562 93.2137C74.2643 80.3235 78.4627 67.1318 83.3716 54.9551C88.8586 41.3427 95.7468 27.5704 107.552 18.8514C124.862 6.06854 150.192 7.37252 168.198 19.1541C186.204 30.9357 197.206 51.548 200.761 72.77C201.175 75.2386 201.468 77.9101 200.306 80.1266C199.144 82.3434 195.943 83.6257 194.048 81.9906C192.433 80.5966 190.714 79.1509 188.619 78.7496C186.523 78.3482 183.981 79.4371 183.574 81.5316C180.599 96.8711 177.474 112.6 169.208 125.859C167.055 129.312 164.548 132.609 163.179 136.441C162.132 139.373 161.794 142.503 161.464 145.599C160.776 152.051 160.088 158.502 159.4 164.953C159.11 167.672 158.706 170.633 156.726 172.519C154.834 174.319 152.019 174.643 149.417 174.874C140.97 175.624 132.523 176.374 124.076 177.125C122.565 177.259 120.852 177.327 119.749 176.287C118.899 175.485 118.663 174.243 118.496 173.087C117.309 164.879 117.31 156.501 118.497 148.294C120.2 136.519 114.931 124.471 106.63 115.947C102.305 111.504 97.2039 107.873 92.8854 103.423C88.567 98.9743 84.9526 93.3818 84.6933 87.1871C87.632 95.3291 93.0472 102.559 100.034 107.669C110.476 115.305 117.915 126.939 120.466 139.62C122.472 128.774 114.669 118.687 106.674 111.087ZM124.607 65.9411C128.004 66.2726 131.562 67.1172 134.733 65.8526C143.271 62.4475 153.175 62.6274 161.583 66.3409C165.172 67.9258 169.212 68.0131 173.076 68.6895C176.94 69.3656 181.02 70.9075 182.987 74.3017C185.197 78.113 191.69 77.0596 194.206 80.6755C195.249 82.1753 197.816 81.6038 198.804 80.067C199.792 78.5301 199.659 76.5521 199.438 74.7386C197.64 59.9769 192.234 45.5032 182.905 33.9229C173.575 22.3426 160.191 13.8269 145.508 11.4723C130.825 9.11813 114.981 13.2799 104.114 23.4307C97.5358 29.5745 92.9734 37.5448 88.9648 45.6039C81.9828 59.6394 76.2676 74.9627 77.3951 90.5983C82.0814 84.9281 87.1718 78.9785 94.2001 76.8074C95.8786 76.2888 97.7173 75.9557 98.9913 74.7461C105.743 68.3347 115.34 65.0357 124.607 65.9411ZM132.117 162.684C132.091 166.454 132.656 170.227 133.784 173.824C133.881 174.131 134 174.461 134.273 174.631C134.538 174.797 134.876 174.765 135.187 174.728C138.964 174.276 142.742 173.825 146.519 173.373C146.658 173.356 146.812 173.331 146.895 173.219C146.981 173.102 146.955 172.941 146.925 172.799C146.245 169.603 145.565 166.408 144.885 163.213C144.847 163.033 144.803 162.843 144.676 162.71C144.52 162.547 144.278 162.508 144.054 162.48C140.344 162.01 136.596 161.836 132.858 161.958C132.639 161.965 132.394 161.985 132.25 162.15C132.127 162.292 132.118 162.496 132.117 162.684ZM144.105 149.365C143.981 149.195 143.745 149.161 143.536 149.142C139.727 148.805 135.884 148.861 132.087 149.307C131.867 149.333 131.634 149.365 131.464 149.507C131.185 149.739 131.183 150.159 131.204 150.521C131.331 152.672 131.458 154.823 131.584 156.974C131.615 157.499 131.82 158.192 132.345 158.166C136.069 157.979 139.81 158.116 143.51 158.574C144.019 158.637 144.216 157.934 144.215 157.421C144.211 154.886 144.206 152.351 144.202 149.816C144.202 149.66 144.198 149.491 144.105 149.365ZM120.497 163.979C120.209 164.109 119.915 164.255 119.72 164.504C119.41 164.899 119.423 165.45 119.451 165.952C119.549 167.713 119.646 169.473 119.744 171.233C119.793 172.125 119.845 173.03 120.147 173.87C120.449 174.709 121.043 175.489 121.879 175.799C122.568 176.055 123.331 175.969 124.061 175.879C125.441 175.71 126.822 175.54 128.203 175.371C128.77 175.301 129.358 175.225 129.843 174.923C128.548 170.992 127.688 166.919 127.283 162.8C127.255 162.511 126.867 162.444 126.578 162.462C124.481 162.594 122.41 163.111 120.497 163.979ZM157.652 159.264C158.061 156.738 158.47 154.211 158.879 151.684C158.915 151.462 158.945 151.215 158.815 151.032C158.683 150.846 158.434 150.796 158.209 150.76C155.216 150.279 152.214 149.845 149.207 149.458C148.981 149.429 148.707 149.42 148.577 149.607C148.499 149.718 148.502 149.865 148.508 150C148.617 152.635 148.725 155.269 148.834 157.904C148.844 158.144 148.867 158.413 149.046 158.573C149.174 158.686 149.351 158.717 149.519 158.745C152.044 159.152 154.568 159.56 157.093 159.968C157.423 160.021 157.599 159.595 157.652 159.264ZM131.408 144.357C131.354 144.649 131.335 145.021 131.595 145.164C131.719 145.233 131.87 145.221 132.011 145.207C135.97 144.827 139.929 144.447 143.888 144.067C144.092 144.047 144.307 144.023 144.472 143.901C144.696 143.734 144.765 143.434 144.818 143.16C145.141 141.49 145.463 139.82 145.786 138.151C145.832 137.913 145.86 137.624 145.671 137.472C145.539 137.367 145.353 137.376 145.185 137.39C141.39 137.708 137.595 138.025 133.8 138.343C133.49 138.369 133.166 138.399 132.904 138.566C132.46 138.849 132.326 139.425 132.23 139.943C131.956 141.414 131.682 142.886 131.408 144.357ZM149.244 138.866C149.096 140.313 148.947 141.761 148.799 143.208C148.775 143.447 148.754 143.702 148.87 143.912C149.041 144.222 149.436 144.312 149.786 144.37C152.962 144.906 156.139 145.44 159.315 145.976C159.447 145.998 159.587 146.019 159.71 145.966C159.944 145.866 159.996 145.563 160.013 145.309C160.139 143.441 160.168 141.566 160.098 139.695C160.086 139.373 160.069 139.042 159.938 138.747C159.539 137.853 158.355 137.704 157.376 137.685C155.083 137.638 152.79 137.591 150.497 137.545C150.259 137.54 150.01 137.538 149.8 137.648C149.387 137.864 149.292 138.402 149.244 138.866ZM183.06 77.2948C181.421 79.4315 180.971 82.2211 180.555 84.8819C178.449 98.3412 175.719 112.112 168.313 123.546C165.776 127.463 162.614 131.33 162.255 135.983C163.652 131.14 167.521 127.474 170.177 123.188C172.125 120.044 173.426 116.547 174.617 113.045C177.492 104.592 179.806 95.9483 181.54 87.1895C182.163 84.0405 182.778 80.728 184.806 78.2393C184.117 78.2326 183.442 77.8671 183.06 77.2948ZM126.23 158.668C126.45 158.611 126.686 158.544 126.829 158.367C126.982 158.177 126.989 157.912 126.989 157.668C126.986 155.345 126.983 153.023 126.98 150.7C126.98 150.533 126.975 150.351 126.869 150.222C126.717 150.036 126.436 150.043 126.197 150.069C124.354 150.27 122.528 150.633 120.748 151.152C120.54 151.212 120.321 151.282 120.173 151.441C120.002 151.624 119.958 151.888 119.924 152.135C119.578 154.643 119.44 157.179 119.512 159.71C119.518 159.916 119.548 160.161 119.731 160.256C119.858 160.322 120.011 160.287 120.149 160.251C122.176 159.723 124.203 159.196 126.23 158.668ZM155.916 171.181C157.258 169.567 157.27 167.265 157.215 165.167C157.204 164.758 156.723 164.556 156.327 164.458C154.206 163.935 152.051 163.548 149.88 163.302C149.69 163.28 149.482 163.264 149.324 163.371C149.082 163.535 149.084 163.885 149.116 164.176C149.41 166.885 149.972 169.565 150.792 172.163C150.887 172.465 151.012 172.797 151.298 172.933C151.452 173.006 151.63 173.008 151.8 173.003C153.346 172.959 154.927 172.37 155.916 171.181ZM123.483 139.938C122.956 140.089 122.418 140.267 122.003 140.626C121.608 140.966 121.358 141.442 121.163 141.925C120.543 143.459 120.402 145.138 120.268 146.787C120.258 146.912 120.251 147.051 120.328 147.152C120.443 147.302 120.672 147.282 120.858 147.247C122.465 146.946 124.071 146.645 125.678 146.343C126.135 146.258 126.642 146.141 126.901 145.755C127.078 145.492 127.1 145.159 127.116 144.842C127.215 142.944 127.313 141.046 127.411 139.148C126.083 139.304 124.768 139.568 123.483 139.938ZM132.502 148.065C136.011 147.685 139.555 147.638 143.072 147.926C143.471 147.958 143.91 147.985 144.233 147.749C144.739 147.379 144.67 146.616 144.55 146.001C144.518 145.841 144.482 145.671 144.369 145.552C144.19 145.362 143.891 145.37 143.631 145.392C140.12 145.687 136.609 145.981 133.098 146.275C132.613 146.316 132.096 146.369 131.72 146.677C131.344 146.985 131.222 147.646 131.609 147.939C131.855 148.125 132.196 148.098 132.502 148.065ZM159.234 147.786C158.813 147.354 158.177 147.228 157.583 147.122C154.956 146.656 152.328 146.189 149.7 145.722C149.357 145.661 148.936 145.629 148.73 145.91C148.64 146.032 148.615 146.189 148.593 146.339C148.481 147.087 148.573 148.128 149.322 148.226C152.309 148.62 155.296 149.013 158.283 149.407C158.579 149.446 158.897 149.481 159.162 149.342C159.696 149.062 159.656 148.217 159.234 147.786ZM128.963 162.61C128.785 163.099 128.874 163.64 128.967 164.152C129.533 167.282 130.148 170.405 130.852 173.507C130.947 173.925 131.052 174.36 131.33 174.687C131.608 175.013 132.115 175.188 132.477 174.958C133.021 174.614 132.82 173.789 132.586 173.189C131.378 170.09 131.034 166.726 130.867 163.403C130.838 162.819 130.726 162.108 130.177 161.906C129.689 161.727 129.141 162.121 128.963 162.61ZM156.956 163.188C157.592 162.945 157.153 161.86 157.608 161.353C154.966 160.694 152.273 160.242 149.561 160.003C148.921 159.946 148.625 160.91 149.006 161.428C149.387 161.944 150.083 162.091 150.716 162.201C151.286 162.299 151.856 162.398 152.426 162.497C153.765 162.728 155.104 162.96 156.443 163.191C156.614 163.221 156.794 163.249 156.956 163.188ZM133.124 160.813C136.403 160.621 139.7 160.744 142.954 161.181C143.604 161.268 144.506 161.191 144.593 160.541C144.683 159.869 143.777 159.573 143.099 159.539C139.805 159.376 136.504 159.352 133.209 159.47C132.625 159.491 131.825 159.787 131.979 160.351C132.097 160.783 132.678 160.839 133.124 160.813ZM145.711 149.762C145.557 150.083 145.553 150.453 145.551 150.808C145.544 152.816 145.537 154.824 145.53 156.832C145.528 157.277 145.53 157.739 145.717 158.143C145.905 158.547 146.333 158.876 146.772 158.799C147.499 158.67 147.634 157.696 147.593 156.958C147.477 154.822 147.36 152.686 147.244 150.55C147.215 150.024 147.077 149.364 146.562 149.257C146.214 149.184 145.865 149.441 145.711 149.762ZM147.951 163.654C147.805 163.234 147.468 162.847 147.028 162.786C146.587 162.725 146.101 163.121 146.186 163.557C146.702 166.216 147.218 168.875 147.735 171.533C147.856 172.156 148.022 172.849 148.559 173.186C149.097 173.524 150.03 173.071 149.83 172.469C149.014 170.029 148.192 167.545 148.106 164.974C148.091 164.529 148.097 164.074 147.951 163.654ZM129.983 157.982C130.222 157.554 130.203 157.034 130.177 156.544C130.088 154.833 129.999 153.123 129.91 151.413C129.882 150.882 129.836 150.304 129.477 149.912C129.117 149.519 128.329 149.516 128.156 150.019C128.111 150.153 128.115 150.298 128.12 150.439C128.202 152.727 128.283 155.015 128.365 157.304C128.379 157.7 128.422 158.155 128.744 158.387C129.141 158.674 129.743 158.41 129.983 157.982ZM128.752 139.266C128.298 139.895 128.277 140.726 128.274 141.502C128.27 142.57 128.266 143.638 128.263 144.706C128.261 145.279 128.47 146.061 129.04 146.005C129.486 145.962 129.664 145.417 129.738 144.975C130.071 142.992 130.404 141.009 130.738 139.025C130.27 138.407 129.207 138.638 128.752 139.266ZM125.625 161.547C126.095 161.505 126.618 161.465 126.934 161.116C127.251 160.768 127.053 160.024 126.586 160.088C125.146 160.286 123.706 160.483 122.265 160.68C121.518 160.783 120.725 160.905 120.156 161.4C119.587 161.894 119.399 162.9 119.981 163.378C121.693 162.355 123.638 161.724 125.625 161.547ZM120.374 148.649C119.944 149.059 119.867 149.883 120.376 150.191C122.025 149.64 123.733 149.266 125.461 149.078C125.887 149.031 126.339 148.986 126.68 148.728C127.021 148.469 127.172 147.909 126.863 147.612C126.62 147.378 126.232 147.412 125.898 147.462C124.606 147.656 123.313 147.85 122.021 148.044C121.433 148.132 120.805 148.239 120.374 148.649ZM147.317 137.612C147.165 137.774 147.119 138.006 147.079 138.225C146.775 139.894 146.472 141.564 146.168 143.233C146.113 143.535 146.079 143.9 146.315 144.096C146.555 144.297 146.947 144.173 147.137 143.924C147.327 143.675 147.368 143.347 147.403 143.035C147.591 141.362 147.78 139.688 147.967 138.015C147.984 137.864 147.997 137.696 147.903 137.577C147.765 137.403 147.469 137.45 147.317 137.612ZM146.749 159.723C146.118 159.646 145.505 160.452 145.899 160.952C146.175 161.302 146.498 161.658 146.932 161.753C147.367 161.849 147.908 161.532 147.866 161.089C147.806 160.455 147.381 159.8 146.749 159.723ZM146.999 146.907C147.212 146.395 147.263 145.577 146.713 145.513C146.498 145.488 146.294 145.62 146.146 145.779C145.461 146.515 145.815 147.92 146.768 148.244C147.073 147.891 147.181 147.378 147.042 146.933C146.891 146.445 146.803 147.378 146.999 146.907ZM129.948 147.843C129.82 147.372 129.428 146.929 128.94 146.924C128.307 146.918 127.893 147.817 128.309 148.294C128.725 148.771 129.672 148.484 129.752 147.856C129.823 147.299 130.095 148.385 129.948 147.843ZM130.334 160.795C130.484 160.667 130.592 160.491 130.637 160.298C130.22 159.833 129.49 159.682 128.923 159.944C128.797 160.003 128.676 160.083 128.604 160.201C128.4 160.541 128.739 160.997 129.13 161.062C129.52 161.126 129.903 160.936 130.254 160.751L130.334 160.795Z" fill="#333333"/>
</svg>
