<svg width="87" height="39" viewBox="0 0 87 39" fill="none" xmlns="http://www.w3.org/2000/svg">
<path d="M27.8006 4.76425C24.7465 1.71375 20.6043 0 16.2852 0C11.9661 0 7.8239 1.71375 4.76983 4.76425C1.71576 7.81474 0 11.9521 0 16.2662C0 23.0003 7.3862 31.6138 13.6155 35.5961C14.7725 36.3358 15.2173 37.2424 14.5277 39C15.5956 38.733 17.0577 37.8275 17.3709 37.5929C27.4316 30.0562 32.5704 23.0003 32.5704 16.2662C32.5704 11.9521 30.8547 7.81474 27.8006 4.76425Z" fill="#9747FF"/>
<path d="M16.1749 34.6286C16.1749 34.6286 15.026 32.9733 14.3726 31.8614C13.9953 31.2193 13.775 30.8625 13.4505 30.1922C13.0513 29.3677 12.5703 28.018 12.5703 28.018C12.5703 28.018 12.4175 28.588 12.3817 28.9623C12.3483 29.3124 12.3057 29.5195 12.3817 29.8628C12.4573 30.2044 12.7589 30.6754 12.7589 30.6754C12.7589 30.6754 11.4667 29.5753 10.791 28.733C9.6448 27.3042 9.06266 26.3499 8.63041 24.5699C8.52142 24.121 8.42084 23.4059 8.42084 23.4059C8.42084 23.4059 8.15332 24.1017 8.08553 24.5699C8.01425 25.0622 8.08553 25.8437 8.08553 25.8437C8.08553 25.8437 7.74588 25.4371 7.56507 25.1512C7.2638 24.6747 6.93767 23.6306 6.74191 22.6035C6.56493 21.6749 6.57134 21.1322 6.55784 20.19C6.54558 19.3347 6.68142 18.0031 6.68142 18.0031C6.68142 18.0031 6.472 18.2454 6.36707 18.4204C6.25555 18.6064 6.21014 18.7216 6.13655 18.9255C6.0203 19.2477 5.94793 19.7821 5.94793 19.7821C5.94793 19.7821 5.60112 18.7123 5.57894 18.0031C5.55282 17.1676 5.46058 16.1922 5.76302 15.0953C6.14512 13.7094 7.62448 11.9196 7.62448 11.9196L6.7185 10.7678L2.20341 11.769C2.20341 11.769 1.90331 12.9965 1.71396 14.1495C0.95265 18.7851 4.24637 24.1142 5.94793 26.5026C6.81887 27.725 7.36409 28.379 8.42084 29.4449C10.9853 32.0317 16.1749 34.6286 16.1749 34.6286Z" fill="#F4EDFC"/>
<path d="M16.6415 34.6287C16.6415 34.6287 17.7904 32.9733 18.4438 31.8614C18.8211 31.2194 19.0414 30.8626 19.3659 30.1923C19.7651 29.3678 20.2461 28.018 20.2461 28.018C20.2461 28.018 20.3989 28.588 20.4347 28.9624C20.4682 29.3125 20.5107 29.5195 20.4347 29.8629C20.3591 30.2045 20.0575 30.6755 20.0575 30.6755C20.0575 30.6755 21.3497 29.5754 22.0254 28.7331C23.1716 27.3043 23.7537 26.3499 24.186 24.5699C24.295 24.1211 24.3956 23.4059 24.3956 23.4059C24.3956 23.4059 24.6631 24.1018 24.7309 24.5699C24.8022 25.0623 24.7309 25.8438 24.7309 25.8438C24.7309 25.8438 25.0705 25.4372 25.2513 25.1512C25.5526 24.6748 25.8787 23.6307 26.0745 22.6036C26.2515 21.675 26.2451 21.1323 26.2586 20.19C26.2708 19.3347 26.135 18.0032 26.135 18.0032C26.135 18.0032 26.3444 18.2455 26.4493 18.4205C26.5609 18.6064 26.6063 18.7216 26.6799 18.9256C26.7961 19.2478 26.8685 19.7821 26.8685 19.7821C26.8685 19.7821 27.2153 18.7124 27.2375 18.0032C27.2636 17.1677 27.3558 16.1923 27.0534 15.0953C26.6713 13.7095 25.1919 11.9196 25.1919 11.9196L25.9199 10.7234L30.613 11.769C30.613 11.769 30.9131 12.9966 31.1024 14.1495C31.8638 18.7851 28.57 24.1142 26.8685 26.5026C25.9975 27.7251 25.4523 28.379 24.3956 29.445C21.8311 32.0318 16.6415 34.6287 16.6415 34.6287Z" fill="#F4EDFC"/>
<path d="M16.3076 2.1665L4.13818 7.07076V11.6887H6.7189V8.81313L16.3076 4.94891L25.8963 8.81313V11.6732H28.477V7.07076L16.3076 2.1665Z" fill="#F4EDFC"/>
<rect x="20.2896" y="2.18018" width="3.24815" height="3.73759" fill="#F4EDFC"/>
<path d="M16.3931 24.8467L16.3949 24.8476L16.3968 24.8467C16.3968 24.8467 17.3919 25.422 18.0694 25.7122C18.7647 26.0101 19.9051 26.3417 19.9051 26.3417C19.9051 26.3417 19.2511 27.3072 18.6405 27.7186C17.8848 28.2279 17.3177 28.3858 16.3968 28.4268L16.3949 28.4269L16.3931 28.4268C15.4722 28.3858 14.9051 28.2279 14.1494 27.7186C13.5388 27.3072 12.8848 26.3417 12.8848 26.3417C12.8848 26.3417 14.0252 26.0101 14.7205 25.7122C15.398 25.422 16.3931 24.8467 16.3931 24.8467Z" fill="#F4EDFC"/>
<path d="M14.0208 9.27083C14.9746 9.44752 16.252 10.2825 16.3949 10.3774C16.5379 10.2825 17.8153 9.44752 18.769 9.27083C19.5024 9.13497 20.6789 9.27083 20.6789 9.27083C20.6789 9.27083 21.4907 9.58203 21.8327 9.98788C22.2162 10.443 22.35 11.422 22.35 11.422C22.35 11.422 23.3048 12.2628 23.8619 12.8561C24.419 13.4494 24.5625 13.9278 24.6701 14.668C24.7737 15.3803 24.4712 16.5004 24.4712 16.5004C24.4712 16.5004 24.1206 17.3655 23.7567 17.8283C23.182 18.5593 21.8327 19.2298 21.8327 19.2298L22.2984 21.177C22.2984 21.177 22.7708 22.4933 22.2554 23.7298C21.74 24.9664 20.1343 24.8467 20.1343 24.8467C20.1343 24.8467 18.5326 24.8288 17.9062 24.1695C17.4433 23.6824 17.1476 23.239 17.2571 22.5761C17.3564 21.9746 17.7034 21.6773 18.212 21.3411C18.7003 21.0184 19.6568 20.9428 19.6568 20.9428L19.1271 19.5087C19.1271 19.5087 17.4858 20.0446 16.3949 20.0268C15.3041 20.0446 13.6627 19.5087 13.6627 19.5087L13.133 20.9428C13.133 20.9428 14.0896 21.0184 14.5779 21.3411C15.0865 21.6773 15.4334 21.9746 15.5328 22.5761C15.6423 23.239 15.3465 23.6824 14.8837 24.1695C14.2573 24.8288 12.6556 24.8467 12.6556 24.8467C12.6556 24.8467 11.0499 24.9664 10.5345 23.7298C10.0191 22.4933 10.4915 21.177 10.4915 21.177L10.9572 19.2298C10.9572 19.2298 9.6079 18.5593 9.03316 17.8283C8.66926 17.3655 8.31868 16.5004 8.31868 16.5004C8.31868 16.5004 8.01617 15.3803 8.11975 14.668C8.22738 13.9278 8.37088 13.4494 8.92797 12.8561C9.48506 12.2628 10.4399 11.422 10.4399 11.422C10.4399 11.422 10.5737 10.443 10.9572 9.98788C11.2991 9.58203 12.111 9.27083 12.111 9.27083C12.111 9.27083 13.2874 9.13497 14.0208 9.27083Z" fill="#F4EDFC"/>
<path d="M19.1869 18.6242L18.6285 14.5157C18.6285 14.5157 19.9394 14.4069 20.7027 14.1966C21.4659 13.9863 22.5375 13.4387 22.5375 13.4387L22.7769 14.3562C22.7769 14.3562 22.0924 15.8728 21.2611 15.9916C20.7027 16.0714 19.9847 16.1511 19.9847 16.1511L19.1869 18.6242Z" fill="#9747FF"/>
<path d="M13.6822 18.6242L14.2407 14.5157C14.2407 14.5157 12.9298 14.4069 12.1665 14.1966C11.4032 13.9863 10.3316 13.4387 10.3316 13.4387L10.0923 14.3562C10.0923 14.3562 10.7767 15.8728 11.608 15.9916C12.1665 16.0714 12.8845 16.1511 12.8845 16.1511L13.6822 18.6242Z" fill="#9747FF"/>
<path d="M51.0502 6.02545H56.8238V21.6856C56.8238 23.7839 56.4119 25.6054 55.588 27.1502C54.7641 28.6821 53.5862 29.8728 52.0543 30.7225C50.5224 31.5592 48.6944 31.9776 46.5704 31.9776C44.4335 31.9776 42.5926 31.5592 41.0478 30.7225C39.5031 29.8728 38.3187 28.6821 37.4949 27.1502C36.6839 25.6054 36.2784 23.7839 36.2784 21.6856V6.02545H42.0326V21.3766C42.0326 22.5352 42.2128 23.5135 42.5733 24.3117C42.9466 25.1098 43.4744 25.7148 44.1567 26.1268C44.839 26.5258 45.6435 26.7254 46.5704 26.7254C47.4844 26.7254 48.2761 26.5258 48.9455 26.1268C49.6149 25.7148 50.1298 25.1098 50.4902 24.3117C50.8636 23.5135 51.0502 22.5352 51.0502 21.3766V6.02545ZM57.7012 6.02545H68.0898C69.5702 6.02545 70.8896 6.33441 72.0482 6.95231C73.2068 7.57022 74.1208 8.4649 74.7902 9.63635C75.4725 10.7949 75.8136 12.1788 75.8136 13.7879C75.8136 15.3971 75.524 16.7165 74.9447 17.7464C74.3783 18.7634 73.696 19.5293 72.8978 20.0442C72.0997 20.5463 71.3595 20.8488 70.6772 20.9518L76.8756 31.5142H70.3876L64.865 21.3959H63.4748V31.5142H57.7012V6.02545ZM63.4748 17.3988H66.0236C67.0535 17.3988 67.9546 17.1478 68.727 16.6457C69.4994 16.1437 69.8855 15.2555 69.8855 13.981C69.8855 12.7066 69.5058 11.8248 68.7463 11.3356C67.9868 10.8335 67.0921 10.5825 66.0622 10.5825H63.4748V17.3988ZM77.7947 6.02545H83.5682V31.5142H77.7947V6.02545Z" fill="#9747FF"/>
</svg>
