<svg width="101" height="199" viewBox="0 0 101 199" fill="none" xmlns="http://www.w3.org/2000/svg">
<path d="M57.9936 198.732C80.0434 198.732 97.9183 197.702 97.9183 196.432C97.9183 195.161 80.0434 194.132 57.9936 194.132C35.9437 194.132 18.0688 195.161 18.0688 196.432C18.0688 197.702 35.9437 198.732 57.9936 198.732Z" fill="#D1D3D4"/>
<path d="M13.4679 95.5172C13.2458 95.8028 12.5003 111.728 11.6834 112.545C9.46274 114.766 9.74827 110.166 9.74827 110.166C9.74827 110.166 5.48931 119.453 3.01483 118.747C-1.48998 117.462 3.18931 106.708 4.33931 104.527C5.43379 100.276 5.57655 91.7817 5.57655 91.7817" fill="white"/>
<path d="M3.2772 119.176C3.15144 119.175 3.02621 119.159 2.90444 119.128C2.49291 119.015 2.11328 118.807 1.79539 118.522C1.47749 118.238 1.23001 117.883 1.07238 117.486C-0.402789 114.028 2.94409 106.343 3.96719 104.384C5.02202 100.212 5.18064 91.8611 5.18064 91.7739C5.18474 91.6694 5.22916 91.5705 5.30457 91.4981C5.37999 91.4256 5.48054 91.3852 5.58513 91.3853C5.63752 91.3852 5.68938 91.3958 5.7376 91.4163C5.78581 91.4368 5.82938 91.4668 5.86568 91.5046C5.90198 91.5424 5.93026 91.5872 5.94883 91.6361C5.9674 91.6851 5.97588 91.7374 5.97374 91.7897C5.97374 92.1387 5.81512 100.379 4.72064 104.622C4.72511 104.651 4.72511 104.68 4.72064 104.709C3.82443 106.422 0.485478 114.012 1.83375 117.177C1.94651 117.465 2.12499 117.722 2.35496 117.929C2.58493 118.135 2.86 118.285 3.15823 118.367C4.6334 118.787 7.71063 113.727 9.41579 109.999C9.45401 109.914 9.52112 109.845 9.60528 109.804C9.68945 109.764 9.78525 109.754 9.8758 109.777C9.96506 109.802 10.0433 109.856 10.098 109.931C10.1527 110.006 10.1806 110.097 10.1772 110.19C10.1058 111.268 10.2803 112.569 10.6293 112.743C10.7324 112.791 11.002 112.696 11.4224 112.268C11.8744 111.578 12.4137 104.051 12.7072 100.006C13.0323 95.4618 13.0482 95.4301 13.183 95.2477C13.2473 95.1647 13.3418 95.1107 13.4459 95.0973C13.5499 95.0839 13.655 95.1123 13.7382 95.1763C13.8068 95.2303 13.8556 95.3054 13.8771 95.3901C13.8986 95.4747 13.8916 95.564 13.8572 95.6442C13.7858 95.9614 13.643 97.9442 13.4923 100.038C12.9134 108.255 12.5327 112.26 11.9854 112.807C11.4382 113.354 10.772 113.663 10.2961 113.441C10.0282 113.254 9.8091 113.005 9.65731 112.715C9.50551 112.425 9.42542 112.103 9.42373 111.776C8.07546 114.449 5.39478 119.176 3.2772 119.176Z" fill="#333333"/>
<path d="M71.3569 59.9228L80.8741 55.7908C80.8741 55.7908 82.7776 51.2146 84.6731 50.6515C86.9153 50.1978 89.1865 49.901 91.47 49.7632C92.09 50.2082 92.5606 50.8306 92.8197 51.5485C93.0788 52.2663 93.1142 53.0458 92.9214 53.7842C92.3583 56.568 88.6783 61.0411 83.539 62.1514L74.1487 70.4155" fill="white"/>
<path d="M74.149 70.8121C74.0922 70.8116 74.0361 70.7994 73.9842 70.7762C73.9324 70.753 73.8858 70.7193 73.8476 70.6773C73.8131 70.6386 73.7868 70.5933 73.7701 70.5442C73.7534 70.4951 73.7467 70.4431 73.7504 70.3914C73.7541 70.3396 73.7681 70.2892 73.7916 70.2429C73.8151 70.1967 73.8476 70.1556 73.8873 70.1222L83.2617 61.858C83.3133 61.8111 83.3761 61.7783 83.4441 61.7629C88.4645 60.6763 91.9938 56.3063 92.5172 53.705C92.6848 53.065 92.6631 52.3902 92.4548 51.7623C92.2464 51.1344 91.8604 50.5805 91.3434 50.1677C89.1287 50.2981 86.9262 50.587 84.7528 51.0322C83.349 51.4526 81.7231 54.7201 81.2155 55.9415C81.1746 56.0379 81.0978 56.1147 81.0014 56.1556L71.4842 60.2877C71.3874 60.3298 71.2779 60.3317 71.1797 60.293C71.0816 60.2543 71.0028 60.1782 70.9607 60.0815C70.9187 59.9847 70.9168 59.8752 70.9554 59.7771C70.9941 59.6789 71.0702 59.6001 71.1669 59.558L80.5097 55.4894C80.8983 54.5932 82.6114 50.826 84.4752 50.2708C86.7481 49.8058 89.0513 49.5036 91.3672 49.3667C91.4503 49.3602 91.5335 49.3796 91.6051 49.4222C92.2972 49.9063 92.8246 50.5905 93.1166 51.383C93.4086 52.1754 93.4513 53.0382 93.2389 53.8556C92.6679 56.7267 89.0196 61.3029 83.6583 62.5163L74.3552 70.717C74.2967 70.7674 74.2253 70.8003 74.149 70.8121Z" fill="#333333"/>
<path d="M90.6694 44.0688L78.876 59.106L85.7601 59.9229L96.697 45.2982L90.6694 44.0688Z" fill="#333333"/>
<path d="M85.7597 60.3433H85.7121L78.828 59.5502C78.7589 59.5419 78.6932 59.5155 78.6375 59.4738C78.5818 59.432 78.5381 59.3763 78.5108 59.3123C78.4823 59.2476 78.4724 59.1762 78.4822 59.1061C78.492 59.0361 78.5211 58.9702 78.5663 58.9158L90.3597 43.8468C90.4045 43.7888 90.4647 43.7446 90.5334 43.7194C90.6022 43.6941 90.6767 43.6888 90.7483 43.7041L96.7838 44.9334C96.8484 44.9468 96.9084 44.9764 96.9584 45.0194C97.0083 45.0624 97.0465 45.1174 97.0693 45.1792C97.094 45.2407 97.1019 45.3076 97.0922 45.3732C97.0824 45.4387 97.0554 45.5004 97.0138 45.552L86.077 60.1609C86.0417 60.2137 85.9947 60.2576 85.9397 60.2892C85.8847 60.3209 85.8231 60.3394 85.7597 60.3433ZM79.6211 58.8206L85.5773 59.5264L96.0145 45.5837L90.8356 44.4813L79.6211 58.8206Z" fill="#333333"/>
<path d="M91.0416 44.3623L80.6758 57.5674L85.2599 58.2416L95.4751 45.2982L91.0416 44.3623Z" fill="white"/>
<path d="M78.8758 68.2742L74.2045 57.4404L50.7842 68.2742L53.1635 86.9676C53.1635 86.9676 74.2203 74.4049 78.8758 68.2742Z" fill="#9747FF"/>
<path d="M77.1938 171.719C77.1938 171.719 82.1824 184.027 81.7304 184.02C81.2783 184.012 70.5159 185.725 70.5159 185.725C70.5159 185.725 65.6066 175.628 65.7573 175.414C65.908 175.2 77.1938 171.719 77.1938 171.719Z" fill="white"/>
<path d="M70.5162 186.121C70.4418 186.121 70.369 186.101 70.3059 186.061C70.2428 186.022 70.192 185.966 70.1593 185.899C65.1627 175.589 65.2579 175.446 65.4007 175.216C65.5434 174.986 65.591 174.851 77.0989 171.338C77.1937 171.311 77.2952 171.319 77.3843 171.361C77.4734 171.404 77.544 171.477 77.5827 171.568C82.4841 183.67 82.2461 184.019 82.0954 184.257C82.0582 184.316 82.0064 184.363 81.9452 184.395C81.884 184.427 81.8155 184.442 81.7465 184.44C81.3261 184.44 74.8465 185.463 70.6034 186.137L70.5162 186.121ZM66.2096 175.621C66.7093 176.882 69.1203 181.965 70.7462 185.288C72.8003 184.955 79.4703 183.893 81.3023 183.663C80.9137 182.172 78.5582 176.168 76.9561 172.202C73.1651 173.36 67.5182 175.129 66.2096 175.621Z" fill="#333333"/>
<path d="M81.7311 184.02C81.7311 184.02 99.4251 185.336 99.901 188.572C100.377 191.808 73.4114 196.432 73.4114 196.432L70.5166 185.725L81.7311 184.02Z" fill="#333333"/>
<path d="M73.4109 196.82C73.3247 196.821 73.2406 196.794 73.1717 196.742C73.1028 196.691 73.053 196.618 73.0302 196.534L70.1354 185.828C70.1192 185.775 70.115 185.719 70.1233 185.664C70.1315 185.609 70.1519 185.556 70.1829 185.51C70.2129 185.464 70.2524 185.424 70.2989 185.394C70.3454 185.364 70.3978 185.344 70.4526 185.336L81.667 183.623H81.7622C84.7681 183.845 99.7973 185.138 100.289 188.516C100.781 191.895 79.8905 195.718 73.4822 196.82H73.4109ZM71.0315 186.05L73.6964 195.963C86.386 193.767 99.7656 190.364 99.5039 188.611C99.3453 187.485 94.3725 185.344 81.7464 184.4L71.0315 186.05Z" fill="#333333"/>
<path d="M40.1093 169.062L34.9938 173.439L27.9907 163.851L35.3903 157.871L40.1093 169.062Z" fill="white"/>
<path d="M34.9949 173.836C34.94 173.831 34.8869 173.814 34.839 173.787C34.7911 173.759 34.7497 173.722 34.7173 173.677L27.7142 164.097C27.6527 164.014 27.6258 163.911 27.6391 163.809C27.6524 163.707 27.7049 163.614 27.7856 163.55L35.1852 157.57C35.2324 157.529 35.2893 157.501 35.3504 157.488C35.4115 157.476 35.4748 157.479 35.5342 157.498C35.5941 157.512 35.6499 157.541 35.6968 157.581C35.7436 157.621 35.7803 157.671 35.8038 157.728L40.5624 168.919C40.5927 168.996 40.5983 169.081 40.5785 169.162C40.5586 169.243 40.5142 169.316 40.4514 169.371L35.2566 173.757C35.1815 173.813 35.0887 173.841 34.9949 173.836ZM28.539 163.922L35.0663 172.861L39.6345 168.951L35.2328 158.513L28.539 163.922Z" fill="#333333"/>
<path d="M34.9946 173.44C34.9946 173.44 38.5715 191.879 35.526 191.245C32.4805 190.61 20.2905 170.307 20.2905 170.307L27.9915 163.851L34.9946 173.44Z" fill="#333333"/>
<path d="M35.6846 191.649C35.6055 191.657 35.5258 191.657 35.4466 191.649C32.3298 190.999 21.1708 172.615 19.9495 170.529C19.9028 170.447 19.8859 170.352 19.9018 170.259C19.9178 170.167 19.9654 170.083 20.0367 170.021L27.7377 163.573C27.7739 163.534 27.818 163.502 27.8671 163.48C27.9163 163.458 27.9694 163.447 28.0232 163.447C28.077 163.452 28.1289 163.469 28.1755 163.496C28.2221 163.524 28.2621 163.561 28.2929 163.605L35.3039 173.186C35.3363 173.233 35.358 173.288 35.3673 173.344C35.3673 173.384 36.1604 177.31 36.6522 181.474C37.7228 190.007 36.7077 190.991 36.3746 191.332C36.2875 191.429 36.1813 191.508 36.0626 191.562C35.9439 191.617 35.8152 191.647 35.6846 191.649ZM20.806 170.386C25.6836 178.492 33.4956 190.42 35.6132 190.856C35.6525 190.867 35.694 190.867 35.7331 190.856C35.7723 190.844 35.8076 190.823 35.8353 190.793C37.128 189.516 35.7877 179.61 34.6297 173.598L27.9201 164.43L20.806 170.386Z" fill="#333333"/>
<path d="M56.0675 85.6195C56.0675 85.6195 86.5463 128.574 86.6098 132.412C86.7525 139.883 40.3799 172.115 40.3799 172.115L32.5679 157.895L60.9847 132.309L34.281 83.7319L56.0675 85.6195Z" fill="#333333"/>
<path d="M40.3792 172.52H40.292C40.2371 172.509 40.1855 172.485 40.1414 172.451C40.0973 172.416 40.062 172.372 40.0382 172.321L32.2182 158.117C32.1747 158.038 32.1597 157.948 32.1756 157.859C32.1915 157.771 32.2374 157.691 32.3054 157.633L60.4843 132.254L33.9313 83.9539C33.8957 83.8916 33.8781 83.8207 33.8803 83.749C33.8826 83.6773 33.9046 83.6076 33.944 83.5477C33.9834 83.4877 34.0387 83.4399 34.1036 83.4094C34.1686 83.3789 34.2407 83.367 34.312 83.375L56.0985 85.2308C56.155 85.2374 56.2095 85.2556 56.2586 85.2843C56.3078 85.3129 56.3505 85.3514 56.384 85.3974C59.5564 89.807 86.9342 128.566 87.0056 132.42C87.1484 140.018 42.5047 171.14 40.6092 172.456C40.5405 172.499 40.4605 172.522 40.3792 172.52ZM33.0589 158.006L40.514 171.552C42.5602 170.116 53.0054 162.764 63.3078 154.762C83.3098 139.217 86.2522 134.102 86.2205 132.428C86.1649 129.391 64.3784 98.0315 55.8447 86.0001L34.9782 84.2157L61.3329 132.143C61.3759 132.221 61.3914 132.311 61.377 132.398C61.3626 132.486 61.3192 132.566 61.2536 132.627L33.0589 158.006Z" fill="#333333"/>
<path d="M25.7554 90.3463L66.6635 181.767L82.3114 175.272L50.2781 85.4846L25.7554 90.3463Z" fill="#333333"/>
<path d="M66.6629 182.164C66.5866 182.164 66.5121 182.141 66.4486 182.099C66.3852 182.056 66.3356 181.996 66.306 181.926L25.3978 90.4813C25.3706 90.4272 25.3564 90.3674 25.3564 90.3069C25.3564 90.2463 25.3706 90.1865 25.3978 90.1324C25.4247 90.0802 25.4628 90.0346 25.5095 89.999C25.5561 89.9633 25.6101 89.9384 25.6675 89.9262L50.2298 85.0962C50.323 85.0788 50.4192 85.0948 50.5019 85.1411C50.5845 85.1875 50.6482 85.2614 50.6819 85.35L82.7152 175.137C82.7494 175.233 82.7454 175.338 82.7041 175.431C82.6628 175.524 82.5872 175.598 82.4932 175.637L66.8453 182.132C66.7888 182.16 66.7255 182.171 66.6629 182.164ZM26.3178 90.64L66.8849 181.252L81.8349 175.05L50.0315 85.9369L26.3178 90.64Z" fill="#333333"/>
<path d="M72.3484 146.141C72.2669 146.141 72.1874 146.116 72.1207 146.069C72.054 146.022 72.0034 145.956 71.9757 145.879L53.6233 96.1754C53.6002 96.1137 53.5932 96.0471 53.6029 95.9819C53.6126 95.9167 53.6387 95.855 53.6788 95.8027L56.8513 91.512C56.9156 91.4296 57.0094 91.3753 57.1129 91.3605C57.2164 91.3457 57.3216 91.3716 57.4064 91.4327C57.4487 91.4633 57.4845 91.502 57.5118 91.5466C57.539 91.5911 57.5573 91.6406 57.5654 91.6921C57.5735 91.7437 57.5713 91.7964 57.559 91.8472C57.5467 91.8979 57.5245 91.9457 57.4937 91.9879L54.4482 96.0961L72.6895 145.601C72.7085 145.65 72.7176 145.702 72.7162 145.753C72.7149 145.805 72.7031 145.857 72.6817 145.904C72.6603 145.951 72.6295 145.994 72.5914 146.029C72.5532 146.064 72.5084 146.091 72.4595 146.109C72.4249 146.127 72.3872 146.137 72.3484 146.141Z" fill="white"/>
<path d="M38.1341 27.0331C37.9067 27.0792 37.6717 27.0719 37.4476 27.0118C37.2235 26.9517 37.0164 26.8404 36.8426 26.6866C36.6689 26.5328 36.5332 26.3408 36.4463 26.1257C36.3593 25.9106 36.3235 25.6782 36.3417 25.4469L35.8737 17.5159C35.6203 15.118 35.7057 12.6965 36.1275 10.3225C36.6351 8.05418 38.0706 5.71454 40.3468 5.27833C41.1399 5.13557 41.933 5.22281 42.7261 5.02454C44.1775 4.65178 45.1609 3.35109 46.3902 2.49454C47.3652 1.82698 48.4964 1.42348 49.6737 1.3234C50.8511 1.22332 52.0342 1.43008 53.1078 1.92351C53.6675 2.23371 54.2509 2.49891 54.8526 2.71661C56.7719 3.26385 58.6992 1.92351 60.6819 1.76489C63.6798 1.49524 66.3288 3.93799 67.5502 6.68212C69.2078 10.4097 68.4702 15.5886 64.8219 17.3969C61.9509 18.8166 58.9371 17.9521 55.9709 18.0869C52.854 18.2217 51.4582 20.5614 49.174 22.3697C47.0137 24.1155 44.4555 25.3006 41.7268 25.8197C40.7116 25.9941 40.3865 26.4383 39.4744 26.7396C39.0438 26.9005 38.5925 26.9993 38.1341 27.0331Z" fill="white"/>
<path d="M37.9912 27.4058C37.7284 27.4293 37.4635 27.397 37.2141 27.3111C36.9646 27.2251 36.7362 27.0873 36.5437 26.9068C36.3512 26.7263 36.1991 26.5072 36.0973 26.2638C35.9954 26.0204 35.9462 25.7582 35.9529 25.4944L35.477 17.5158C35.2195 15.0808 35.3076 12.6216 35.7387 10.2113C36.2543 7.94305 37.7136 5.34961 40.2753 4.86582C40.6454 4.80605 41.0189 4.76897 41.3936 4.75478C41.799 4.75177 42.203 4.70659 42.5991 4.61996C43.4994 4.30733 44.3142 3.78859 44.9784 3.10513C45.3591 2.77996 45.7715 2.43893 46.1601 2.14548C47.1932 1.42946 48.3961 0.996977 49.6486 0.891208C50.9011 0.78544 52.1595 1.01009 53.298 1.54272L53.869 1.83617C54.2228 2.04437 54.5977 2.21452 54.9873 2.34376C56.1167 2.53507 57.2774 2.39171 58.3263 1.93134C59.0839 1.66267 59.8683 1.47654 60.6659 1.37617C63.9732 1.08272 66.7014 3.75548 67.9387 6.53133C69.6597 10.4017 68.8983 15.8423 65.02 17.7616C62.9342 18.8006 60.769 18.6737 58.6752 18.5547C57.7887 18.4861 56.8992 18.465 56.0104 18.4913C53.8611 18.5865 52.6001 19.784 51.1328 21.172C50.6015 21.6796 50.0542 22.203 49.4356 22.6868C47.2132 24.4886 44.5777 25.7095 41.7663 26.2399C41.3428 26.3201 40.9371 26.476 40.5687 26.6999C40.2525 26.8778 39.9206 27.0264 39.5774 27.144C39.1203 27.3068 38.6422 27.4029 38.1577 27.4295L37.9912 27.4058ZM50.2287 1.65376C48.9267 1.64334 47.653 2.03376 46.5804 2.77203C46.1923 3.05911 45.8215 3.36896 45.4701 3.69996C44.7209 4.46304 43.8026 5.03904 42.7894 5.38133C42.3406 5.47624 41.8839 5.52934 41.4253 5.53995C41.0881 5.55444 40.752 5.58621 40.4181 5.63513C38.2291 6.04754 36.9601 8.35546 36.5001 10.3937C36.0878 12.7316 36.0077 15.1159 36.2622 17.4761L36.746 25.4468C36.7936 26.2954 37.2139 26.6523 38.126 26.6047C38.5398 26.5789 38.9482 26.4962 39.3394 26.3589C39.6395 26.2577 39.9291 26.1275 40.2039 25.9702C40.6451 25.702 41.1316 25.5165 41.6394 25.423C44.3051 24.9228 46.8044 23.7672 48.9122 22.0602C49.507 21.5923 50.0384 21.0847 50.5618 20.593C52.0687 19.1575 53.4963 17.8013 55.939 17.6903C56.8569 17.6637 57.7755 17.6848 58.6911 17.7537C60.769 17.8727 62.728 17.9837 64.6314 17.0399C68.0973 15.3268 68.7476 10.3858 67.1773 6.84857C66.0907 4.40582 63.6004 1.89962 60.6976 2.16134C59.9564 2.25656 59.2278 2.43207 58.5246 2.68479C57.3297 3.19515 56.0101 3.33871 54.7335 3.0972C54.2884 2.95378 53.8603 2.76231 53.4566 2.52617C53.2742 2.431 53.0997 2.33582 52.9173 2.25651C52.0781 1.85525 51.1589 1.64918 50.2287 1.65376Z" fill="#333333"/>
<path d="M56.4947 19.5381C56.4947 19.5381 58.644 24.8757 57.7954 25.7163C56.9467 26.557 54.9878 25.4467 54.9878 25.4467" fill="white"/>
<path d="M56.8834 26.4382C56.1412 26.3927 55.4182 26.1842 54.7658 25.8275C54.6746 25.7757 54.6071 25.6905 54.5775 25.5899C54.5479 25.4893 54.5585 25.3811 54.6072 25.2882C54.6313 25.2425 54.6643 25.2022 54.7042 25.1694C54.7441 25.1367 54.7901 25.1122 54.8396 25.0974C54.8891 25.0826 54.941 25.0779 54.9923 25.0834C55.0436 25.0889 55.0933 25.1046 55.1385 25.1296C55.5906 25.3754 57.0023 25.9227 57.5178 25.4389C57.8668 25.0899 57.2165 22.4013 56.1299 19.6889C56.091 19.5911 56.0925 19.4818 56.1342 19.3851C56.1758 19.2885 56.2542 19.2123 56.352 19.1734C56.4498 19.1345 56.5591 19.136 56.6557 19.1776C56.7524 19.2193 56.8286 19.2976 56.8675 19.3954C57.5416 21.0689 59.0089 25.0741 58.0809 26.002C57.921 26.1516 57.7325 26.2674 57.5267 26.3423C57.3209 26.4173 57.1021 26.4499 56.8834 26.4382Z" fill="#333333"/>
<path d="M57.1054 13.1933C58.7551 15.2157 57.4782 18.5071 57.0102 20.7278C56.344 23.8368 55.6091 26.9351 54.8054 30.0229C54.2899 31.974 49.1665 30.9667 48.3813 30.1895L47.5168 36.8278C47.5168 36.8278 45.5737 40.1984 41.8303 37.4384C38.0868 34.6784 37.6665 31.8391 37.6665 31.8391L39.8555 22.885C39.8555 22.885 43.2341 23.6068 46.0654 19.9823C48.8968 16.3578 50.0785 10.1558 50.0785 10.1558C50.0785 10.1558 55.5033 11.2264 57.1054 13.1933Z" fill="white"/>
<path d="M44.6294 38.9294C43.518 38.8771 42.4529 38.4683 41.5919 37.7635C37.7691 34.9401 37.2932 32.0294 37.2774 31.9025C37.2695 31.8526 37.2695 31.8017 37.2774 31.7518L39.4743 22.7977C39.497 22.6982 39.558 22.6116 39.6441 22.5567C39.7302 22.5018 39.8344 22.4829 39.9343 22.5042C40.0691 22.5042 43.1067 23.1149 45.7477 19.7522C48.4839 16.2467 49.7132 10.1477 49.7132 10.0843C49.7386 9.98128 49.8006 9.89105 49.8877 9.83049C49.9303 9.80193 49.9783 9.78229 50.0287 9.77275C50.0792 9.76321 50.131 9.76396 50.1811 9.77497C50.4111 9.81462 55.7329 10.8932 57.446 12.9474C58.937 14.7794 58.2391 17.4601 57.7156 19.6174C57.6125 20.0377 57.5094 20.4105 57.4301 20.807C56.7639 23.916 56.0184 27.0566 55.2173 30.1259C55.1152 30.4495 54.9256 30.7386 54.6695 30.9611C54.4133 31.1837 54.1006 31.331 53.766 31.387C52.0703 31.6947 50.3218 31.5075 48.7298 30.8477L47.9367 36.8832C47.9292 36.9331 47.9131 36.9815 47.8891 37.0259C47.3227 37.9401 46.4198 38.5953 45.375 38.8501C45.13 38.903 44.8801 38.9296 44.6294 38.9294ZM38.0705 31.8549C38.1657 32.2911 38.8636 34.7497 42.036 37.129C42.4575 37.4983 42.9526 37.7741 43.4884 37.9382C44.0243 38.1022 44.5889 38.1508 45.1449 38.0807C45.9459 37.8829 46.6426 37.39 47.096 36.7008L47.9525 30.1497C47.9632 30.076 47.9939 30.0065 48.0415 29.9492C48.0891 29.8918 48.1516 29.8487 48.2222 29.8246C48.2918 29.8015 48.3665 29.7981 48.4379 29.8149C48.5093 29.8317 48.5746 29.868 48.6267 29.9197C50.1279 30.6756 51.8341 30.9233 53.4884 30.6256C54.0039 30.4908 54.2815 30.2528 54.3925 29.9277C55.1856 26.8742 55.9311 23.7494 56.5894 20.6484C56.6687 20.2677 56.7718 19.8553 56.8828 19.427C57.3825 17.4443 58.0091 14.9777 56.7718 13.455C55.5346 11.9322 51.5929 10.917 50.3477 10.6315C50.0384 12.0829 48.8091 17.0715 46.3425 20.236C43.876 23.4004 41.1319 23.4084 40.1246 23.337L38.0705 31.8549Z" fill="#333333"/>
<path d="M55.2096 27.6833C55.2096 27.6833 52.4813 28.6747 51.7041 25.9067L55.2096 27.6833Z" fill="white"/>
<path d="M54.1229 28.2464C53.6536 28.253 53.1892 28.1498 52.7667 27.9451C52.4035 27.7442 52.087 27.4685 51.8382 27.1363C51.5894 26.8041 51.4139 26.4229 51.3233 26.0178C51.2949 25.9127 51.3094 25.8005 51.3637 25.7061C51.418 25.6116 51.5076 25.5426 51.6128 25.5142C51.7179 25.4858 51.8301 25.5004 51.9245 25.5546C52.019 25.6089 52.088 25.6985 52.1164 25.8037C52.178 26.1029 52.3026 26.3856 52.4817 26.633C52.6608 26.8805 52.8904 27.0871 53.1553 27.2392C53.7709 27.4945 54.4578 27.5198 55.0905 27.3106C55.1395 27.2923 55.1915 27.2839 55.2437 27.2858C55.2959 27.2877 55.3472 27.2999 55.3947 27.3216C55.4422 27.3433 55.485 27.3742 55.5206 27.4125C55.5561 27.4507 55.5838 27.4956 55.6021 27.5445C55.6203 27.5935 55.6287 27.6456 55.6268 27.6978C55.6249 27.75 55.6127 27.8013 55.591 27.8488C55.5693 27.8963 55.5384 27.939 55.5002 27.9746C55.4619 28.0102 55.417 28.0379 55.3681 28.0561C54.9649 28.1815 54.5452 28.2456 54.1229 28.2464Z" fill="#333333"/>
<path d="M50.1022 20.3155C50.1778 19.5153 50.0266 18.71 49.666 17.9917C49.4711 17.4048 49.1876 16.8512 48.8253 16.35C48.6435 16.096 48.4061 15.8868 48.1312 15.7384C47.8563 15.59 47.5513 15.5062 47.2391 15.4934C46.9644 15.5055 46.6953 15.5753 46.4493 15.6983C46.2034 15.8213 45.9861 15.9947 45.8115 16.2072C45.469 16.637 45.2277 17.1385 45.1057 17.6744C44.814 18.8383 44.8334 20.0583 45.1619 21.2122C45.4905 22.3662 46.1165 23.4135 46.9774 24.2492L46.8426 24.0272" fill="white"/>
<path d="M46.993 24.6537C46.8922 24.6531 46.7955 24.6133 46.7234 24.5427C45.8136 23.6562 45.1518 22.5469 44.8039 21.3252C44.456 20.1035 44.4342 18.812 44.7406 17.5792C44.8859 16.9989 45.1566 16.4574 45.5337 15.993C45.7429 15.7357 46.0047 15.5262 46.3015 15.3784C46.5984 15.2307 46.9234 15.1482 47.2548 15.1365C47.623 15.1564 47.9825 15.2561 48.3084 15.4286C48.6343 15.6012 48.9189 15.8424 49.1424 16.1358C49.5246 16.6734 49.8265 17.2639 50.0385 17.8885C50.4227 18.6759 50.5792 19.5549 50.4906 20.4265C50.4821 20.4779 50.4632 20.5271 50.4353 20.5711C50.4073 20.6151 50.3708 20.653 50.3279 20.6826C50.285 20.7122 50.2365 20.7329 50.1855 20.7434C50.1344 20.7539 50.0817 20.754 50.0306 20.7437C49.9277 20.7244 49.8367 20.6652 49.7772 20.5791C49.7178 20.4929 49.6948 20.3867 49.7134 20.2837C49.7685 19.5587 49.6259 18.8324 49.301 18.182C49.1175 17.6288 48.85 17.1072 48.5079 16.6354C48.3578 16.4371 48.1683 16.2719 47.9513 16.1504C47.7342 16.0289 47.4944 15.9537 47.2468 15.9296C47.0287 15.9401 46.8153 15.9973 46.6211 16.0971C46.4268 16.197 46.2562 16.3373 46.1206 16.5085C45.8163 16.8912 45.6046 17.3391 45.502 17.8172C45.2482 18.8378 45.2471 19.905 45.4986 20.9263C45.7501 21.9475 46.2467 22.8921 46.9455 23.6782C46.9968 23.6899 47.0452 23.7122 47.0875 23.7436C47.1299 23.775 47.1652 23.8148 47.1913 23.8606L47.3261 24.0827C47.375 24.165 47.393 24.262 47.377 24.3564C47.361 24.4508 47.3121 24.5365 47.2389 24.5982C47.1644 24.6409 47.0787 24.6603 46.993 24.6537Z" fill="#333333"/>
<path d="M48.3805 30.2055C48.3805 30.2055 45.8901 28.8414 45.0336 26.7634C45.0336 26.7634 44.2405 31.522 48.0236 33.7665L48.3805 30.2055Z" fill="#333333"/>
<path d="M48.0243 34.1708C47.9546 34.1693 47.8863 34.1502 47.826 34.1153C43.8605 31.7915 44.6536 26.7632 44.6536 26.7077C44.6686 26.623 44.7108 26.5454 44.7737 26.4868C44.8367 26.4281 44.917 26.3915 45.0026 26.3825C45.0878 26.3722 45.1741 26.3898 45.2485 26.4327C45.3228 26.4756 45.3813 26.5415 45.415 26.6205C46.2081 28.5398 48.5874 29.8563 48.5874 29.8722C48.6556 29.9101 48.7114 29.967 48.748 30.036C48.7845 30.1049 48.8004 30.183 48.7936 30.2608L48.4288 33.8139C48.4229 33.8796 48.4001 33.9426 48.3626 33.9968C48.325 34.0511 48.2741 34.0946 48.2146 34.1232C48.1567 34.1561 48.0909 34.1726 48.0243 34.1708ZM45.3515 28.1194C45.3434 29.0725 45.5535 30.0147 45.966 30.874C46.3784 31.7332 46.9821 32.4866 47.7308 33.0763L48.0005 30.4273C46.9838 29.8166 46.0863 29.0266 45.3515 28.0956V28.1194Z" fill="#333333"/>
<path d="M55.5828 17.1845C55.8108 16.5964 55.8102 16.0477 55.5815 15.9591C55.3528 15.8704 54.9826 16.2753 54.7546 16.8634C54.5266 17.4515 54.5272 18.0001 54.7559 18.0888C54.9846 18.1774 55.3548 17.7725 55.5828 17.1845Z" fill="#333333"/>
<path d="M32.3367 32.4262C32.3367 32.4262 46.1367 32.9813 49.6739 40.4524C53.2112 47.9234 52.0532 73.5405 54.0994 75.6978C56.1456 77.855 61.0153 88.3874 60.8566 88.8236C60.698 89.2598 23.9536 93.2491 23.9536 93.2491C23.9536 93.2491 23.5412 84.874 21.8361 73.7864C20.1309 62.6988 22.1375 31.1096 32.3367 32.4262Z" fill="#9747FF"/>
<path d="M38.4351 106.192C38.3451 106.195 38.2573 106.164 38.1892 106.105C38.1063 106.041 38.0523 105.946 38.0389 105.842C38.0255 105.738 38.0539 105.633 38.1179 105.55C43.1065 99.2528 40.5447 95.9059 40.4337 95.7632C40.4002 95.7234 40.3749 95.6773 40.3595 95.6276C40.3441 95.5779 40.3388 95.5256 40.344 95.4738C40.3492 95.422 40.3647 95.3718 40.3897 95.3262C40.4146 95.2805 40.4485 95.2403 40.4892 95.208C40.5704 95.1423 40.6743 95.1112 40.7782 95.1216C40.8822 95.132 40.9778 95.183 41.0444 95.2635C41.1713 95.4221 44.1454 99.229 38.7444 106.042C38.7079 106.089 38.661 106.127 38.6073 106.153C38.5537 106.179 38.4948 106.193 38.4351 106.192Z" fill="white"/>
<path d="M27.7445 32.3865C27.7445 32.3865 6.60837 55.3467 3.01562 98.3328L14.9121 98.087C14.9121 98.087 20.1942 75.9912 34.9379 51.7302L27.7445 32.3865Z" fill="#9747FF"/>
<path d="M59.588 85.5243H59.5087C59.4264 85.5055 59.352 85.462 59.2952 85.3996C59.2385 85.3372 59.2023 85.2589 59.1914 85.1753C59.0566 84.7946 57.7956 82.6136 56.6852 80.6943C55.099 77.9581 53.4652 75.1426 53.148 74.2781C52.7911 73.2947 52.3549 66.3471 51.7521 57.3057C51.4983 53.3402 51.2763 49.9299 51.1494 48.6451C50.7675 45.91 50.1465 43.2137 49.2935 40.5872C49.2609 40.482 49.2714 40.3682 49.3227 40.2708C49.3741 40.1733 49.462 40.1003 49.5671 40.0677C49.6723 40.0351 49.7861 40.0456 49.8835 40.0969C49.981 40.1482 50.054 40.2361 50.0866 40.3413C50.9609 43.0207 51.5927 45.7733 51.9742 48.5658C52.109 49.8665 52.3311 53.3244 52.577 57.2899C53.0052 63.9599 53.5842 73.0885 53.9332 74.0402C54.2266 74.8333 55.9159 77.7519 57.4149 80.3374C60.0797 84.9453 60.0718 85.0088 60.0162 85.2546C59.9875 85.3424 59.9289 85.4174 59.8507 85.4667C59.7725 85.5159 59.6796 85.5363 59.588 85.5243Z" fill="#333333"/>
<path d="M16.6643 91.0363C16.6224 91.0439 16.5794 91.0439 16.5374 91.0363C16.4384 91.0003 16.3574 90.9272 16.3115 90.8324C16.2655 90.7376 16.2584 90.6287 16.2916 90.5287C16.3947 90.2432 26.6019 61.5329 37.2532 47.8837C37.285 47.8423 37.3247 47.8078 37.3701 47.7821C37.4155 47.7564 37.4656 47.7401 37.5174 47.7342C37.5692 47.7283 37.6216 47.7328 37.6716 47.7476C37.7216 47.7624 37.7681 47.7871 37.8084 47.8202C37.8498 47.852 37.8843 47.8917 37.91 47.9371C37.9357 47.9825 37.9519 48.0325 37.9579 48.0843C37.9638 48.1361 37.9592 48.1886 37.9444 48.2386C37.9297 48.2886 37.905 48.3351 37.8719 48.3754C27.276 61.9295 17.1402 90.4811 17.045 90.7746C17.0149 90.8512 16.9626 90.9171 16.8948 90.9637C16.8269 91.0104 16.7467 91.0356 16.6643 91.0363Z" fill="#333333"/>
<path d="M87.4336 58.2415C87.497 55.3863 88.0284 52.3964 89.8129 50.1836C90.2729 49.6284 90.9946 49.0891 91.645 49.3905C91.8629 49.5244 92.0453 49.709 92.1765 49.9285C92.3077 50.1481 92.3838 50.3962 92.3984 50.6515C92.4161 51.1599 92.5207 51.6615 92.7077 52.1346" fill="white"/>
<path d="M87.4331 58.6381C87.3811 58.6371 87.3297 58.6258 87.282 58.6049C87.2343 58.584 87.1911 58.5539 87.155 58.5164C87.1189 58.4788 87.0906 58.4345 87.0716 58.386C87.0527 58.3375 87.0435 58.2857 87.0445 58.2336C87.1238 54.6092 87.9328 51.8888 89.5269 49.9378C90.2566 49.0416 91.1131 48.7006 91.8349 49.0257C92.1217 49.182 92.3627 49.4106 92.5339 49.6889C92.705 49.9672 92.8003 50.2854 92.8104 50.6119C92.834 50.7431 92.8499 50.8755 92.8579 51.0085C92.8727 51.3418 92.948 51.6697 93.08 51.9761C93.1276 52.0688 93.1369 52.1765 93.1057 52.2759C93.0745 52.3753 93.0055 52.4585 92.9135 52.5074C92.8672 52.5323 92.8164 52.5476 92.7642 52.5527C92.7119 52.5578 92.6592 52.5524 92.609 52.5369C92.5588 52.5214 92.5122 52.4961 92.4719 52.4624C92.4316 52.4288 92.3984 52.3875 92.3742 52.3409C92.1987 51.9476 92.0966 51.5257 92.0728 51.0957C92.0728 50.9768 92.0728 50.8499 92.0252 50.7309C91.9855 50.4454 91.8586 49.9378 91.5097 49.7792C91.1607 49.6206 90.5024 50.025 90.1455 50.4692C88.6624 52.2854 87.909 54.8392 87.8376 58.2812C87.8259 58.38 87.7782 58.4711 87.7036 58.5369C87.6289 58.6028 87.5327 58.6388 87.4331 58.6381Z" fill="#333333"/>
<path d="M30.1558 24.0985C29.1067 23.3328 27.9104 22.7928 26.6423 22.5123C24.9199 22.3759 23.1992 22.7956 21.733 23.7098C19.6817 24.7158 17.9412 26.2589 16.6968 28.175C16.0865 29.1362 15.7267 30.2351 15.6505 31.3712C15.5743 32.5073 15.7841 33.6443 16.2606 34.6784C16.8143 35.6064 17.5639 36.4022 18.4571 37.0105C19.3502 37.6187 20.3654 38.0246 21.4317 38.1998C23.5644 38.5422 25.7344 38.5876 27.8796 38.3346C29.9375 38.1681 32.0045 38.1443 34.0658 38.2633C38.293 38.5805 42.3616 39.9684 46.5175 40.7695C49.1426 41.2691 48.1037 38.4933 47.1123 37.4622C45.4309 35.765 43.6755 34.1471 41.8461 32.6084C38.1507 29.5049 34.2446 26.6615 30.1558 24.0985Z" fill="#9747FF"/>
<path d="M39.998 38.9296C39.9223 38.927 39.8486 38.9052 39.7838 38.8661C37.498 37.3971 34.8628 36.562 32.1481 36.4464C29.4334 36.3307 26.7367 36.9386 24.3342 38.2079C24.246 38.246 24.1469 38.2508 24.0554 38.2214C23.9639 38.192 23.8862 38.1303 23.8368 38.0479C23.7873 37.9655 23.7695 37.8679 23.7866 37.7734C23.8037 37.6788 23.8546 37.5936 23.9297 37.5337C26.4588 36.1855 29.3018 35.5365 32.1654 35.6536C35.029 35.7707 37.8095 36.6497 40.22 38.1999C40.307 38.2581 40.3674 38.3482 40.3882 38.4507C40.409 38.5532 40.3885 38.6598 40.3311 38.7472C40.2964 38.8041 40.2473 38.8509 40.1889 38.8829C40.1304 38.9149 40.0646 38.931 39.998 38.9296Z" fill="#333333"/>
</svg>
