<svg width="261" height="217" viewBox="0 0 261 217" fill="none" xmlns="http://www.w3.org/2000/svg">
<path d="M260.5 108C260.5 154.627 230.947 194.354 189.554 209.471C183.257 211.775 176.757 213.481 170.14 214.567C151.936 217.552 133.272 215.857 115.904 209.641C74.2491 194.649 44.4804 154.787 44.5 107.977C44.5 48.3546 92.8546 0.000113799 152.5 0.000113799C175.042 -0.0326719 197.024 7.01956 215.34 20.1601C242.683 39.7506 260.5 71.7939 260.5 108Z" fill="#E6E6E6"/>
<path d="M206.865 211.403C202.105 213.146 197.191 214.436 192.188 215.257C178.426 217.515 164.317 216.233 151.187 211.532L154.957 196.396L155.185 195.487L162.879 195.517L201.536 195.656L202.031 197.118L206.865 211.403Z" fill="#333333"/>
<path d="M71.422 42H0.5V122.284H71.422V42Z" fill="#E6E6E6"/>
<path d="M70.0336 43.6982H1.76465V120.586H70.0336V43.6982Z" fill="white"/>
<path d="M35.9615 117.852C38.075 117.852 39.7883 116.138 39.7883 114.024C39.7883 111.909 38.075 110.195 35.9615 110.195C33.8481 110.195 32.1348 111.909 32.1348 114.024C32.1348 116.138 33.8481 117.852 35.9615 117.852Z" fill="#E6E6E6"/>
<path d="M35.3147 70.915H13.335V73.1645H35.3147V70.915Z" fill="#E6E6E6"/>
<path d="M46.5082 77.6558H13.335V79.9052H46.5082V77.6558Z" fill="#9747FF"/>
<path d="M43.252 84.4385H13.335V86.6879H43.252V84.4385Z" fill="#E6E6E6"/>
<path d="M59.5332 91.0425H13.335V93.2919H59.5332V91.0425Z" fill="#9747FF"/>
<path d="M51.465 97.332H13.8145V99.5815H51.465V97.332Z" fill="#E6E6E6"/>
<path d="M101.35 172.638C101.619 172.916 101.867 173.213 102.09 173.529L136.755 172.681L140.799 165.288L152.749 169.936L146.861 183.719C146.385 184.833 145.561 185.762 144.513 186.367C143.464 186.972 142.248 187.221 141.046 187.076L101.88 182.342C100.956 183.512 99.6984 184.373 98.2735 184.811C96.8486 185.248 95.3244 185.241 93.9036 184.791C92.4828 184.34 91.2327 183.468 90.3197 182.289C89.4066 181.111 88.8739 179.682 88.7923 178.193C88.7107 176.704 89.0841 175.226 89.8628 173.954C90.6416 172.683 91.7888 171.679 93.1519 171.076C94.515 170.473 96.0293 170.299 97.4934 170.578C98.9576 170.857 100.302 171.575 101.348 172.637L101.35 172.638Z" fill="white"/>
<path d="M148.007 130.424L164.23 125.105L168.994 118.568L192.181 119.941L195.585 127.569L207.949 133.414L206.049 168.716L202.799 201.754C186.084 193.095 154.889 199.697 154.616 199.804L148.007 130.424Z" fill="#9747FF"/>
<path d="M151.476 178.208L134.975 171.603L135.045 171.309C135.116 171.012 142.139 141.652 143.071 136.934C144.043 132.018 147.592 130.659 147.743 130.604L147.853 130.563L154.383 132.552L157.251 155.096L151.476 178.208Z" fill="#9747FF"/>
<path d="M187.104 200.302C187.491 200.293 187.878 200.314 188.262 200.366L211.209 174.358L208.539 166.367L220.071 160.76L226.171 174.451C226.664 175.557 226.785 176.793 226.516 177.974C226.246 179.155 225.602 180.216 224.678 180.999L194.58 206.512C194.809 207.985 194.585 209.493 193.936 210.836C193.288 212.178 192.247 213.291 190.95 214.027C189.654 214.763 188.165 215.087 186.68 214.955C185.195 214.824 183.786 214.243 182.639 213.29C181.493 212.338 180.663 211.059 180.261 209.623C179.858 208.187 179.903 206.663 180.387 205.253C180.872 203.843 181.774 202.614 182.974 201.73C184.174 200.845 185.615 200.347 187.104 200.302Z" fill="white"/>
<path d="M209.377 176.89L199.805 154.364L203.538 138.674L207.561 133.59C207.856 133.463 208.173 133.4 208.494 133.403C208.814 133.406 209.13 133.475 209.422 133.607C210.907 134.204 212.169 136.035 213.178 139.048L222.149 164.612L209.377 176.89Z" fill="#9747FF"/>
<path d="M159.714 110.221V93.2386C159.704 90.2502 160.283 87.2891 161.417 84.5244C162.551 81.7597 164.218 79.2455 166.323 77.1253C168.428 75.0052 170.93 73.3207 173.686 72.1679C176.442 71.0152 179.398 70.4168 182.385 70.4069C185.373 70.397 188.332 70.9758 191.096 72.1102C193.86 73.2447 196.373 74.9126 198.492 77.0187C200.611 79.1248 202.295 81.6279 203.447 84.3851C204.6 87.1422 205.198 90.0994 205.208 93.0878C205.208 93.1381 205.208 93.1883 205.208 93.2386V110.221C205.207 111.031 204.884 111.808 204.312 112.381C203.739 112.954 202.962 113.277 202.152 113.278H162.77C161.959 113.277 161.183 112.954 160.61 112.381C160.037 111.808 159.715 111.031 159.714 110.221Z" fill="#333333"/>
<path d="M177.786 112.882C186.997 112.882 194.464 105.413 194.464 96.1982C194.464 86.9839 186.997 79.5142 177.786 79.5142C168.576 79.5142 161.109 86.9839 161.109 96.1982C161.109 105.413 168.576 112.882 177.786 112.882Z" fill="white"/>
<path d="M154.332 94.5971C154.337 89.8244 156.235 85.2489 159.608 81.8741C162.982 78.4994 167.555 76.6011 172.326 76.5957H175.721C180.492 76.6011 185.065 78.4994 188.439 81.8741C191.812 85.2489 193.709 89.8245 193.715 94.5971V94.9366H186.54L184.092 88.0804L183.603 94.9366H179.895L178.661 91.4778L178.413 94.9366H154.332V94.5971Z" fill="#333333"/>
<path d="M176.145 115.187C175.809 114.731 175.607 114.189 175.565 113.623C175.523 113.057 175.641 112.491 175.906 111.99C179.504 105.144 184.541 92.494 177.855 84.6927L177.376 84.1328H196.787V113.288L179.153 116.401C178.975 116.432 178.794 116.448 178.613 116.448C178.131 116.448 177.657 116.334 177.228 116.115C176.799 115.896 176.429 115.578 176.147 115.188L176.145 115.187Z" fill="#333333"/>
<path d="M35.8999 48.2529C34.2904 48.2528 32.717 48.7302 31.3787 49.6247C30.0404 50.5192 28.9973 51.7906 28.3813 53.2782C27.7653 54.7658 27.6041 56.4027 27.918 57.9819C28.2319 59.5612 29.0069 61.0118 30.1449 62.1504C31.2829 63.289 32.7329 64.0645 34.3115 64.3787C35.89 64.6929 37.5262 64.5318 39.0132 63.9157C40.5003 63.2996 41.7712 62.2562 42.6655 60.9174C43.5598 59.5786 44.0371 58.0047 44.0372 56.3945V56.3941C44.0372 55.325 43.8267 54.2663 43.4177 53.2786C43.0088 52.2909 42.4094 51.3934 41.6537 50.6374C40.8981 49.8814 40.001 49.2818 39.0136 48.8726C38.0263 48.4635 36.9681 48.2529 35.8995 48.2529H35.8999ZM35.8999 50.6951C36.3827 50.6951 36.8546 50.8383 37.2561 51.1066C37.6575 51.375 37.9704 51.7564 38.1552 52.2026C38.3399 52.6488 38.3883 53.1399 38.2941 53.6136C38.1999 54.0873 37.9674 54.5225 37.626 54.864C37.2846 55.2056 36.8497 55.4381 36.3761 55.5324C35.9026 55.6266 35.4118 55.5783 34.9657 55.3934C34.5197 55.2086 34.1384 54.8956 33.8702 54.494C33.6019 54.0924 33.4588 53.6202 33.4588 53.1372C33.4588 52.4895 33.716 51.8683 34.1738 51.4103C34.6316 50.9524 35.2525 50.6951 35.8999 50.6951ZM35.8999 62.4525C34.9355 62.4481 33.9867 62.2084 33.1358 61.7541C32.285 61.2999 31.5577 60.6448 31.0172 59.8457C31.0564 58.2175 34.2723 57.3212 35.8999 57.3212C37.5274 57.3212 40.7433 58.2175 40.7825 59.8457C40.2414 60.6442 39.5141 61.2988 38.6633 61.753C37.8126 62.2072 36.8641 62.4473 35.8999 62.4525Z" fill="#9747FF"/>
<path d="M35.9935 115.491C39.346 109.345 47.3771 105.453 53.9468 108.961C56.9039 110.54 59.2546 113.333 60.0008 116.634C60.8667 120.469 59.042 124.126 57.1585 127.347C56.1361 129.096 55.0158 130.809 54.1697 132.654C53.2936 134.564 52.6674 136.771 53.327 138.849C53.9208 140.721 55.4097 142.083 57.0402 143.084C58.8397 144.146 60.7538 145.002 62.7459 145.633C66.8464 146.997 71.1715 147.557 75.4841 147.282C77.6274 147.136 79.7527 146.792 81.8328 146.255C84.0454 145.691 86.2167 144.975 88.4331 144.423C92.1334 143.504 96.3526 143.047 99.8615 144.894C103.27 146.689 104.796 150.443 105.268 154.095C106.139 160.839 103.466 167.837 98.6405 172.56C96.3251 174.826 93.4116 176.698 90.2382 177.464C87.4694 178.132 83.914 178.089 81.7105 176.018C79.2517 173.707 79.8302 170.001 81.783 167.563C84.2757 164.452 88.4986 163.705 92.267 163.629C96.5538 163.543 100.837 164.181 105.121 163.784C107.212 163.622 109.264 163.126 111.199 162.318C112.901 161.569 114.453 160.518 115.78 159.216C118.425 156.646 120.209 153.221 121.096 149.66C122.164 145.378 121.931 140.878 121.102 136.577C120.66 134.359 120.091 132.168 119.398 130.016C119.112 129.107 117.678 129.496 117.966 130.41C120.52 138.51 121.943 147.876 117.01 155.396C114.969 158.586 111.788 160.876 108.117 161.801C103.848 162.862 99.3674 162.337 95.0267 162.179C90.8993 162.029 86.3671 162.191 82.8291 164.596C79.9267 166.569 77.8966 170.321 78.774 173.863C79.6199 177.278 82.9011 179.011 86.1828 179.278C89.6261 179.559 93.0145 178.402 95.9063 176.595C101.922 172.834 105.921 166.22 106.758 159.208C107.195 155.555 106.751 151.619 105.095 148.303C104.222 146.508 102.863 144.993 101.174 143.931C99.4889 142.898 97.5427 142.389 95.5881 142.209C91.1475 141.8 86.881 143.325 82.6685 144.492C80.5166 145.117 78.3109 145.538 76.0803 145.75C73.9154 145.93 71.7381 145.894 69.5802 145.644C67.439 145.392 65.3288 144.923 63.2818 144.246C61.2758 143.626 59.3552 142.757 57.5645 141.66C55.9847 140.65 54.6185 139.202 54.5408 137.23C54.4564 135.091 55.5344 133.09 56.5597 131.287C58.5853 127.725 61.0874 124.241 61.6157 120.071C62.0783 116.423 60.6111 112.828 58.0776 110.226C56.8079 108.906 55.2793 107.862 53.5875 107.159C51.8957 106.457 50.0773 106.112 48.246 106.146C44.487 106.253 40.8879 107.889 38.123 110.4C36.7517 111.647 35.5978 113.113 34.7087 114.739C34.2507 115.579 35.5321 116.329 35.9905 115.489L35.9935 115.491Z" fill="#9747FF"/>
</svg>
