<svg width="209" height="175" viewBox="0 0 209 175" fill="none" xmlns="http://www.w3.org/2000/svg">
<g clip-path="url(#clip0_307_2162)">
<path d="M98.168 174.741C143.754 174.741 180.709 172.852 180.709 170.521C180.709 168.19 143.754 166.3 98.168 166.3C52.5821 166.3 15.6274 168.19 15.6274 170.521C15.6274 172.852 52.5821 174.741 98.168 174.741Z" fill="#ADB5BD"/>
<path d="M146.392 40.5544H145.454V14.8671C145.454 10.9241 143.888 7.14262 141.1 4.35449C138.312 1.56636 134.53 4.35337e-06 130.587 0H76.165C72.222 -7.46287e-06 68.4405 1.56634 65.6524 4.35445C62.8642 7.14257 61.2979 10.9241 61.2979 14.8671V155.79C61.2978 159.733 62.8642 163.514 65.6523 166.302C68.4404 169.09 72.2219 170.657 76.165 170.657H130.587C134.53 170.657 138.312 169.09 141.1 166.302C143.888 163.514 145.454 159.733 145.454 155.79V58.8391H146.392L146.392 40.5544Z" fill="#212529"/>
<path d="M142.29 14.9713V155.687C142.29 158.631 141.12 161.455 139.038 163.538C136.955 165.62 134.131 166.79 131.187 166.79H76.5035C73.5588 166.79 70.7347 165.62 68.6525 163.538C66.5702 161.455 65.4004 158.631 65.4004 155.687V14.9713C65.4004 12.0266 66.5703 9.20248 68.6525 7.12025C70.7347 5.03803 73.5588 3.86822 76.5035 3.86816H83.1372C82.8113 4.66918 82.6871 5.53802 82.7757 6.39826C82.8644 7.25851 83.163 8.08379 83.6455 8.80153C84.1279 9.51926 84.7793 10.1074 85.5424 10.5143C86.3055 10.9212 87.1569 11.1344 88.0217 11.135H119.199C120.064 11.1344 120.916 10.9212 121.679 10.5143C122.442 10.1074 123.093 9.51924 123.576 8.80151C124.058 8.08378 124.357 7.2585 124.445 6.39826C124.534 5.53801 124.41 4.66918 124.084 3.86816H131.187C134.131 3.86822 136.955 5.03803 139.038 7.12025C141.12 9.20248 142.29 12.0266 142.29 14.9713Z" fill="white"/>
<path d="M124.673 75.6468C124.31 75.8367 123.94 76.0165 123.564 76.1861C123.221 76.3409 122.874 76.4863 122.52 76.6223C122.391 76.6715 122.26 76.7208 122.129 76.77C121.091 77.1466 120.024 77.4406 118.94 77.6494C118.403 77.7549 117.859 77.8377 117.308 77.8979C116.853 77.9495 116.393 77.9862 115.929 78.0081C115.598 78.0245 115.268 78.0316 114.935 78.0316C113.616 78.0321 112.3 77.9089 111.005 77.6634C110.667 77.6025 110.336 77.5298 110.006 77.45C108.406 77.0668 106.858 76.4953 105.393 75.7476C105.262 75.682 105.131 75.6116 104.999 75.5436C104.805 75.4405 104.615 75.3326 104.425 75.22C104.516 75.0934 104.615 74.9691 104.716 74.8472C105.813 73.4874 107.184 72.3741 108.741 71.5798C110.297 70.7856 112.003 70.3282 113.748 70.2375C115.493 70.1468 117.237 70.4248 118.868 71.0534C120.498 71.682 121.977 72.6471 123.21 73.8858C123.638 74.315 124.034 74.7742 124.396 75.2599C124.492 75.3865 124.584 75.5155 124.673 75.6468Z" fill="#9747FF"/>
<path d="M115.403 65.3467C121.089 65.3467 125.699 60.7369 125.699 55.0503C125.699 49.3638 121.089 44.7539 115.403 44.7539C109.716 44.7539 105.106 49.3638 105.106 55.0503C105.106 60.7369 109.716 65.3467 115.403 65.3467Z" fill="#212529"/>
<path d="M120.97 55.0805C122.934 58.673 121.614 63.1774 118.021 65.1412C114.429 67.1051 109.924 65.7848 107.961 62.1922C105.997 58.5997 107.317 54.0953 110.91 52.1315C114.502 50.1676 119.006 51.4879 120.97 55.0805Z" fill="white" stroke="black" stroke-width="0.5"/>
<path d="M122.518 53.8166C120.767 55.0235 118.688 55.6659 116.561 55.6574C117.32 56.1834 118.184 56.5388 119.093 56.6989C116.265 57.3055 113.343 57.3219 110.508 56.7471C109.878 56.6461 109.27 56.4373 108.711 56.1299C108.433 55.9743 108.19 55.7618 107.999 55.5062C107.808 55.2506 107.672 54.9576 107.602 54.6464C107.414 53.5704 108.252 52.5928 109.123 51.934C110.457 50.9407 111.995 50.2564 113.626 49.9305C115.257 49.6045 116.94 49.6452 118.554 50.0496C119.607 50.3219 120.662 50.7819 121.347 51.6279C122.031 52.4739 122.234 53.7782 121.582 54.6493L122.518 53.8166Z" fill="#212529"/>
<path d="M114.935 35.8232C110.332 35.8226 105.856 37.3267 102.187 40.1065C98.519 42.8863 95.8602 46.7892 94.6161 51.2204C93.372 55.6516 93.6108 60.3681 95.2961 64.6509C96.9815 68.9338 100.021 72.5482 103.951 74.9432L104.087 75.023C104.2 75.091 104.312 75.1566 104.425 75.2199C104.615 75.3325 104.805 75.4404 104.999 75.5435C105.131 75.6115 105.262 75.6819 105.393 75.7475C106.858 76.4952 108.406 77.0667 110.006 77.4499C110.336 77.5297 110.667 77.6024 111.005 77.6633C112.3 77.9088 113.616 78.032 114.935 78.0315C115.268 78.0315 115.598 78.0244 115.929 78.008C116.393 77.9869 116.853 77.9502 117.308 77.8978C117.859 77.8368 118.403 77.754 118.94 77.6493C120.024 77.4405 121.091 77.1465 122.129 76.7699C122.26 76.7207 122.391 76.6714 122.52 76.6222C122.875 76.4862 123.222 76.3408 123.564 76.186C123.939 76.0172 124.309 75.8374 124.673 75.6467C128.324 73.735 131.341 70.8049 133.359 67.2121C133.368 67.1934 133.38 67.1746 133.389 67.1558C134.466 65.224 135.229 63.1338 135.652 60.9629C136.245 57.9069 136.155 54.7576 135.389 51.7403C134.622 48.7231 133.198 45.9127 131.218 43.5103C129.239 41.1079 126.752 39.1729 123.937 37.844C121.122 36.5151 118.048 35.825 114.935 35.8232ZM133.005 66.8815C132.986 66.9143 132.969 66.9471 132.951 66.9776C130.973 70.5174 127.998 73.3976 124.396 75.2598C124.038 75.4474 123.673 75.6233 123.301 75.7874C122.994 75.9258 122.68 76.0571 122.363 76.179C122.23 76.2306 122.094 76.2822 121.958 76.3291C121.061 76.6567 120.142 76.92 119.207 77.117C118.514 77.2645 117.813 77.3749 117.108 77.4476C116.675 77.4945 116.234 77.5273 115.791 77.5437C115.507 77.5555 115.221 77.5625 114.935 77.5625C113.659 77.564 112.385 77.4455 111.131 77.2084C110.369 77.0677 109.614 76.883 108.873 76.655C107.744 76.3061 106.646 75.8613 105.593 75.3255C105.471 75.2621 105.349 75.1988 105.229 75.1332C105.058 75.0417 104.884 74.9479 104.716 74.8471C104.589 74.7768 104.462 74.7017 104.338 74.6267C104.265 74.5845 104.193 74.5399 104.12 74.4954C100.674 72.3792 97.9252 69.2978 96.2146 65.6336C94.5039 61.9694 93.9067 57.8836 94.497 53.8831C95.0873 49.8825 96.8392 46.1433 99.5352 43.1294C102.231 40.1154 105.753 37.9593 109.663 36.9286C113.573 35.8978 117.7 36.0378 121.532 37.3311C125.363 38.6245 128.731 41.0142 131.216 44.2039C133.702 47.3937 135.196 51.243 135.514 55.2743C135.832 59.3056 134.96 63.3416 133.005 66.8815Z" fill="#212529"/>
<path d="M110.189 44.8955C110.078 43.7305 108.651 43.0134 107.535 43.3652C106.419 43.7171 105.686 44.8409 105.465 45.9899C105.358 46.4738 105.348 46.974 105.435 47.4618C105.522 47.9496 105.705 48.4154 105.972 48.8325C106.536 49.6444 107.573 50.151 108.54 49.9449C109.644 49.7097 110.408 48.6319 110.627 47.5247C110.846 46.4176 110.629 45.2761 110.412 44.1686L110.189 44.8955Z" fill="#212529"/>
<path d="M125.895 46.5596C125.785 45.3946 124.357 44.6774 123.241 45.0293C122.125 45.3812 121.393 46.5049 121.171 47.654C121.065 48.1379 121.055 48.6381 121.142 49.1259C121.229 49.6137 121.411 50.0795 121.679 50.4966C122.243 51.3084 123.28 51.8151 124.247 51.609C125.35 51.3737 126.115 50.296 126.334 49.1888C126.553 48.0817 126.335 46.9402 126.118 45.8327L125.895 46.5596Z" fill="#212529"/>
<path d="M78.4566 65.362C78.3106 65.3619 78.1662 65.3313 78.0327 65.2721C77.8992 65.213 77.7795 65.1267 77.6813 65.0187L66.0454 52.3249C65.9133 52.1812 65.7529 52.0664 65.5743 51.9878C65.3956 51.9092 65.2026 51.8685 65.0075 51.8683H3.51953C2.58641 51.8673 1.69182 51.4961 1.032 50.8363C0.372189 50.1765 0.00104765 49.2819 0 48.3488V26.1748C0.00104703 25.2417 0.372189 24.3471 1.032 23.6873C1.69182 23.0275 2.58641 22.6563 3.51953 22.6553H83.1818C84.1149 22.6563 85.0095 23.0275 85.6693 23.6873C86.3291 24.3471 86.7002 25.2417 86.7013 26.1748V48.3488C86.7002 49.2819 86.3291 50.1765 85.6693 50.8363C85.0095 51.4961 84.1149 51.8673 83.1818 51.8683H80.9233C80.55 51.8687 80.1921 52.0172 79.9281 52.2812C79.6642 52.5452 79.5157 52.9031 79.5153 53.2764V64.3052C79.5162 64.5181 79.4523 64.7263 79.3321 64.902C79.2119 65.0778 79.041 65.2128 78.8423 65.2891C78.7194 65.3372 78.5886 65.3619 78.4566 65.362Z" fill="white"/>
<path d="M78.4566 65.362C78.3106 65.3619 78.1662 65.3313 78.0327 65.2721C77.8992 65.213 77.7795 65.1267 77.6813 65.0187L66.0454 52.3249C65.9133 52.1812 65.7529 52.0664 65.5743 51.9878C65.3956 51.9092 65.2026 51.8685 65.0075 51.8683H3.51953C2.58641 51.8673 1.69182 51.4961 1.032 50.8363C0.372189 50.1765 0.00104765 49.2819 0 48.3488V26.1748C0.00104703 25.2417 0.372189 24.3471 1.032 23.6873C1.69182 23.0275 2.58641 22.6563 3.51953 22.6553H83.1818C84.1149 22.6563 85.0095 23.0275 85.6693 23.6873C86.3291 24.3471 86.7002 25.2417 86.7013 26.1748V48.3488C86.7002 49.2819 86.3291 50.1765 85.6693 50.8363C85.0095 51.4961 84.1149 51.8673 83.1818 51.8683H80.9233C80.55 51.8687 80.1921 52.0172 79.9281 52.2812C79.6642 52.5452 79.5157 52.9031 79.5153 53.2764V64.3052C79.5162 64.5181 79.4523 64.7263 79.3321 64.902C79.2119 65.0778 79.041 65.2128 78.8423 65.2891C78.7194 65.3372 78.5886 65.3619 78.4566 65.362ZM3.51953 23.1243C2.71075 23.1252 1.93536 23.4469 1.36347 24.0187C0.791581 24.5906 0.469893 25.366 0.46898 26.1748V48.3488C0.469895 49.1576 0.791584 49.9329 1.36348 50.5048C1.93537 51.0767 2.71075 51.3984 3.51953 51.3993H65.0075C65.2676 51.3996 65.5249 51.4539 65.7631 51.5586C66.0012 51.6634 66.215 51.8164 66.391 52.008L78.0269 64.7017C78.1068 64.7889 78.2112 64.8498 78.3263 64.8767C78.4415 64.9035 78.562 64.8949 78.6722 64.8521C78.7824 64.8092 78.8771 64.7341 78.9438 64.6365C79.0106 64.5389 79.0463 64.4234 79.0463 64.3052V53.2764C79.0468 52.7787 79.2448 52.3016 79.5967 51.9497C79.9485 51.5978 80.4257 51.3999 80.9233 51.3993H83.1818C83.9905 51.3984 84.7659 51.0767 85.3378 50.5048C85.9097 49.9329 86.2314 49.1576 86.2323 48.3488V26.1748C86.2314 25.366 85.9097 24.5906 85.3378 24.0187C84.7659 23.4469 83.9905 23.1252 83.1818 23.1243H3.51953Z" fill="#212529"/>
<path d="M8.63295 32.4368C10.3338 32.4368 11.7127 31.058 11.7127 29.3571C11.7127 27.6562 10.3338 26.2773 8.63295 26.2773C6.93206 26.2773 5.55322 27.6562 5.55322 29.3571C5.55322 31.058 6.93206 32.4368 8.63295 32.4368Z" fill="#9747FF"/>
<path d="M79.589 46.3983H7.11275C6.89688 46.3986 6.68309 46.3563 6.48358 46.2739C6.28407 46.1914 6.10277 46.0705 5.95004 45.9179C5.79731 45.7654 5.67615 45.5842 5.59348 45.3848C5.51081 45.1854 5.46826 44.9717 5.46826 44.7558C5.46826 44.5399 5.51081 44.3262 5.59348 44.1268C5.67615 43.9274 5.79731 43.7462 5.95004 43.5937C6.10277 43.4411 6.28407 43.3202 6.48358 43.2377C6.68309 43.1553 6.89688 43.113 7.11275 43.1133H79.589C80.0242 43.1138 80.4415 43.2871 80.7491 43.5951C81.0567 43.903 81.2295 44.3205 81.2295 44.7558C81.2295 45.1911 81.0567 45.6086 80.7491 45.9165C80.4415 46.2245 80.0242 46.3978 79.589 46.3983Z" fill="white"/>
<path d="M55.9777 39.4169H7.11275C6.89688 39.4171 6.68309 39.3748 6.48358 39.2924C6.28407 39.21 6.10277 39.089 5.95004 38.9365C5.79731 38.7839 5.67615 38.6028 5.59348 38.4034C5.51081 38.204 5.46826 37.9902 5.46826 37.7744C5.46826 37.5585 5.51081 37.3447 5.59348 37.1453C5.67615 36.9459 5.79731 36.7648 5.95004 36.6122C6.10277 36.4597 6.28407 36.3387 6.48358 36.2563C6.68309 36.1739 6.89688 36.1316 7.11275 36.1318H55.9777C56.4134 36.1318 56.8311 36.3049 57.1392 36.6129C57.4472 36.921 57.6202 37.3387 57.6202 37.7744C57.6202 38.21 57.4472 38.6278 57.1392 38.9358C56.8311 39.2438 56.4134 39.4169 55.9777 39.4169Z" fill="white"/>
<path d="M130.158 140.561C129.959 140.484 129.788 140.349 129.668 140.174C129.548 139.998 129.484 139.79 129.485 139.577V128.548C129.484 128.175 129.336 127.817 129.072 127.553C128.808 127.289 128.45 127.14 128.077 127.14H125.818C124.885 127.139 123.991 126.768 123.331 126.108C122.671 125.448 122.3 124.553 122.299 123.62V101.446C122.3 100.513 122.671 99.6186 123.331 98.9588C123.991 98.2989 124.885 97.9278 125.818 97.9268H205.481C206.414 97.9278 207.308 98.2989 207.968 98.9588C208.628 99.6186 208.999 100.513 209 101.446V123.62C208.999 124.553 208.628 125.448 207.968 126.108C207.308 126.768 206.414 127.139 205.481 127.14H143.993C143.797 127.14 143.604 127.181 143.426 127.259C143.247 127.338 143.087 127.453 142.955 127.596L131.319 140.29C131.221 140.398 131.101 140.485 130.967 140.544C130.834 140.603 130.689 140.633 130.543 140.634C130.412 140.633 130.281 140.609 130.158 140.561Z" fill="white"/>
<path d="M130.158 140.561C129.959 140.484 129.788 140.349 129.668 140.174C129.548 139.998 129.484 139.79 129.485 139.577V128.548C129.484 128.175 129.336 127.817 129.072 127.553C128.808 127.289 128.45 127.14 128.077 127.14H125.818C124.885 127.139 123.991 126.768 123.331 126.108C122.671 125.448 122.3 124.553 122.299 123.62V101.446C122.3 100.513 122.671 99.6186 123.331 98.9588C123.991 98.2989 124.885 97.9278 125.818 97.9268H205.481C206.414 97.9278 207.308 98.2989 207.968 98.9588C208.628 99.6186 208.999 100.513 209 101.446V123.62C208.999 124.553 208.628 125.448 207.968 126.108C207.308 126.768 206.414 127.139 205.481 127.14H143.993C143.797 127.14 143.604 127.181 143.426 127.259C143.247 127.338 143.087 127.453 142.955 127.596L131.319 140.29C131.221 140.398 131.101 140.485 130.967 140.544C130.834 140.603 130.689 140.633 130.543 140.634C130.412 140.633 130.281 140.609 130.158 140.561ZM125.818 98.3957C125.01 98.3967 124.234 98.7183 123.662 99.2902C123.09 99.8621 122.769 100.638 122.768 101.446V123.62C122.769 124.429 123.09 125.204 123.662 125.776C124.234 126.348 125.01 126.67 125.818 126.671H128.077C128.574 126.671 129.052 126.869 129.403 127.221C129.755 127.573 129.953 128.05 129.954 128.548V139.577C129.954 139.695 129.99 139.81 130.056 139.908C130.123 140.006 130.218 140.081 130.328 140.124C130.438 140.166 130.559 140.175 130.674 140.148C130.789 140.121 130.893 140.06 130.973 139.973L142.609 127.279C142.785 127.088 142.999 126.935 143.237 126.83C143.475 126.725 143.732 126.671 143.993 126.671H205.481C206.289 126.67 207.065 126.348 207.637 125.776C208.209 125.204 208.53 124.429 208.531 123.62V101.446C208.53 100.638 208.209 99.8621 207.637 99.2902C207.065 98.7183 206.289 98.3967 205.481 98.3957H125.818Z" fill="#212529"/>
<path d="M105.328 147.427C102.061 149.519 98.2761 150.66 94.3974 150.721C90.5187 150.783 86.6994 149.763 83.3677 147.776C83.9538 146.685 84.6964 145.686 85.572 144.81C86.9229 143.453 88.567 142.423 90.378 141.8C92.1889 141.177 94.1186 140.978 96.0186 141.217C97.9187 141.457 99.7386 142.128 101.339 143.181C102.938 144.233 104.276 145.639 105.248 147.289C105.274 147.333 105.302 147.38 105.328 147.427Z" fill="#9747FF"/>
<path d="M93.4308 136.213C99.1551 136.213 103.796 131.573 103.796 125.848C103.796 120.124 99.1551 115.483 93.4308 115.483C87.7064 115.483 83.0659 120.124 83.0659 125.848C83.0659 131.573 87.7064 136.213 93.4308 136.213Z" fill="#212529"/>
<path d="M97.9547 122.909C101.572 124.886 102.901 129.422 100.924 133.039C98.9466 136.656 94.4113 137.986 90.7941 136.008C87.1769 134.031 85.8475 129.496 87.8249 125.878C89.8022 122.261 94.3375 120.932 97.9547 122.909Z" fill="white" stroke="black" stroke-width="0.5"/>
<path d="M86.2686 124.607C88.0314 125.822 90.1237 126.468 92.2647 126.46C91.501 126.989 90.6316 127.347 89.7163 127.508C92.5629 128.119 95.5048 128.135 98.3581 127.557C98.9923 127.455 99.6043 127.245 100.167 126.935C100.448 126.779 100.692 126.565 100.884 126.307C101.077 126.05 101.213 125.755 101.284 125.442C101.473 124.359 100.629 123.375 99.7523 122.711C98.4094 121.712 96.861 121.023 95.2192 120.695C93.5774 120.367 91.8832 120.407 90.2592 120.815C89.1988 121.089 88.1364 121.552 87.4477 122.403C86.7589 123.255 86.5548 124.568 87.2111 125.445L86.2686 124.607Z" fill="#212529"/>
<path d="M94.0652 150.958C88.989 150.956 84.0837 149.125 80.2488 145.799C76.414 142.473 73.9068 137.876 73.1872 132.851C72.4676 127.826 73.5839 122.71 76.3312 118.442C79.0785 114.173 83.2727 111.039 88.1443 109.612C93.016 108.186 98.2386 108.564 102.854 110.677C107.469 112.791 111.168 116.497 113.272 121.116C115.376 125.736 115.744 130.959 114.308 135.828C112.872 140.697 109.728 144.885 105.455 147.624C102.056 149.803 98.1026 150.96 94.0652 150.958ZM94.0652 109.219C89.9834 109.218 85.9931 110.428 82.5991 112.696C79.205 114.963 76.5596 118.186 74.9974 121.957C73.4352 125.728 73.0264 129.878 73.8226 133.881C74.6188 137.885 76.5843 141.562 79.4706 144.448C82.3569 147.335 86.0342 149.3 90.0376 150.096C94.041 150.893 98.1906 150.484 101.962 148.921C105.733 147.359 108.956 144.714 111.223 141.32C113.491 137.926 114.701 133.936 114.7 129.854C114.694 124.383 112.518 119.138 108.65 115.269C104.781 111.401 99.5361 109.225 94.0652 109.219Z" fill="#212529"/>
<path d="M132.209 107.473C133.91 107.473 135.289 106.094 135.289 104.393C135.289 102.692 133.91 101.313 132.209 101.313C130.508 101.313 129.129 102.692 129.129 104.393C129.129 106.094 130.508 107.473 132.209 107.473Z" fill="#9747FF"/>
<path d="M203.165 121.434H130.689C130.473 121.435 130.259 121.392 130.06 121.31C129.86 121.228 129.679 121.107 129.526 120.954C129.373 120.802 129.252 120.62 129.17 120.421C129.087 120.222 129.044 120.008 129.044 119.792C129.044 119.576 129.087 119.362 129.17 119.163C129.252 118.964 129.373 118.782 129.526 118.63C129.679 118.477 129.86 118.356 130.06 118.274C130.259 118.191 130.473 118.149 130.689 118.149H203.165C203.601 118.149 204.019 118.322 204.327 118.63C204.635 118.939 204.808 119.356 204.808 119.792C204.808 120.228 204.635 120.645 204.327 120.953C204.019 121.261 203.601 121.434 203.165 121.434Z" fill="white"/>
<path d="M179.554 114.454H130.689C130.473 114.454 130.259 114.412 130.06 114.33C129.86 114.247 129.679 114.126 129.526 113.974C129.373 113.821 129.252 113.64 129.17 113.44C129.087 113.241 129.044 113.027 129.044 112.811C129.044 112.596 129.087 112.382 129.17 112.182C129.252 111.983 129.373 111.802 129.526 111.649C129.679 111.497 129.86 111.376 130.06 111.293C130.259 111.211 130.473 111.169 130.689 111.169H179.554C179.989 111.169 180.406 111.343 180.714 111.651C181.022 111.959 181.194 112.376 181.194 112.811C181.194 113.247 181.022 113.664 180.714 113.972C180.406 114.28 179.989 114.453 179.554 114.454Z" fill="white"/>
<path d="M130.058 142.659C133.232 142.659 135.804 142.374 135.804 142.022C135.804 141.669 133.232 141.384 130.058 141.384C126.885 141.384 124.312 141.669 124.312 142.022C124.312 142.374 126.885 142.659 130.058 142.659Z" fill="#ADB5BD"/>
<path d="M78.7054 67.6231C81.8788 67.6231 84.4513 67.3376 84.4513 66.9854C84.4513 66.6332 81.8788 66.3477 78.7054 66.3477C75.532 66.3477 72.9595 66.6332 72.9595 66.9854C72.9595 67.3376 75.532 67.6231 78.7054 67.6231Z" fill="#ADB5BD"/>
</g>
<defs>
<clipPath id="clip0_307_2162">
<rect width="209" height="174.741" fill="white"/>
</clipPath>
</defs>
</svg>
