<svg width="268" height="176" viewBox="0 0 268 176" fill="none" xmlns="http://www.w3.org/2000/svg">
<path fill-rule="evenodd" clip-rule="evenodd" d="M258.757 117.471C254.647 127.178 247.519 128.867 239.972 136.612C232.424 144.357 209.757 139.925 201.959 144.433C180.816 156.654 180.151 170.478 144.459 172.269C131.624 172.913 120.367 171.453 108.892 169.966C96.8627 168.407 82.603 173.172 66.3269 163.188C26.6227 138.832 1.92287 98.7867 0.997297 77.7348C0.269453 61.1797 12.1327 49.7699 20.1216 42.1864C37.103 26.0662 58.9648 30.4975 79.4448 24.7962C108.342 16.7513 126.866 -0.252137 147.567 0.778733C176.791 0.0142633 195.022 23.6682 218.025 24.7962C234.38 25.5981 289.172 45.6215 258.757 117.471Z" fill="#9747FF"/>
<path fill-rule="evenodd" clip-rule="evenodd" d="M82.2599 159.215C82.8318 160.555 82.8776 162.588 81.473 162.978C79.6196 162.065 78.2987 160.151 78.1037 158.094C70.502 158.426 62.9004 158.757 55.2991 159.089C52.4737 159.212 48.9864 159.814 48.1453 162.514C47.817 160.387 45.0073 159.898 42.8548 159.926C36.4222 160.013 29.9895 160.099 23.5568 160.186C23.4587 157.249 23.3606 154.313 23.2626 151.376C23.2435 150.807 23.2302 150.211 23.4854 149.702C24.1706 148.336 26.1383 148.481 27.6258 148.832C27.1475 144.051 26.6696 139.27 26.1912 134.489C23.9734 134.997 24.6869 129.31 22.4544 129.749C21.1029 130.015 19.8288 128.774 19.5404 127.427C19.252 126.08 19.6727 124.694 20.089 123.381C21.3436 122.998 23.1418 123.377 24.4133 122.998C25.6849 122.619 26.4596 121.886 26.4154 120.56C25.4931 93.0202 23.5015 65.5171 20.447 38.132C18.497 38.971 16.1749 37.4571 15.3904 35.4845C14.6059 33.512 14.9419 31.2904 15.3523 29.2078C15.4964 28.4768 15.6733 27.7001 16.2101 27.1835C16.8943 26.5248 17.946 26.4838 18.8957 26.4814C48.6971 26.4135 78.4984 26.3456 108.3 26.2781C108.949 26.2766 109.665 26.2991 110.145 26.7367C110.584 27.1365 110.7 27.7716 110.791 28.358C111.145 30.64 111.493 33.0187 110.796 35.2201C110.099 37.422 108.017 39.3696 105.724 39.1005C106.978 66.2796 108.233 93.4587 109.487 120.638C111.532 120.191 113.923 120.948 114.943 122.775C115.963 124.603 115.032 127.365 112.99 127.822C114.293 128.905 113.664 131.211 112.231 132.114C110.797 133.017 108.973 132.925 107.286 132.771C105.598 132.617 103.797 132.452 102.301 133.247C102.654 136.522 102.61 139.84 102.17 143.105C103.622 142.239 105.586 142.33 106.951 143.325C107.899 144.016 108.761 142.335 108.752 141.161C108.731 138.429 108.71 135.697 108.689 132.965C110.169 136.359 110.581 140.209 109.852 143.839C111.676 143.982 113.501 144.124 115.325 144.266C115.874 144.309 116.468 144.371 116.87 144.746C117.27 145.12 117.374 145.705 117.444 146.249C117.893 149.756 117.826 153.328 117.246 156.816C105.425 155.996 94.2085 156.258 82.4585 157.787C82.1636 157.787 81.6881 157.873 82.2599 159.215Z" fill="white"/>
<path d="M68.0052 98.9979C68.1069 99.037 68.3161 98.7387 68.4723 98.3317C68.6285 97.9247 68.6727 97.5631 68.5709 97.5241C68.4692 97.485 68.2601 97.7833 68.1038 98.1903C67.9476 98.5973 67.9035 98.9588 68.0052 98.9979Z" fill="#333333"/>
<path fill-rule="evenodd" clip-rule="evenodd" d="M160.654 102.295C160.654 102.295 158.996 64.6264 159.957 45.8099C160.062 43.7556 160.177 41.6501 159.569 39.6851C158.961 37.72 157.461 35.8927 155.439 35.5118C155.041 31.9871 155.095 28.411 155.598 24.8997C184.732 25.0512 213.867 25.2028 243.002 25.3543C243.107 27.5712 243.213 29.788 243.318 32.0048C243.417 34.1037 242.586 37.0755 240.527 36.6576C239.69 36.4875 239.289 37.6419 239.245 38.4943C238.883 45.4977 238.522 52.5007 238.16 59.504C237.087 80.3172 236.012 101.161 236.733 121.989C238.595 122.082 240.457 122.175 242.319 122.268C242.813 123.437 243.317 124.681 243.133 125.937C242.949 127.193 241.783 128.396 240.542 128.13C241.624 130.652 238.738 133.814 236.128 132.966C236.337 135.982 236.547 138.998 236.756 142.013C236.796 142.582 236.854 143.198 237.24 143.618C238.445 144.927 241.025 142.906 242.297 144.15C242.469 147.116 242.641 150.082 242.814 153.048C242.861 153.857 242.866 154.778 242.278 155.335C241.883 155.71 241.315 155.82 240.779 155.911C230.327 157.678 219.615 157.887 209.102 156.528C209.667 159.231 210.104 162.424 208.192 164.417C206.783 165.887 206.932 167.996 207.567 167.001C207.444 168.292 206.243 169.389 204.945 169.395C203.831 169.513 204.053 167.652 204.813 166.829C206.481 165.023 208.639 163.408 209.17 161.006C209.701 158.606 203.889 159.83 204.053 161.3C203.002 160.113 203.139 158.07 204.339 157.036C201.209 157.75 197.96 157.946 194.767 157.613C198.801 157.001 202.835 156.39 206.868 155.779C205.72 152.6 192.629 161.015 192.339 167.341C191.712 163.7 192.174 159.879 193.653 156.493C193.297 155.929 192.836 155.431 192.301 155.032C195.979 153.592 188.593 161.487 187.393 158.487C183.351 158.948 179.308 159.408 175.266 159.868C175.412 160.609 175.794 161.301 176.342 161.819C173.945 162.166 171.538 159.882 171.759 157.47C170.58 159.597 172.399 162.132 174.272 163.684C176.144 165.235 178.415 166.978 178.335 169.408C176.474 170.061 174.187 168.734 173.829 166.794C174.505 168.054 173.735 165.295 172.918 165.554C171.402 166.033 170.294 170.272 171.023 168.863C170.943 170.758 169.109 172.396 167.217 172.262C165.876 169.629 168.091 165.948 171.046 165.899C172.264 165.88 172.986 164.353 172.665 163.178C172.345 162.003 171.362 161.146 170.428 160.364C169.799 161.185 168.988 161.865 168.07 162.34C168.04 160.954 168.312 159.563 168.862 158.291C167.62 159.701 166.92 161.577 166.933 163.457C166.3 161.908 166.356 160.091 167.085 158.584C163.41 159.209 159.679 159.503 155.951 159.459C155.337 155.202 154.723 150.944 154.109 146.687C156.414 146.063 158.802 145.747 161.191 145.75C159.994 138.588 161.191 138.389 159.704 135.165C159.502 134.727 158.785 135.564 158.296 134.577C157.808 133.59 157.59 131.02 157.59 131.02C157.59 131.02 155.597 130.729 155.439 130.192C154.823 128.087 154.13 126.206 155.629 125.074C157.228 123.866 159.731 124.9 161.406 123.802C161.054 122.411 161.535 117.551 160.388 114.53C159.486 112.153 157.606 113.217 155.605 111.497C154.306 110.381 152.89 109.245 152.324 107.629C151.757 106.014 152.53 103.801 154.225 103.565C155.883 103.335 157.137 104.975 157.985 106.419C157.603 105.145 158.623 103.651 159.948 103.541C161.588 108.712 160.654 102.295 160.654 102.295Z" fill="white"/>
<path d="M189.253 93.1307C189.471 93.1307 189.648 92.7773 189.648 92.3413C189.648 91.9054 189.471 91.552 189.253 91.552C189.035 91.552 188.858 91.9054 188.858 92.3413C188.858 92.7773 189.035 93.1307 189.253 93.1307Z" fill="#333333"/>
<path fill-rule="evenodd" clip-rule="evenodd" d="M47.005 49.0493C47.1767 49.1835 47.2067 49.4317 47.0721 49.603L41.8905 56.2184C41.7559 56.3897 41.5081 56.4201 41.3364 56.2855C41.1647 56.1513 41.1347 55.903 41.2689 55.7314L46.4509 49.1164C46.5855 48.9447 46.8333 48.9147 47.005 49.0493Z" fill="#333333"/>
<path fill-rule="evenodd" clip-rule="evenodd" d="M53.7539 50.9431C53.9201 51.0844 53.9398 51.3339 53.7985 51.4996L46.8634 59.6369C46.7221 59.8026 46.4731 59.8223 46.3069 59.6811C46.1412 59.5398 46.1215 59.2907 46.2627 59.1246L53.1978 50.9877C53.3391 50.8216 53.5882 50.8018 53.7539 50.9431Z" fill="#333333"/>
<path fill-rule="evenodd" clip-rule="evenodd" d="M64.7558 51.4805C64.9283 51.6139 64.9599 51.8618 64.8261 52.0342L59.122 59.4019C58.9886 59.5743 58.7403 59.6059 58.5683 59.4725C58.3958 59.3391 58.3642 59.0909 58.4976 58.9188L64.2021 51.5512C64.3355 51.3787 64.5834 51.3471 64.7558 51.4805Z" fill="#333333"/>
<path fill-rule="evenodd" clip-rule="evenodd" d="M80.1534 50.8852C80.3298 51.0127 80.3697 51.2593 80.2422 51.4361L75.597 57.8708C75.4695 58.0476 75.2228 58.0875 75.046 57.96C74.8692 57.8325 74.8294 57.5858 74.9572 57.409L79.6025 50.974C79.7299 50.7976 79.9766 50.7577 80.1534 50.8852Z" fill="#333333"/>
<path fill-rule="evenodd" clip-rule="evenodd" d="M185.681 49.7348C185.836 49.8883 185.837 50.1381 185.683 50.2928L180.243 55.7783C180.09 55.933 179.84 55.9342 179.685 55.7807C179.53 55.6271 179.529 55.3773 179.683 55.2226L185.123 49.7371C185.276 49.5824 185.526 49.5812 185.681 49.7348Z" fill="#333333"/>
<path fill-rule="evenodd" clip-rule="evenodd" d="M193.207 51.2614C193.358 51.4184 193.353 51.6683 193.197 51.8194L186.049 58.6985C185.892 58.8496 185.642 58.8449 185.491 58.6878C185.34 58.5307 185.344 58.2809 185.501 58.1298L192.649 51.2507C192.806 51.0996 193.056 51.1043 193.207 51.2614Z" fill="#333333"/>
<path fill-rule="evenodd" clip-rule="evenodd" d="M210.377 54.7124C210.528 54.8702 210.522 55.1201 210.364 55.2704L205.652 59.7775C205.495 59.9283 205.245 59.9228 205.094 59.7649C204.943 59.6074 204.949 59.3576 205.107 59.2072L209.819 54.7001C209.976 54.5494 210.226 54.5549 210.377 54.7124Z" fill="#333333"/>
<path fill-rule="evenodd" clip-rule="evenodd" d="M219.341 55.0297C219.489 55.1891 219.48 55.4389 219.321 55.5873L214.434 60.1292C214.275 60.2776 214.025 60.2685 213.877 60.109C213.728 59.9492 213.737 59.6994 213.897 59.551L218.783 55.0092C218.943 54.8608 219.192 54.8698 219.341 55.0297Z" fill="#333333"/>
<path fill-rule="evenodd" clip-rule="evenodd" d="M133.314 83.9394C133.157 82.5557 133.089 81.1617 133.111 79.7694C132.236 79.4264 131.262 79.4824 130.323 79.544C126.74 79.7784 123.157 80.0125 119.573 80.2469C118.981 80.2856 118.376 80.3235 117.803 80.1699C117.218 80.0129 116.548 79.675 116.063 80.0385C115.643 80.3539 115.677 80.9834 115.754 81.5031C115.898 82.4811 116.042 83.4587 116.187 84.4367C116.211 84.6028 116.244 84.7844 116.373 84.8925C116.492 84.992 116.659 85.0011 116.814 85.005C121.842 85.1384 126.874 85.0922 131.898 84.8665C132.534 84.8381 133.386 84.5725 133.314 83.9394Z" fill="white"/>
<path fill-rule="evenodd" clip-rule="evenodd" d="M150.51 60.5143C150.621 60.079 150.214 59.652 149.774 59.5584C149.335 59.4645 148.883 59.6014 148.447 59.7108C146.709 60.1477 141.882 60.1457 141.227 60.15C139.309 60.1634 137.391 60.1765 135.473 60.1899C135.019 60.1931 134.634 60.5668 134.473 60.9918C134.311 61.4165 134.326 61.885 134.343 62.3392C134.361 62.8081 134.378 63.2774 134.395 63.7462C134.406 64.026 134.442 64.3528 134.683 64.4969C134.786 64.5592 134.911 64.5738 135.031 64.5865C136.891 64.7826 138.765 64.8347 140.632 64.7428C143.936 64.5798 147.24 63.9661 150.53 64.3055C150.201 63.071 150.194 61.7524 150.51 60.5143Z" fill="white"/>
<path fill-rule="evenodd" clip-rule="evenodd" d="M209.936 158.248C209.976 157.976 210.197 157.763 210.442 157.641C211.111 157.308 211.956 157.54 212.52 158.029C213.084 158.519 213.419 159.218 213.686 159.916C213.781 160.164 213.86 160.473 213.685 160.673C213.619 160.748 213.526 160.794 213.434 160.833C212.662 161.159 211.737 161.123 211.01 160.704C210.283 160.286 209.782 159.486 209.757 158.648C210.072 158.69 210.227 159.038 210.39 159.311C210.952 160.245 212.301 160.597 213.248 160.058C212.351 159.15 211.184 158.512 209.936 158.248Z" fill="#333333"/>
<path fill-rule="evenodd" clip-rule="evenodd" d="M205.315 150.261C205.587 149.923 205.86 149.585 206.132 149.247C205.952 150.765 204.704 152.093 203.202 152.369C202.738 152.012 201.952 152.25 201.762 152.803C201.483 152.86 201.202 152.641 201.11 152.371C201.018 152.101 201.077 151.802 201.181 151.536C201.338 151.136 201.591 150.782 201.841 150.433C202.686 149.255 203.663 147.987 205.083 147.696C205.45 147.621 205.864 147.628 206.16 147.858C206.456 148.088 206.538 148.6 206.242 148.83C205.9 148.37 205.21 148.295 204.675 148.501C204.141 148.708 203.724 149.132 203.325 149.544C202.939 149.943 202.552 150.342 202.166 150.741C201.954 150.961 201.76 151.366 202.025 151.516C202.329 150.865 203.245 150.812 203.775 150.329C204.235 149.91 204.543 149.107 205.156 149.212C204.836 149.949 204.255 150.569 203.541 150.936C203.234 151.094 202.878 151.231 202.725 151.54C203.198 151.756 203.772 151.634 204.212 151.357C204.653 151.079 204.988 150.666 205.315 150.261Z" fill="#333333"/>
<path fill-rule="evenodd" clip-rule="evenodd" d="M192.472 148.697C193.221 148.829 194.033 148.41 194.358 147.723C194.684 147.036 194.494 146.142 193.917 145.646C194.083 145.443 194.405 145.417 194.638 145.54C194.871 145.663 195.023 145.901 195.111 146.149C195.391 146.943 195.078 147.851 194.532 148.492C193.986 149.134 193.238 149.563 192.506 149.98C192.167 150.173 191.812 150.371 191.422 150.395C191.033 150.419 190.599 150.213 190.497 149.836C190.464 149.713 190.471 149.572 190.548 149.47C190.927 148.973 191.821 150.153 192.229 149.679C192.131 149.3 192.033 148.921 191.935 148.542C192.111 148.603 192.288 148.665 192.472 148.697Z" fill="#333333"/>
<path fill-rule="evenodd" clip-rule="evenodd" d="M185.609 147.532C184.774 147.43 184.179 146.527 184.271 145.691C184.362 144.855 185.018 144.151 185.798 143.835C186.036 143.738 186.335 143.682 186.532 143.847C186.729 144.014 186.593 144.444 186.347 144.368C185.745 144.181 185.169 144.787 185.002 145.395C184.896 145.782 184.89 146.22 185.104 146.559C185.318 146.898 185.801 147.081 186.144 146.873C186.391 146.722 186.642 147.07 186.701 147.354C186.76 147.637 186.89 148.011 187.177 147.977C187.649 147.742 187.826 147.175 188.095 146.721C188.364 146.268 188.973 145.873 189.388 146.2C189.441 146.241 189.489 146.299 189.492 146.367C189.495 146.441 189.445 146.505 189.398 146.561C188.936 147.107 188.426 147.611 187.876 148.067C187.508 148.372 186.998 148.667 186.581 148.431C186.187 148.208 186.058 147.586 185.609 147.532Z" fill="#333333"/>
<path fill-rule="evenodd" clip-rule="evenodd" d="M189.629 156.088C189.221 155.726 188.805 155.353 188.538 154.876C188.271 154.4 188.177 153.79 188.435 153.309C188.506 153.177 188.615 153.049 188.763 153.026C188.91 153.002 189.08 153.139 189.037 153.282C188.849 153.909 189.123 154.645 189.675 154.997C189.888 155.132 190.175 155.387 189.996 155.565C189.782 155.778 190.171 156.066 190.468 156.115C191.04 156.208 191.611 156.301 192.182 156.395C192.071 156.866 191.49 157.094 191.017 156.993C190.543 156.892 190.159 156.559 189.797 156.238C189.741 156.188 189.685 156.138 189.629 156.088Z" fill="#333333"/>
<path fill-rule="evenodd" clip-rule="evenodd" d="M168.587 170.408C168.643 170.058 168.7 169.708 168.757 169.357C168.789 169.156 168.824 168.951 168.92 168.772C169.036 168.558 169.23 168.399 169.42 168.247C169.94 167.829 170.46 167.41 170.981 166.992C171.391 167.305 171.473 167.966 171.152 168.369C171.126 167.998 170.885 167.649 170.547 167.494C170.169 168.617 169.484 169.635 168.587 170.408Z" fill="#333333"/>
<path fill-rule="evenodd" clip-rule="evenodd" d="M208.735 165.271C208.927 166.302 209.322 167.295 209.89 168.175C210.337 168.87 209.927 169.777 209.518 170.494C209.333 170.566 209.159 170.326 209.19 170.13C209.22 169.934 209.363 169.779 209.456 169.603C209.819 168.916 209.368 168.1 208.968 167.433C208.568 166.767 208.224 165.858 208.735 165.271Z" fill="#333333"/>
<path fill-rule="evenodd" clip-rule="evenodd" d="M134.247 84.8451C134.239 85.0843 134.228 85.3353 134.102 85.5393C133.875 85.9111 133.375 85.9837 132.94 86.0161C127.076 86.4557 121.183 86.5189 115.311 86.2055C115.238 86.2016 115.163 86.1972 115.097 86.1652C114.935 86.0863 114.892 85.8803 114.867 85.7019C114.704 84.5088 114.54 83.3158 114.377 82.1227C114.26 81.2694 114.161 80.3301 114.634 79.6106C115.277 78.6319 116.641 78.5154 117.812 78.4992C123.133 78.4246 128.454 78.35 133.775 78.2755C133.999 78.2723 134.264 78.2901 134.383 78.4803C134.451 78.59 134.449 78.7285 134.445 78.858C134.379 80.8538 134.313 82.8493 134.247 84.8451ZM133.314 83.9389C133.156 82.5552 133.089 81.1613 133.111 79.7689C132.235 79.4259 131.261 79.482 130.323 79.5435C126.74 79.778 123.156 80.012 119.573 80.2464C118.981 80.2851 118.376 80.323 117.803 80.1695C117.217 80.0124 116.548 79.6746 116.063 80.038C115.642 80.3534 115.677 80.9829 115.754 81.5026C115.898 82.4806 116.042 83.4582 116.187 84.4362C116.211 84.6024 116.244 84.7839 116.372 84.892C116.491 84.9915 116.659 85.0006 116.814 85.0045C121.841 85.1379 126.873 85.0917 131.897 84.866C132.534 84.8376 133.386 84.572 133.314 83.9389Z" fill="#333333"/>
<path fill-rule="evenodd" clip-rule="evenodd" d="M204.432 160.141C204.7 159.197 205.174 158.312 205.813 157.566C205.802 158.579 205.269 159.572 204.432 160.141Z" fill="#333333"/>
<path fill-rule="evenodd" clip-rule="evenodd" d="M206.835 165.851C206.66 166.391 206.39 166.9 206.042 167.347C205.893 167.538 205.704 167.731 205.462 167.743C205.776 167.013 206.136 166.23 206.835 165.851Z" fill="#333333"/>
<path fill-rule="evenodd" clip-rule="evenodd" d="M211.136 168.742C211.523 169.013 211.911 169.285 212.299 169.556C212.385 169.617 212.482 169.725 212.42 169.811C211.831 169.755 211.298 169.311 211.136 168.742Z" fill="#333333"/>
<path fill-rule="evenodd" clip-rule="evenodd" d="M211.846 168.59C211.445 168.713 211.106 168.056 211.437 167.8C211.662 168.018 211.828 168.297 211.912 168.599L211.846 168.59Z" fill="#333333"/>
<path fill-rule="evenodd" clip-rule="evenodd" d="M206.749 157.292C207.041 157.662 207.05 158.195 206.893 158.64C206.735 159.084 206.434 159.461 206.138 159.829C205.862 160.172 205.512 160.549 205.073 160.515C204.998 160.217 205.275 159.959 205.501 159.75C206.19 159.112 206.64 158.224 206.749 157.292Z" fill="#333333"/>
<path fill-rule="evenodd" clip-rule="evenodd" d="M210.011 166.98C210.501 166.534 211.236 166.376 211.866 166.581C212.496 166.787 212.997 167.348 213.129 167.998C213.226 168.474 213.275 169.14 213.758 169.188C213.845 169.499 213.291 169.617 213.09 169.363C212.889 169.11 212.926 168.752 212.876 168.432C212.741 167.579 211.818 166.937 210.971 167.107C210.625 167.177 210.154 167.302 210.011 166.98Z" fill="#333333"/>
<path fill-rule="evenodd" clip-rule="evenodd" d="M173.505 172.457C173.271 171.705 173.809 170.84 173.478 170.125C173.369 169.89 173.179 169.705 173.012 169.507C172.461 168.852 172.149 168.001 172.147 167.145C172.146 166.884 172.264 166.541 172.523 166.567C172.865 166.6 172.777 167.109 172.755 167.451C172.712 168.1 173.277 168.601 173.633 169.145C174.163 169.956 174.244 171.042 173.84 171.922C173.691 172.247 173.986 172.584 174.191 172.876C174.724 173.635 174.68 174.75 174.088 175.465C173.866 175.315 173.856 174.988 173.938 174.733C174.019 174.478 174.168 174.24 174.183 173.972C174.215 173.412 173.672 172.993 173.505 172.457Z" fill="#333333"/>
<path fill-rule="evenodd" clip-rule="evenodd" d="M185.022 93.2615C185.329 92.9229 185.853 93.2919 186.281 93.4525C187.11 93.7631 188.025 93.1648 188.901 93.2911C188.413 94.2979 187.034 94.4159 185.924 94.2722C185.647 94.2359 185.354 94.1858 185.14 94.0051C184.926 93.8247 184.834 93.4695 185.022 93.2615Z" fill="#333333"/>
<path fill-rule="evenodd" clip-rule="evenodd" d="M187.179 90.0543C187.016 89.8471 187.041 89.5543 187.074 89.293C187.097 89.1072 187.121 88.9213 187.144 88.7354C187.199 88.2981 187.379 87.7416 187.82 87.7381C188.281 87.7345 188.456 88.3352 188.466 88.7958C188.474 89.1948 188.453 89.6246 188.211 89.9419C187.968 90.2592 187.426 90.3681 187.179 90.0543Z" fill="#333333"/>
<path fill-rule="evenodd" clip-rule="evenodd" d="M184.411 87.973C184.627 88.0227 184.677 88.3041 184.681 88.5259C184.696 89.2623 184.544 90.219 183.82 90.3548C183.466 89.6862 183.532 88.8168 183.984 88.2098C184.087 88.0712 184.243 87.9343 184.411 87.973Z" fill="#333333"/>
<path fill-rule="evenodd" clip-rule="evenodd" d="M185.841 88.9382C185.896 89.0329 185.859 89.1513 185.828 89.2563C185.52 90.286 185.861 91.4799 186.666 92.1922C186.064 92.5723 185.224 92.0474 185.016 91.367C184.808 90.6866 185.03 89.9572 185.251 89.2808C185.341 89.0045 185.697 88.686 185.841 88.9382Z" fill="#333333"/>
<path fill-rule="evenodd" clip-rule="evenodd" d="M151.616 65.376C150.56 65.4435 149.504 65.5106 148.448 65.5777C143.877 65.8689 139.307 66.1598 134.737 66.4507C134.092 66.4917 133.225 66.3607 133.15 65.719C132.919 63.7298 132.961 61.7091 133.275 59.7315C133.407 58.9074 134.474 58.6872 135.308 58.6596C140.357 58.493 145.405 58.3269 150.453 58.1603C151.075 58.1398 151.626 58.6173 151.886 59.1817C152.147 59.7461 152.178 60.3858 152.204 61.007C152.254 62.1954 152.305 63.3841 152.355 64.5725C152.364 64.7793 152.366 65.0074 152.232 65.1652C152.088 65.3353 151.839 65.3618 151.616 65.376ZM150.51 60.5153C150.621 60.08 150.213 59.6533 149.774 59.5594C149.334 59.4655 148.883 59.6024 148.447 59.7121C146.709 60.1486 141.882 60.1467 141.227 60.1514C139.309 60.1644 137.391 60.1778 135.473 60.1909C135.019 60.194 134.634 60.5682 134.473 60.9928C134.311 61.4175 134.326 61.886 134.343 62.3402C134.36 62.8095 134.378 63.2783 134.395 63.7476C134.405 64.0274 134.442 64.3542 134.682 64.4979C134.786 64.5602 134.911 64.5748 135.031 64.5875C136.891 64.7836 138.765 64.8361 140.632 64.7437C143.935 64.5807 147.24 63.967 150.53 64.3068C150.201 63.0723 150.194 61.7534 150.51 60.5153Z" fill="#333333"/>
<path fill-rule="evenodd" clip-rule="evenodd" d="M75.1283 146.203C74.9132 146.273 74.5899 146.284 74.5513 146.061C74.8781 145.671 75.5537 145.653 75.9006 146.025C75.7159 146.226 75.4077 146.304 75.1496 146.214L75.1283 146.203Z" fill="#333333"/>
<path fill-rule="evenodd" clip-rule="evenodd" d="M189.247 86.6466C189.54 86.9603 189.81 87.312 189.933 87.7232C190.014 87.9959 189.625 88.2086 189.362 88.1001C189.099 87.9916 188.951 87.7189 188.794 87.4809C188.637 87.2433 188.406 87.0018 188.122 87.0223C187.834 87.0428 187.646 86.6493 187.788 86.3979C187.93 86.1461 188.274 86.0672 188.551 86.1489C188.828 86.2306 189.05 86.4358 189.247 86.6466Z" fill="#333333"/>
<path fill-rule="evenodd" clip-rule="evenodd" d="M87.1287 138.746C86.783 137.087 86.3994 135.419 85.6768 133.887C84.9537 132.354 83.8585 130.949 82.3738 130.132C81.5916 129.702 80.7272 129.447 79.9036 129.103C78.8956 128.682 77.9445 128.124 77.0845 127.449C77.8521 127.016 78.8032 127.423 79.5855 127.828C81.4096 128.773 83.2756 129.75 84.6514 131.275C86.4827 133.305 87.2365 136.068 87.7807 138.747C87.5834 138.861 87.3257 138.86 87.1287 138.746Z" fill="#333333"/>
<path fill-rule="evenodd" clip-rule="evenodd" d="M78.577 153.068C78.5805 152.936 78.6101 152.779 78.7313 152.726C79.1169 152.558 79.2467 153.645 79.5944 153.408C79.9986 153.133 80.5693 153.735 80.3585 154.177C80.1478 154.618 79.4824 154.681 79.094 154.383C78.7056 154.086 78.564 153.557 78.577 153.068Z" fill="#333333"/>
<path fill-rule="evenodd" clip-rule="evenodd" d="M77.288 148.268C76.8531 147.541 77.0094 146.604 77.3192 145.815C77.5059 145.339 77.7916 144.84 78.2794 144.687C78.7676 144.535 79.4086 145.006 79.2156 145.479C78.7601 145.625 78.2857 145.799 77.9759 146.163C77.6657 146.528 77.5986 147.142 77.959 147.457C78.1381 147.614 78.1022 147.9 78.0229 148.124C77.9432 148.348 77.8339 148.589 77.914 148.814C77.9937 149.037 78.3864 149.111 78.4424 148.879C78.5044 148.625 78.8987 148.636 79.0853 148.819C79.2716 149.003 79.3458 149.274 79.5183 149.471C79.6904 149.668 80.0637 149.74 80.1805 149.506C80.2918 149.283 80.6549 149.298 80.8061 149.495C80.9572 149.694 80.9265 149.983 80.8065 150.202C80.5456 150.677 79.8774 150.872 79.4011 150.614C79.1213 150.462 78.9283 150.193 78.6911 149.98C78.4539 149.767 78.1153 149.605 77.8224 149.731C77.543 149.851 77.2991 149.468 77.3129 149.164C77.3267 148.86 77.4439 148.529 77.288 148.268Z" fill="#333333"/>
<path fill-rule="evenodd" clip-rule="evenodd" d="M67.0555 98.4627C67.6203 97.9741 67.8216 97.109 67.5299 96.4214C67.4214 96.1645 67.3156 95.7627 67.5864 95.696C68.4108 96.4171 68.4807 97.8379 67.7312 98.6367C67.601 98.7756 67.4265 98.9035 67.2375 98.8782C67.0488 98.853 66.9115 98.5874 67.0555 98.4627Z" fill="#333333"/>
<path fill-rule="evenodd" clip-rule="evenodd" d="M65.7477 94.1099C66.1688 94.1213 66.4858 94.546 66.5221 94.9655C66.558 95.385 66.3851 95.7923 66.2008 96.1708C66.0867 96.4052 65.8965 96.6748 65.64 96.631C65.4462 96.5978 65.3337 96.3993 65.2501 96.2217C65.0646 95.8267 64.885 95.4044 64.9264 94.9698C64.9679 94.5353 65.3112 94.098 65.7477 94.1099Z" fill="#333333"/>
<path fill-rule="evenodd" clip-rule="evenodd" d="M68.7029 96.0845C68.3418 96.1832 68.1417 95.6713 68.1528 95.2972C68.1626 94.966 68.21 94.6195 68.4038 94.3507C68.5972 94.0816 69.0798 93.7587 69.2642 94.2039C69.4481 94.6491 69.3384 95.3232 68.9954 95.8327C68.922 95.942 68.8296 96.0502 68.7029 96.0845Z" fill="#333333"/>
<path fill-rule="evenodd" clip-rule="evenodd" d="M64.5527 98.6979C64.6763 98.6746 64.8002 98.6513 64.9241 98.6284C64.9612 99.0412 65.3622 99.3207 65.7478 99.4722C66.1338 99.6238 66.5636 99.7205 66.8536 100.017C66.9586 100.124 67.0305 100.32 66.9085 100.408C66.8552 100.446 66.7838 100.445 66.7179 100.44C65.7056 100.374 64.6048 99.711 64.5527 98.6979Z" fill="#333333"/>
<path fill-rule="evenodd" clip-rule="evenodd" d="M64.4192 93.5211C64.1433 93.4588 64.1358 93.0167 64.3628 92.8482C64.5897 92.6801 64.907 92.7184 65.1785 92.7969C65.7768 92.9709 66.3274 93.3064 66.756 93.7591C66.0117 94.091 65.0814 93.0459 64.4192 93.5211Z" fill="#333333"/>
<path fill-rule="evenodd" clip-rule="evenodd" d="M47.1514 147.903C47.8689 148.239 48.83 147.561 48.7542 146.772C49.2159 147.172 49.7258 147.735 49.5183 148.31C49.4409 148.525 49.2716 148.693 49.0916 148.833C48.4609 149.322 47.6609 149.539 46.872 149.662C46.0456 149.792 45.1181 149.806 44.4673 149.281C43.8248 148.762 43.6484 147.75 44.0774 147.044C44.1831 146.87 44.3327 146.706 44.5301 146.658C44.963 146.551 45.3269 147.057 45.3218 147.503C45.3166 147.949 45.0936 148.362 45.0194 148.802C45.006 148.88 44.9977 148.961 45.0171 149.039C45.098 149.359 45.5901 149.371 45.8344 149.148C46.0787 148.924 46.1691 148.583 46.338 148.298C46.5069 148.013 46.8515 147.763 47.1514 147.903ZM47.1656 149.281C47.3054 149.151 47.4451 149.02 47.5848 148.89C47.5319 148.722 47.3069 148.637 47.1566 148.728C47.0062 148.818 46.977 149.057 47.1005 149.182L47.1656 149.281Z" fill="#333333"/>
<path fill-rule="evenodd" clip-rule="evenodd" d="M43.8547 152.616C44.0224 153.09 44.6783 153.211 45.1365 153.006C45.2261 152.965 45.3173 152.911 45.3579 152.821C45.4767 152.562 45.0979 152.3 45.1519 152.02C45.1977 151.783 45.5123 151.716 45.7483 151.765C45.9843 151.815 46.2274 151.926 46.4563 151.851C46.7219 151.764 46.8478 151.465 46.9145 151.193C46.9808 150.922 47.0333 150.621 47.2448 150.438C47.4568 150.256 47.8842 150.334 47.8929 150.614C47.9102 151.155 47.4974 151.611 47.0653 151.937C46.6331 152.263 46.1386 152.541 45.8548 153.002C45.5857 153.439 45.4294 154.088 44.9179 154.139C44.7541 154.155 44.5919 154.097 44.4435 154.026C43.3759 153.514 42.7405 152.231 42.9809 151.072C43.0874 150.558 43.6021 149.993 44.0512 150.265C44.4147 150.485 44.3421 151.035 44.1566 151.417C43.9715 151.799 43.713 152.216 43.8547 152.616Z" fill="#333333"/>
<path fill-rule="evenodd" clip-rule="evenodd" d="M72.4616 117.783C72.9486 124.559 77.4261 130.293 81.7122 135.563C82.9298 137.061 84.2274 138.618 86.0216 139.329C89.3995 140.666 93.5936 138.641 96.7147 140.501C80.3849 140.538 64.0568 141.433 47.8206 143.178C46.4235 143.329 44.9802 143.481 43.6367 143.068C42.2933 142.656 41.0655 141.52 41.0098 140.116C40.2963 122.17 39.5827 104.224 38.8696 86.2783C38.7373 82.954 38.6035 79.6159 37.9969 76.3445C37.2029 72.0632 37.1839 67.6808 37.1674 63.3265C37.146 57.6646 37.1247 52.0027 37.103 46.3412C55.5075 45.5444 73.9408 45.409 92.3552 45.9355C93.1106 47.0595 93.2633 48.4696 93.3896 49.8178C95.5267 72.641 96.1902 95.5735 96.8524 118.487C97.0509 125.353 97.2494 132.219 97.448 139.084C97.1074 138.971 96.7668 138.857 96.4262 138.744C95.6234 117.062 94.8207 95.3793 94.0179 73.6971C94.0025 73.2831 93.9603 72.8134 93.6339 72.5585C93.3841 72.3631 93.0403 72.356 92.723 72.3568C75.6529 72.4192 58.5832 72.4815 41.5134 72.5435C40.1901 72.5482 38.3308 73.2365 38.7602 74.4884C40.8338 80.5331 40.1025 87.1177 40.1274 93.5082C40.1412 97.0594 40.3961 100.605 40.6511 104.147C40.9625 108.467 41.2735 112.786 41.5845 117.106C42.3233 115.19 43.0621 113.272 43.8009 111.355C43.9722 110.911 44.1269 110.357 43.8108 110C41.4625 107.351 42.1986 102.618 45.2407 100.808C45.8248 100.46 46.4783 100.203 46.9567 99.7203C48.3029 98.3618 47.6663 95.9654 48.6593 94.3307C50.1329 91.9039 54.6858 91.8131 54.8441 88.9782C54.987 86.4176 57.3115 84.3523 59.8287 83.8618C62.3459 83.3716 64.9543 84.1696 67.2212 85.369C69.4341 86.5392 71.6281 88.4383 71.7232 90.9401C71.7607 91.9244 71.4615 92.8866 71.1659 93.8263C70.094 97.2299 68.8354 100.892 65.8754 102.885C69.6942 106.897 72.065 112.259 72.4616 117.783ZM69.6484 126.841C71.8459 131.168 76.0168 134.249 78.1614 138.602C78.2577 138.797 78.3575 139.004 78.5395 139.124C78.7463 139.26 79.0119 139.254 79.2597 139.247C81.1356 139.193 83.0182 139.385 84.8443 139.817C80.5211 136.068 77.2604 131.257 74.3023 126.358C73.2356 124.591 72.1727 122.715 72.0681 120.653C71.7627 114.641 69.5561 108.74 65.8423 104.003C64.4771 102.262 61.5392 102.598 59.9712 104.159C58.4028 105.721 57.9008 108.044 57.6723 110.245C57.5981 110.962 57.5476 111.705 57.7847 112.385C58.0223 113.065 58.6199 113.669 59.3393 113.694C60.0592 113.719 60.7597 112.963 60.5103 112.287C60.7657 112.835 61.0214 113.382 61.2771 113.93C60.2281 115.058 58.1932 114.691 57.2287 113.491C56.2637 112.29 56.182 110.587 56.5116 109.082C57.289 105.531 60.2542 102.557 63.8022 101.767C63.8441 101.075 62.8199 100.869 62.1892 101.158C61.5589 101.447 60.9579 101.979 60.2747 101.859C59.6503 101.749 59.2943 102.523 59.0725 103.117C57.8238 106.464 54.2513 108.193 51.3623 110.294C50.3772 111.01 49.4052 111.82 48.2228 112.112C47.0403 112.404 45.5655 111.971 45.144 110.828C41.5268 120.175 40.67 130.57 42.7085 140.382C42.8533 141.08 43.4951 141.588 44.1794 141.786C44.8638 141.983 45.5923 141.927 46.3023 141.87C56.8308 141.019 67.3598 140.167 77.8883 139.315C75.3806 134.483 70.6627 131.005 68.5138 126.003C68.0125 124.836 67.6589 123.6 67.0223 122.501C66.0585 120.837 64.487 119.557 63.7 117.802C62.75 119.109 61.7997 120.416 60.8493 121.723C60.6358 122.017 60.7345 122.425 60.8418 122.773C61.0802 123.543 61.3292 124.333 61.8364 124.96C62.3435 125.586 63.1767 126.018 63.9573 125.818C65.5494 125.409 67.3629 126.097 68.2841 127.458C66.3368 127.091 64.3895 126.724 62.4422 126.357C62.1604 126.303 61.8644 126.244 61.6458 126.058C61.4603 125.9 61.3537 125.671 61.2527 125.45C60.8904 124.654 60.5281 123.858 60.1658 123.062C59.85 122.369 59.5402 121.531 59.9432 120.883C60.2842 120.336 60.993 120.171 61.525 119.805C62.9924 118.795 62.8002 116.559 62.1316 114.909C61.4626 113.257 60.4606 111.557 60.847 109.818C61.6387 112.391 62.4485 115.003 63.9262 117.253C65.017 118.914 66.4489 120.34 67.4489 122.058C68.3326 123.575 68.8532 125.276 69.6484 126.841ZM38.3821 47.9866C38.4271 52.0074 38.4721 56.0283 38.5171 60.0495C38.5274 60.9356 38.853 62.1338 39.7362 62.0639C57.1912 60.6767 74.725 60.2824 92.2245 60.8835C92.7092 60.9 93.1098 60.4545 93.2175 59.9816C93.3249 59.5088 93.2136 59.0171 93.1094 58.5435C92.3157 54.9343 91.9384 51.2335 91.987 47.5382C91.9949 46.9517 91.2138 46.754 90.6277 46.7433C73.4716 46.43 56.3083 46.5247 39.1569 47.0271C38.9884 47.0322 38.81 47.0401 38.6683 47.1313C38.4035 47.3014 38.3786 47.672 38.3821 47.9866ZM93.9603 70.6933C94.0262 67.6769 93.8431 64.6553 93.4137 61.6689C92.0087 62.1973 90.4679 62.3591 88.9839 62.1346C87.5122 61.912 86.018 61.8993 84.5293 61.8871C77.7075 61.8307 70.8845 61.7742 64.0631 61.8946C55.809 62.0406 47.5613 62.4452 39.3191 62.9144C39.0941 62.9274 38.851 62.9472 38.6805 63.0948C38.4587 63.2862 38.4402 63.6173 38.4402 63.9102C38.4374 66.247 38.538 68.5838 38.7405 70.9119C38.7527 71.0528 38.7689 71.2028 38.8585 71.3121C38.9998 71.4846 39.2575 71.487 39.4797 71.4751C55.7794 70.5962 72.1175 71.1634 88.4409 71.1784C90.2934 71.1803 92.1705 71.1716 93.9603 70.6933ZM55.9219 87.5325C55.4799 88.5997 55.4617 89.8402 54.8279 90.8059C53.5405 92.7682 50.3425 92.741 49.1384 94.7549C48.1636 96.3861 48.9083 98.7592 47.6284 100.164C46.9847 100.87 45.9929 101.123 45.1897 101.64C43.5061 102.722 42.8036 105.001 43.3206 106.935C43.8376 108.868 45.4155 110.415 47.2633 111.186C47.5917 111.323 47.9441 111.439 48.2974 111.396C48.696 111.347 49.0397 111.101 49.3637 110.864C51.5999 109.224 53.8357 107.585 56.0719 105.946C56.8952 105.342 57.75 104.702 58.1944 103.783C58.9478 102.226 58.404 100.121 59.5923 98.865C60.0509 98.38 60.7092 98.1069 61.1209 97.5816C61.5325 97.0563 61.482 96.0727 60.8292 95.9346C60.1176 95.7838 60.3051 94.6515 60.8703 94.1933C61.4354 93.7355 62.2382 93.4486 62.4509 92.7532C62.6514 92.0973 62.3499 91.1157 62.9987 90.8931C63.372 90.7653 63.7418 91.0561 64.0726 91.2712C65.5301 92.2216 67.7307 91.7247 68.6385 90.24C68.9913 89.6629 69.8986 90.2771 70.064 90.933C70.229 91.5885 70.2538 92.4339 70.8762 92.6983C71.4927 91.731 71.3072 90.4156 70.703 89.4404C70.0987 88.4655 69.1468 87.7638 68.1957 87.1229C66.2436 85.8071 64.1022 84.6089 61.7551 84.432C59.408 84.2552 56.8226 85.3579 55.9219 87.5325ZM62.9178 95.9808C62.3751 97.9703 59.5797 98.833 59.3504 100.883C59.8729 101.456 60.832 101.185 61.478 100.755C61.8076 100.536 62.1257 100.276 62.3053 99.9239C62.4852 99.5715 62.4963 99.1097 62.2433 98.8058C62.0235 98.5414 62.5192 98.1834 62.8132 98.3614C63.1068 98.539 63.1806 98.9226 63.2698 99.2542C63.4605 99.9614 63.8504 100.614 64.3832 101.116C64.8272 101.535 65.4756 101.859 66.0356 101.618C66.2665 101.518 66.4497 101.335 66.6205 101.15C68.3918 99.2364 69.4933 96.7141 69.6934 94.114C69.7163 93.8188 69.7033 93.4699 69.4614 93.299C69.2238 93.1313 68.9013 93.2288 68.6132 93.2678C68.3251 93.3073 67.9423 93.1988 67.9289 92.9083C68.258 92.5894 68.8212 92.5511 69.191 92.8219C69.3469 92.9359 69.4996 92.6664 69.4941 92.4734C69.4783 91.9212 69.3007 91.3746 68.9889 90.9188C68.3026 91.684 67.4122 92.3045 66.4015 92.4927C65.3912 92.6814 64.2589 92.3779 63.6073 91.583C63.2138 92.4225 63.0393 93.3633 63.1052 94.2881C63.1289 94.6204 62.6463 94.7226 62.3309 94.6156C62.016 94.5087 61.6556 94.322 61.3782 94.5063C61.109 94.6851 61.1394 95.1192 61.3549 95.3604C61.57 95.6015 61.8995 95.6986 62.2109 95.7846C62.4466 95.8501 62.6822 95.9153 62.9178 95.9808ZM43.0554 115.179C43.1035 114.974 43.1256 114.707 42.9417 114.606C42.478 115.969 42.0427 117.343 41.6358 118.723C41.4795 119.254 41.3339 119.853 41.6022 120.336C41.7956 120.344 41.8951 120.111 41.9393 119.922C42.3114 118.341 42.6836 116.76 43.0554 115.179Z" fill="#333333"/>
<path fill-rule="evenodd" clip-rule="evenodd" d="M86.6447 155.069C96.6933 154.258 106.788 154.021 116.864 154.359C116.57 150.971 116.277 147.584 115.983 144.196C105.704 144.659 95.424 145.123 85.1446 145.586C84.8284 148.595 83.6614 151.51 81.8132 153.906C80.9228 155.06 81.6881 156.691 82.2599 158.032C82.8318 159.373 82.8776 161.406 81.473 161.795C79.6196 160.883 78.2987 158.968 78.1037 156.912C70.502 157.243 62.9004 157.575 55.2991 157.906C52.4737 158.029 48.9864 158.632 48.1453 161.332C47.817 159.204 45.0073 158.715 42.8548 158.744C36.4222 158.831 29.9895 158.917 23.5568 159.004C23.4587 156.067 23.3606 153.13 23.2626 150.194C23.2435 149.625 23.2302 149.029 23.4854 148.52C24.1706 147.154 26.1383 147.299 27.6258 147.65C27.1475 142.869 26.6696 138.088 26.1912 133.307C23.9734 133.815 24.6869 128.128 22.4544 128.567C21.1029 128.833 19.8288 127.592 19.5404 126.245C19.252 124.898 19.6727 123.512 20.089 122.199C21.3436 121.816 23.1418 122.195 24.4133 121.816C25.6849 121.436 26.4596 120.703 26.4154 119.377C25.4931 91.838 23.5015 64.3344 20.447 36.9497C18.497 37.7888 16.1749 36.2748 15.3904 34.3023C14.6059 32.3297 14.9419 30.1082 15.3523 28.0251C15.4964 27.2942 15.6733 26.5179 16.2101 26.0013C16.8943 25.3426 17.946 25.3011 18.8957 25.2991C48.6971 25.2313 78.4984 25.1634 108.3 25.0955C108.949 25.0943 109.665 25.1168 110.145 25.5545C110.584 25.9543 110.7 26.5889 110.791 27.1758C111.145 29.4577 111.493 31.8364 110.796 34.0379C110.099 36.2393 108.017 38.1874 105.724 37.9178C106.978 65.0973 108.233 92.2764 109.487 119.456C111.532 119.009 113.923 119.765 114.943 121.593C115.963 123.42 115.032 126.182 112.99 126.64C114.293 127.723 113.664 130.029 112.231 130.932C110.797 131.835 108.973 131.743 107.286 131.588C105.598 131.434 103.797 131.27 102.301 132.065C102.654 135.34 102.61 138.658 102.17 141.922C103.622 141.057 105.586 141.147 106.951 142.143C107.899 142.834 108.761 141.152 108.752 139.979C108.731 137.247 108.71 134.515 108.689 131.783C110.169 135.177 110.581 139.027 109.852 142.657C111.676 142.799 113.501 142.941 115.325 143.084C115.874 143.126 116.468 143.188 116.87 143.564C117.27 143.938 117.374 144.523 117.444 145.066C117.893 148.573 117.826 152.146 117.246 155.633C105.425 154.814 93.5229 155.172 81.7729 156.701C82.9912 155.441 84.8975 155.209 86.6447 155.069ZM51.5746 146.171C52.4227 143.812 55.5205 143.389 58.0262 143.361C59.1798 143.348 60.333 143.335 61.4867 143.322C63.9813 143.294 66.4855 143.267 68.9597 143.586C69.2675 143.953 69.5753 144.32 69.8832 144.687C70.8695 144.374 72.04 144.79 72.6076 145.655C74.2952 143.903 76.377 142.378 78.7841 142.023C81.1908 141.669 83.9286 142.782 84.8489 145.034C85.1813 143.891 85.5964 142.679 86.5559 141.977C87.5157 141.274 89.1753 141.445 89.568 142.568C91.117 140.85 94.2475 140.993 95.6332 142.845C95.6486 141.943 96.8717 141.626 97.7545 141.809C98.6378 141.991 99.6123 142.383 100.384 141.917C101.215 141.416 101.266 140.251 101.219 139.28C99.6707 107.443 98.1224 75.6061 96.5745 43.7692C96.5634 43.5454 96.5433 43.2995 96.3847 43.1416C96.2193 42.9767 95.9604 42.9636 95.7267 42.9609C75.4756 42.7032 55.2249 42.4454 34.9737 42.1877C34.5388 42.1822 34.0514 42.1972 33.7483 42.5094C33.4622 42.8038 33.4436 43.2585 33.442 43.6689C33.3528 69.2102 34.3703 94.7557 36.4908 120.209C36.5745 121.209 37.1266 122.558 38.0884 122.272C38.137 125.145 38.1859 128.019 38.2345 130.892C38.2455 131.543 38.2037 132.304 37.6689 132.675C37.3721 132.882 36.9905 132.912 36.6294 132.935C33.6725 133.121 30.7157 133.307 27.7588 133.493C28.2206 138.063 28.6824 142.632 29.1441 147.201C31.7904 147.29 34.4445 147.151 37.067 146.786C35.8104 142.817 35.3684 138.593 35.7765 134.451C36.6633 134.524 36.9427 135.671 36.9881 136.56C37.0966 138.692 37.2052 140.825 37.3133 142.957C37.3709 144.085 37.4562 145.292 38.1512 146.182C38.8458 147.073 40.3882 147.375 41.0666 146.472C43.4831 143.256 48.9777 143.098 51.5746 146.171ZM107.734 106.637C106.663 83.754 105.591 60.8712 104.519 37.9885C76.7701 37.7079 49.0211 37.4272 21.2721 37.1466C25.2592 65.0752 26.4035 93.3219 27.5426 121.511C30.1541 121.82 32.8019 121.819 35.4134 121.509C34.6616 110.375 33.9101 99.2415 33.1583 88.1076C32.8911 84.1507 32.6239 80.1929 32.4929 76.2293C32.3839 72.9319 32.3693 69.632 32.3547 66.3326C32.3212 58.6978 32.2872 51.0626 32.2537 43.4274C32.2497 42.5887 32.513 41.4619 33.3517 41.4659C54.4032 41.5689 75.4543 41.6719 96.5054 41.7749C96.9688 41.7773 97.515 41.8234 97.7553 42.2197C97.8718 42.4115 97.8864 42.6463 97.8974 42.8709C98.7519 59.7046 99.6059 76.5391 100.274 93.3815C100.386 96.19 100.492 98.9988 100.598 101.808C100.819 107.65 101.04 113.492 101.261 119.334C101.282 119.892 102.044 120.026 102.601 119.989C104.514 119.862 106.428 119.735 108.341 119.608C108.139 115.284 107.937 110.961 107.734 106.637ZM16.0858 33.6313C16.4828 35.0119 17.638 36.2831 19.0735 36.3384C39.9371 37.1451 60.8406 35.9263 81.7031 36.7622C90.158 37.1009 98.6765 37.7738 107.043 36.5108C107.616 36.4248 108.218 36.3155 108.66 35.9417C109.073 35.5917 109.284 35.0612 109.448 34.545C110.127 32.4177 110.29 30.1287 109.922 27.9264C109.83 27.3759 109.668 26.7748 109.2 26.4705C108.851 26.2436 108.409 26.2353 107.992 26.2341C95.424 26.2041 82.8559 26.1741 70.2881 26.1441C68.256 26.1394 66.2238 26.1347 64.1921 26.1299C57.5352 26.1137 50.8788 26.098 44.222 26.0822C35.5685 26.0616 26.9146 26.0411 18.262 26.1749C16.8547 26.1966 16.2719 27.9608 16.0791 29.3547C15.8824 30.7779 15.6887 32.2508 16.0858 33.6313ZM71.1366 146.624C64.7016 146.857 58.2666 147.09 51.8315 147.324C52.3624 147.442 52.4164 148.203 52.1867 148.696C51.957 149.189 51.5624 149.656 51.6137 150.197C51.7763 151.898 51.249 153.654 50.1771 154.984C49.4177 155.927 48.3281 157.102 48.9568 158.136C50.7636 157.246 52.8379 157.119 54.8492 157.009C62.2385 156.602 69.6278 156.195 77.0172 155.789C77.4983 153.998 74.8512 152.327 75.5857 150.624C75.7535 150.235 75.4855 149.806 75.2305 149.468C74.1886 148.085 72.8673 146.561 71.1366 146.624ZM24.621 150.313C24.777 152.827 25.0925 155.331 25.5653 157.805C31.8989 157.785 38.2321 157.766 44.5657 157.747C44.8818 157.746 45.3318 157.492 45.1265 157.252C44.1213 156.073 43.1161 154.894 42.1109 153.716C41.5513 153.059 40.9707 152.36 40.8188 151.512C40.5894 150.229 41.3176 148.649 40.3811 147.742C35.4615 148.577 30.4556 148.902 25.4698 148.711C24.7845 148.685 24.5786 149.629 24.621 150.313ZM77.0144 152.971C77.5958 153.96 77.2378 155.459 78.1633 156.136C79.727 157.282 79.4744 160.244 81.3313 160.8C81.6624 160.467 82.0022 160.12 82.1727 159.682C82.3428 159.244 82.2982 158.687 81.941 158.382C80.9611 157.545 80.7349 156.082 81.0025 154.822C81.2705 153.561 81.9446 152.432 82.522 151.279C83.1906 149.946 83.7399 148.552 84.161 147.12C84.3493 146.481 84.4744 145.689 83.9878 145.234C83.5825 144.854 82.8626 144.842 82.6124 144.346C82.4821 144.088 82.5263 143.765 82.3819 143.514C82.2244 143.241 81.8925 143.13 81.5886 143.045C80.598 142.766 79.5726 142.517 78.5497 142.628C77.5263 142.738 76.4935 143.274 76.0491 144.203C75.6726 144.989 74.3496 144.606 73.7371 145.227C73.1167 145.855 73.6976 146.931 74.408 147.455C75.118 147.98 76.0341 148.432 76.2148 149.297C76.3766 150.073 75.8509 150.894 76.0941 151.649C76.2594 152.163 76.7405 152.506 77.0144 152.971ZM21.3436 127.395C21.6484 127.876 22.3146 127.937 22.8841 127.938C27.348 127.948 31.7947 127.44 36.2296 126.933C37.0315 126.841 37.2285 125.756 37.0939 124.96C36.9589 124.164 36.7608 123.198 37.3733 122.672C32.2655 122.305 27.1274 122.36 22.0282 122.833C21.7779 122.856 21.505 122.892 21.3313 123.073C21.1426 123.27 21.134 123.573 21.1365 123.846C21.1447 124.72 21.153 125.593 21.1612 126.466C21.1642 126.786 21.1725 127.125 21.3436 127.395ZM50.0745 146.068C49.1265 145.42 48.0143 144.741 46.9057 145.038C46.6204 145.115 46.2955 145.249 46.0512 145.083C44.8278 144.25 42.8785 144.942 42.455 146.361C42.3201 146.814 41.8299 147.048 41.5323 147.415C41.2343 147.781 41.3448 148.543 41.8125 148.475C42.2009 148.418 42.3994 148.982 42.234 149.338C42.0687 149.694 41.719 149.931 41.5213 150.27C40.9948 151.174 41.7237 152.271 42.4132 153.057C43.4899 154.284 44.5665 155.512 45.6432 156.739C46.5509 157.774 47.4784 158.842 47.9449 160.137C48.6146 159.69 48.4765 158.68 48.2306 157.913C47.9847 157.147 47.7538 156.184 48.3454 155.638C48.5901 155.412 48.9509 155.296 49.1016 154.999C49.2524 154.701 48.8269 154.25 48.6399 154.526C48.3056 155.02 47.7479 155.459 47.1646 155.338C46.5809 155.216 46.3263 154.249 46.8816 154.032C47.0762 154.427 47.6741 154.211 48.0261 153.947C48.5282 153.571 49.0302 153.195 49.5322 152.819C50.1834 152.331 50.8855 151.763 51.0126 150.959C51.1484 150.102 50.6183 149.072 51.2095 148.438C50.7154 148.01 50.9917 147.159 50.6542 146.6C50.5177 146.373 50.2927 146.217 50.0745 146.068ZM101.464 126.256C102.024 125.984 102.66 125.927 103.279 125.874C106.461 125.597 109.638 125.285 112.812 124.938C113.207 124.895 113.616 124.847 113.958 124.644C114.646 124.236 114.856 123.263 114.547 122.524C114.238 121.786 113.52 121.281 112.756 121.043C111.992 120.805 111.178 120.797 110.378 120.804C107.728 120.828 105.08 120.99 102.448 121.29C101.981 121.343 101.458 121.432 101.187 121.816C100.943 122.159 100.988 122.622 101.043 123.04C101.183 124.112 101.324 125.184 101.464 126.256ZM25.7733 131.67C26.1383 132.251 26.9008 132.46 27.586 132.416C28.2707 132.373 28.9267 132.13 29.6035 132.018C31.7825 131.657 34.1327 132.648 36.17 131.797C36.3322 131.729 36.4968 131.644 36.595 131.499C36.6921 131.355 36.7103 131.174 36.7237 131.002C36.788 130.177 36.8105 129.349 36.7908 128.521C36.7876 128.392 36.7766 128.248 36.6795 128.163C36.6045 128.097 36.4979 128.085 36.3985 128.078C32.792 127.8 29.2104 128.926 25.5941 128.873C25.3513 128.869 25.2908 129.208 25.316 129.449C25.3597 129.866 25.4134 130.283 25.4773 130.697C25.5294 131.035 25.5917 131.381 25.7733 131.67ZM112.557 126.96C112.525 126.788 112.48 126.606 112.352 126.486C112.171 126.316 111.891 126.328 111.644 126.351C108.763 126.616 105.883 126.9 103.006 127.201C102.613 127.243 102.16 127.321 101.964 127.664C101.725 128.083 102.023 128.596 102.042 129.078C102.054 129.38 101.958 129.705 102.099 129.972C102.288 130.326 102.771 130.367 103.173 130.36C104.338 130.34 105.503 130.302 106.669 130.263C108.486 130.204 110.304 130.144 112.122 130.084C112.48 130.072 112.633 129.626 112.666 129.269C112.739 128.499 112.702 127.719 112.557 126.96ZM101.462 142.972C101.315 142.891 101.206 142.751 101.058 142.671C100.742 142.503 100.35 142.652 100.055 142.855C99.7606 143.057 99.4883 143.319 99.1398 143.399C98.7909 143.478 98.3418 143.256 98.3612 142.899C98.3884 142.409 97.6792 142.216 97.2364 142.427C96.7931 142.639 96.4719 143.063 96.0141 143.241C95.7102 143.359 95.3522 143.366 95.1024 143.576C94.853 143.786 94.9098 144.326 95.235 144.303C98.598 144.067 101.961 143.83 105.323 143.594C105.606 143.574 105.936 143.527 106.076 143.28C106.29 142.905 105.826 142.453 105.395 142.461C104.964 142.47 104.588 142.737 104.187 142.896C103.493 143.173 102.719 143.129 101.973 143.081C101.798 143.069 101.616 143.056 101.462 142.972ZM60.7786 145.889C63.3818 145.725 65.9851 145.561 68.5883 145.397C68.7422 145.387 68.9115 145.371 69.0181 145.259C69.2257 145.043 69.0031 144.655 68.7126 144.582C68.4221 144.509 68.123 144.628 67.8325 144.701C67.542 144.774 67.1888 144.784 66.9922 144.558C66.5794 144.082 65.7672 145.042 65.2305 144.713C64.4905 144.258 63.6171 143.994 62.752 144.067C61.8865 144.139 61.0375 144.571 60.547 145.287C60.4262 145.464 60.3496 145.747 60.5339 145.856C60.6062 145.898 60.6954 145.894 60.7786 145.889ZM88.9341 142.104C88.5359 141.879 88.0485 142.183 87.7277 142.508C87.3428 142.898 87.0066 143.527 87.3456 143.957C87.5781 144.252 88.0075 144.279 88.3832 144.281C89.2771 144.287 90.171 144.292 91.0653 144.297C91.2256 144.298 91.3929 144.297 91.5358 144.225C91.7552 144.113 91.8602 143.862 91.9478 143.632C92.1223 143.174 92.2541 142.559 91.8535 142.276C91.7039 142.171 91.5137 142.145 91.3321 142.123C90.9458 142.076 90.495 142.051 90.2302 142.336C89.8719 142.723 90.0159 143.52 89.5143 143.681C89.2586 143.163 89.4365 142.388 88.9341 142.104ZM58.859 145.702C58.9864 145.696 59.1175 145.689 59.2331 145.636C59.6507 145.442 59.5524 144.745 59.1498 144.522C58.7473 144.3 58.2397 144.43 57.8328 144.646C57.4634 144.841 57.0242 144.625 56.6299 144.487C55.543 144.107 54.254 144.385 53.4205 145.179C53.2058 145.384 53.01 145.7 53.1548 145.959C55.0564 145.873 56.9575 145.788 58.859 145.702ZM92.5797 144.394C92.6452 144.436 92.7261 144.443 92.8039 144.446C93.3955 144.473 94.1339 144.262 94.229 143.678C94.2842 143.339 94.0506 142.977 93.7187 142.888C93.1508 142.737 92.6488 143.327 92.4905 143.893C92.4412 144.068 92.4265 144.295 92.5797 144.394ZM86.7729 143.243C86.7998 142.995 86.6632 142.623 86.4422 142.738C86.2153 143.156 86.0764 143.621 86.0365 144.095C86.0219 144.267 86.0247 144.455 86.1261 144.595C86.2275 144.735 86.4619 144.786 86.5717 144.653C86.6249 144.588 86.6364 144.499 86.6455 144.415C86.6877 144.025 86.7303 143.634 86.7729 143.243ZM49.4983 153.602C49.325 153.946 49.4485 154.41 49.7694 154.622C49.9936 154.346 50.2319 154.014 50.1491 153.669C50.0658 153.324 49.4505 153.218 49.3988 153.569M71.0995 145.822C71.332 145.857 71.6268 145.823 71.7125 145.604C71.4638 145.419 71.1284 145.357 70.83 145.44C70.7609 145.531 70.7353 145.653 70.7625 145.764C70.8592 145.828 70.9827 145.851 71.0964 145.826L71.0995 145.822Z" fill="#333333"/>
<path fill-rule="evenodd" clip-rule="evenodd" d="M224.347 46.5373C225.26 46.5613 226.295 46.6418 226.87 47.3519C227.344 47.9356 227.344 48.7584 227.321 49.5095C226.44 79.083 225.388 108.651 224.166 138.212C223.071 129.596 223.481 120.868 223.893 112.192C224.616 96.9701 225.339 81.7482 226.062 66.5259C226.009 69.1157 225.109 72.5734 222.52 72.4972C208.194 72.0749 193.868 71.6527 179.541 71.2304C178.43 71.1976 177.071 70.9987 176.677 69.9591C192.415 70.3854 208.153 70.8116 223.891 71.2379C224.572 68.77 224.753 66.1656 224.419 63.6275C208.631 63.3173 192.843 63.0071 177.056 62.6969C176.728 61.8408 178.035 61.3582 178.952 61.3779C193.884 61.6984 208.818 62.0188 223.751 62.3397C224.541 62.3567 224.841 61.3234 224.893 60.5345C225.116 57.168 225.338 53.8019 225.561 50.4354C225.61 49.6966 225.63 48.8701 225.138 48.3172C224.627 47.7445 223.768 47.6877 223.001 47.6715C207.671 47.3483 192.34 47.0251 177.009 46.7018C175.993 66.8121 175.677 86.957 176.061 107.089C177.63 103.02 180.922 99.6475 184.952 97.9801C182.282 95.4858 181.417 91.2542 182.893 87.9121C181.194 88.7883 179.758 86.0785 180.276 84.2378C180.428 83.6955 181.273 83.1734 181.496 82.6339C182.029 81.3433 181.779 80.5319 181.529 78.7582C181.279 76.9842 183.707 76.4806 185.158 77.3441C186.609 78.2081 188.044 79.7192 189.663 79.2393C191.627 78.6576 193.709 80.2146 194.449 82.1239C195.19 84.0333 194.943 86.1646 194.684 88.1963C194.312 91.1287 193.361 94.7229 190.464 95.3141C190.248 97.4051 193.324 97.7058 195.396 98.0563C198.223 98.5342 200.548 100.688 201.907 103.212C203.267 105.736 203.802 108.612 204.23 111.446C205.603 120.528 206.043 130.015 203.079 138.708C209.828 138.601 216.577 138.493 223.327 138.386C219.402 139.754 215.158 139.807 211.002 139.817C199.637 139.843 188.272 139.653 176.914 139.246C176.231 139.221 175.487 139.173 174.977 138.718C174.431 138.23 174.323 137.429 174.26 136.7C173.856 132.003 173.904 127.268 174.403 122.58C174.823 127.789 175.244 132.998 175.664 138.207C181.179 138.412 186.694 138.616 192.21 138.82C194.305 138.898 196.961 138.609 197.614 136.617C197.61 137.274 197.605 137.931 197.601 138.588C199.046 138.903 200.552 138.935 202.009 138.681C204.54 131.241 205.053 123.125 203.478 115.426C201.775 115.244 200.329 116.858 199.969 118.533C199.61 120.207 200.013 121.936 200.211 123.637C200.712 127.943 199.855 132.397 197.79 136.209C199.554 131.163 199.943 125.644 198.903 120.401C198.147 116.586 196.645 112.852 196.799 108.966C198.036 111.286 198.629 113.946 198.493 116.572C200.173 115.873 201.854 115.174 203.535 114.476C203.261 110.692 202.951 106.777 201.147 103.44C199.343 100.103 195.609 97.4927 191.887 98.2275C191.556 100.554 189.975 102.997 187.63 103.147C185.285 103.297 183.48 99.6996 185.48 98.4663C180.75 99.8042 177.968 104.558 175.684 108.911C174.772 110.651 173.837 112.493 173.902 114.456C173.966 116.42 175.427 118.485 177.392 118.476C179.668 116.038 180.99 112.732 181.022 109.397C181.612 118.021 181.587 126.687 180.947 135.307C180.882 136.181 179.943 137.339 179.456 136.611C180.652 130.048 180.795 123.295 179.875 116.688C177.755 119.61 174.841 121.951 171.531 123.391C170.011 124.053 169.62 126.059 169.868 127.698C170.117 129.337 170.789 130.952 170.574 132.595C170.358 134.239 169.469 135.752 167.162 135.165C164.855 134.577 161.521 135.526 161.521 135.526C161.521 135.526 161.954 143.098 162.704 145.352C165.6 147.599 169.946 143.343 173.29 144.843C175.37 145.777 177.74 145.725 180.018 145.656C181.441 145.613 183.442 144.543 182.613 143.386C178.993 143.767 175.331 143.761 171.711 143.371C170.155 143.203 169.015 141.697 168.743 140.155C168.47 138.613 168.868 137.041 169.262 135.526C169.503 136.765 169.416 138.93 169.549 139.817C169.683 140.703 170.072 142.171 171.046 142.266C178.687 143.013 181.251 142.527 186.599 141.28C187.539 141.061 188.698 140.784 189.663 140.79C190.818 140.797 191.899 141.42 193.02 141.698C196.912 142.662 200.992 142.361 204.99 142.054C212.707 141.461 220.423 140.868 228.14 140.275C231.281 134.988 225.323 126.962 229.556 122.5C229.913 95.6725 230.27 68.845 230.628 42.0175C210.553 41.3833 190.458 41.3845 170.383 42.0211C169.011 65.3084 168.751 88.6608 169.604 111.973C168.331 108.645 168.242 104.999 168.186 101.436C167.884 82.1788 168.111 62.9135 168.866 43.6692C168.901 42.7875 168.992 41.7906 169.683 41.2416C170.201 40.8296 170.915 40.7945 171.578 40.7775C191.433 40.2692 211.302 40.2778 231.157 40.8035C231.157 59.8869 232.169 76.2158 230.852 93.8696C230.122 103.664 230.628 112.74 230.628 122.58C232.54 122.809 235.068 121.903 235.677 120.077C236.287 118.25 236.052 116.265 235.858 114.35C233.246 88.6202 239.178 62.6558 237.247 36.8663C212.506 35.7333 187.719 35.5916 162.967 36.4413C162.455 36.459 161.894 36.4965 161.521 36.8482C161.104 37.2425 161.072 37.8842 161.068 38.4584C160.93 59.7373 160.792 81.0161 160.654 102.295C159.358 83.4986 158.996 64.6264 159.957 45.8099C160.062 43.7556 160.177 41.6501 159.569 39.6851C158.961 37.72 157.461 35.8927 155.44 35.5118C155.041 31.9871 155.095 28.411 155.598 24.8997C184.733 25.0512 213.867 25.2028 243.002 25.3543C243.107 27.5712 243.213 29.788 243.318 32.0048C243.418 34.1037 242.586 37.0755 240.527 36.6576C239.69 36.4875 239.289 37.6419 239.245 38.4943C238.884 45.4977 238.522 52.5007 238.161 59.504C237.087 80.3172 236.012 101.161 236.733 121.989C238.595 122.082 240.457 122.175 242.319 122.268C242.813 123.437 243.317 124.681 243.133 125.937C242.949 127.193 241.783 128.396 240.542 128.13C241.624 130.652 238.738 133.814 236.128 132.966C236.338 135.982 236.547 138.998 236.756 142.013C236.796 142.582 236.855 143.198 237.241 143.618C238.445 144.927 241.025 142.906 242.297 144.15C242.47 147.116 242.642 150.082 242.814 153.048C242.861 153.857 242.866 154.778 242.278 155.335C241.883 155.71 241.315 155.82 240.779 155.911C230.328 157.678 219.615 157.887 209.102 156.528C209.667 159.231 210.104 162.424 208.192 164.417C206.783 165.887 204.089 167.032 204.731 168.965C205.886 168.721 206.932 167.996 207.568 167.001C207.444 168.292 206.243 169.389 204.945 169.395C203.831 169.513 204.053 167.652 204.813 166.829C206.481 165.023 208.639 163.408 209.17 161.006C209.702 158.606 206.952 155.671 205.006 157.175C203.836 158.079 203.889 159.83 204.053 161.3C203.002 160.113 203.139 158.07 204.34 157.036C201.209 157.75 197.961 157.946 194.767 157.613C198.801 157.001 202.835 156.39 206.869 155.779C205.721 152.6 206.02 148.93 207.668 145.979C205.144 145.701 202.575 145.842 200.096 146.393C199.402 146.548 198.694 146.745 198.139 147.189C197.556 147.656 197.204 148.346 196.886 149.021C194.184 154.749 192.629 161.015 192.339 167.341C191.712 163.7 192.174 159.879 193.653 156.493C193.297 155.929 192.836 155.431 192.301 155.032C195.979 153.592 197.743 148.616 195.794 145.18C195.487 144.64 195.108 144.142 194.677 143.695C192.084 141.009 187.509 140.54 184.427 142.646C183.11 144.304 183.746 144.862 183.188 145.845C182.848 146.445 182.093 146.821 181.769 147.441C181.647 147.673 181.617 148.02 181.496 148.252C182.397 148.988 183.527 149.439 184.688 149.525C184.573 150.77 184.459 152.015 184.344 153.259C185.003 153.374 185.661 153.488 186.319 153.603C185.438 154.481 186.224 156.309 187.467 156.274C188.642 160.011 189.817 163.749 190.992 167.486C189.792 164.487 188.593 161.487 187.393 158.487C183.351 158.948 179.308 159.408 175.266 159.868C175.412 160.609 175.794 161.301 176.342 161.819C173.945 162.166 171.538 159.882 171.759 157.47C170.58 159.597 172.399 162.132 174.272 163.684C176.145 165.235 178.415 166.978 178.335 169.408C176.474 170.061 174.187 168.734 173.829 166.794C174.506 168.054 175.967 168.846 177.392 168.724C176.466 167.793 175.539 166.862 174.613 165.932C175.297 166.343 175.982 166.753 176.667 167.164C176.975 166.364 176.264 165.467 175.435 165.251C174.605 165.035 173.735 165.295 172.918 165.554C171.402 166.033 169.835 166.541 168.658 167.609C167.481 168.677 166.804 170.473 167.507 171.9C169.007 171.383 170.294 170.272 171.023 168.863C170.943 170.758 169.109 172.396 167.217 172.262C165.876 169.629 168.091 165.948 171.046 165.899C172.264 165.88 172.986 164.353 172.665 163.178C172.345 162.003 171.362 161.146 170.428 160.364C169.8 161.185 168.988 161.865 168.07 162.34C168.04 160.954 168.312 159.563 168.863 158.291C167.62 159.701 166.92 161.577 166.934 163.457C166.3 161.908 166.356 160.091 167.085 158.584C163.41 159.209 159.679 159.503 155.952 159.459C155.337 155.202 154.723 150.944 154.11 146.687C156.414 146.063 158.803 145.747 161.191 145.75C159.994 138.588 161.191 138.389 159.704 135.165C159.502 134.727 158.785 135.564 158.297 134.577C157.808 133.59 157.59 131.02 157.59 131.02C157.59 131.02 155.597 130.729 155.44 130.192C154.823 128.087 154.13 126.206 155.629 125.074C157.228 123.866 159.732 124.9 161.407 123.802C160.777 121.316 160.655 118.704 161.051 116.171C162.035 117.844 161.684 119.971 162.226 121.835C162.767 123.7 165.319 125.266 166.539 123.756C164.751 120.568 162.355 115.983 159.933 113.245C158.384 111.495 156.188 111.913 154.58 109.981C152.973 108.049 152.496 107.666 151.929 106.051C151.362 104.435 152.135 102.223 153.831 101.987C155.489 101.756 156.742 103.396 157.59 104.84C157.209 103.566 158.228 102.072 159.553 101.963C161.193 107.134 164.165 111.876 168.102 115.608C169.337 116.779 171.831 117.566 172.322 115.936C171.446 114.566 172.968 112.996 173.816 111.608C174.84 109.93 174.885 107.855 174.9 105.889C175.05 86.3583 175.199 66.8275 175.349 47.2966C175.361 45.7598 177.44 45.3146 178.976 45.3548C194.1 45.7491 209.224 46.1434 224.347 46.5373ZM156.568 34.8086C156.796 34.9834 157.106 34.9913 157.393 34.9913C163.29 34.9968 169.186 35.0023 175.083 35.0075C178.5 35.0106 181.917 35.0138 185.334 35.0169C191.878 35.0229 198.423 35.0288 204.967 35.0347C216.688 35.0454 228.409 35.056 240.13 35.0667C240.768 35.0671 241.524 35.0043 241.848 34.4549C242.013 34.1743 242.018 33.831 242.018 33.5054C242.022 31.3134 242.026 29.121 242.03 26.929C242.031 26.7009 242.022 26.4487 241.866 26.283C241.699 26.1062 241.427 26.0931 241.184 26.0915C213.385 25.9274 185.587 25.7632 157.788 25.5986C157.443 25.5966 157.058 25.6108 156.818 25.8579C156.601 26.0805 156.575 26.4203 156.56 26.7309C156.454 29.0338 156.349 31.3367 156.242 33.6399C156.223 34.0607 156.234 34.5516 156.568 34.8086ZM206.854 152.439C206.682 152.268 206.36 152.449 206.315 152.688C206.27 152.927 206.4 153.16 206.528 153.368C206.975 154.094 207.479 154.827 208.219 155.252C208.937 155.663 209.793 155.736 210.618 155.799C213.458 156.017 216.298 156.236 219.137 156.454C220.963 156.594 222.792 156.735 224.623 156.703C230.31 156.605 235.878 154.852 241.566 154.824C242.033 154.822 242.161 154.185 242.14 153.718C242.028 151.29 241.915 148.863 241.804 146.435C241.773 145.778 241.513 144.901 240.857 144.954C230.017 145.836 219.125 146.064 208.257 145.638C208.32 147.839 207.682 150.054 206.456 151.883C207.63 151.935 208.809 151.844 209.96 151.613C209.089 151.327 208.171 151.185 207.255 151.196C208.801 150.374 210.911 150.833 211.976 152.223C212.075 152.352 212.169 152.501 212.155 152.662C212.127 152.975 211.744 153.101 211.434 153.152C209.848 153.414 207.999 153.567 206.854 152.439ZM167.4 153.995C167.142 154.183 166.778 154.37 166.532 154.168C166.413 154.07 166.368 153.909 166.33 153.76C166.135 152.987 165.938 152.195 166.012 151.401C166.085 150.607 166.482 149.796 167.197 149.442C167.923 149.083 168.778 148.456 168.556 147.676C168.344 146.936 167.362 146.813 166.592 146.835C162.991 146.938 159.39 147.041 155.789 147.144C155.642 147.148 155.479 147.159 155.378 147.266C155.256 147.394 155.278 147.596 155.309 147.77C155.882 151.047 156.455 154.325 157.029 157.602C157.073 157.858 157.139 158.146 157.365 158.275C157.514 158.36 157.696 158.353 157.866 158.342C160.203 158.198 162.534 157.974 164.855 157.671C166.764 157.422 169.015 157.236 170.299 158.67C170.29 157.405 171.241 156.375 171.901 155.295C172.561 154.216 172.85 152.59 171.819 151.857C170.751 151.098 169.823 150.144 169.094 149.055C168.647 149.616 169.187 150.401 169.297 151.11C169.483 152.31 168.384 153.282 167.4 153.995ZM152.448 103.975C152.485 104.328 152.709 104.63 152.924 104.912C153.942 106.244 154.96 107.577 155.979 108.91C154.82 107.976 153.662 107.042 152.503 106.109C153.712 108.726 155.98 110.835 158.679 111.85C159.128 112.019 159.594 112.162 159.994 112.427C160.694 112.89 161.109 113.665 161.516 114.399C162.907 116.907 164.528 119.287 166.35 121.502C167.163 122.49 168.247 123.536 169.513 123.348C172.205 122.95 174.71 121.407 176.276 119.182C175.554 118.422 174.832 117.663 174.11 116.904C173.859 116.641 173.591 116.366 173.241 116.268C172.891 116.17 172.441 116.328 172.357 116.682C172.106 117.737 170.749 118.195 169.712 117.876C168.675 117.556 167.9 116.71 167.179 115.899C163.721 112.008 160.117 107.821 159.284 102.683C158.678 102.384 158.279 103.356 158.297 104.032C158.316 104.784 158.336 105.536 158.355 106.288C156.451 105.509 155.796 102.471 153.738 102.48C154.689 104.116 155.749 105.689 156.908 107.186C155.2 106.359 153.794 104.926 152.999 103.203C152.644 103.216 152.411 103.622 152.448 103.975ZM229.967 137.899C229.715 139.19 229.016 140.459 227.856 141.08C227.027 141.524 226.056 141.597 225.118 141.661C218.908 142.088 212.697 142.516 206.487 142.943C207.18 143.873 208.055 144.898 209.215 144.872C217.915 144.683 226.614 144.493 235.314 144.304C235.62 144.297 235.974 144.266 236.148 144.014C236.281 143.821 236.259 143.566 236.232 143.334C235.849 140.073 235.467 136.813 235.085 133.553C235.06 133.343 235.026 133.114 234.868 132.973C234.683 132.807 234.402 132.828 234.155 132.86C233.073 132.995 231.992 133.13 230.911 133.266C230.471 133.321 229.902 133.528 229.948 133.968C230.083 135.276 230.218 136.608 229.967 137.899ZM176.786 158.784C179.796 158.555 182.793 158.16 185.759 157.598C186.284 157.498 186.928 157.266 186.964 156.733C186.348 156.781 185.72 156.422 185.449 155.866C185.179 155.31 185.285 154.594 185.703 154.14C185.229 154.154 184.731 154.163 184.308 153.949C183.884 153.735 183.572 153.219 183.752 152.779C184.045 152.063 184.074 151.242 183.834 150.507C183.69 150.065 183.348 149.595 182.885 149.633C182.091 149.699 181.296 149.095 181.148 148.311C181.001 147.528 181.52 146.675 182.284 146.448C182.241 146.248 181.973 146.216 181.769 146.23C177.813 146.497 173.858 146.764 169.902 147.03C169.764 147.04 169.601 147.066 169.544 147.191C169.509 147.268 169.528 147.359 169.549 147.441C169.923 148.866 170.865 150.134 172.122 150.903C171.49 150.255 172.059 149.032 172.938 148.816C173.818 148.601 174.726 149.112 175.343 149.775C175.959 150.438 176.387 151.257 176.99 151.931C177.166 152.128 177.365 152.326 177.425 152.583C177.486 152.84 177.331 153.168 177.067 153.173C176.951 153.176 176.842 153.116 176.741 153.059C175.481 152.345 174.221 151.63 172.961 150.916C173.229 150.412 174.014 150.581 174.448 150.951C174.882 151.322 175.263 151.849 175.832 151.904C175.588 151.487 175.344 151.069 175.1 150.652C174.735 150.028 174.157 149.308 173.459 149.492C172.893 149.642 172.646 150.361 172.8 150.925C172.954 151.489 173.387 151.927 173.804 152.338C174.455 152.98 175.363 153.673 176.192 153.285C176.439 153.169 176.678 153.557 176.54 153.793C176.402 154.029 176.09 154.092 175.817 154.087C175.036 154.072 174.271 153.675 173.809 153.045C173.648 153.944 173.487 154.844 173.327 155.744C174.383 156.103 175.206 157.073 175.39 158.173C175.482 158.726 176.227 158.826 176.786 158.784ZM189.974 79.795C189.364 79.8234 188.795 80.1202 188.189 80.196C187.439 80.2892 186.652 80.0192 186.118 79.4852C185.446 78.8143 183.414 77.0813 182.694 77.7357C181.974 78.3896 181.825 80.9534 182.654 82.3379C182.812 82.6007 182.656 82.9528 182.418 83.1457C182.181 83.3391 181.878 83.4307 181.614 83.585C180.87 84.0195 180.497 85.0007 180.765 85.8192C181.034 86.6378 181.915 87.2084 182.771 87.1185C182.15 86.3587 182.228 85.1222 182.939 84.4462C183.651 83.7705 184.89 83.7571 185.617 84.4174C186.085 84.8428 186.828 84.7524 187.407 84.4971C187.986 84.2421 188.513 83.8494 189.134 83.7251C189.946 83.5629 190.839 83.9339 191.297 84.6242C191.755 85.3144 191.75 86.2814 191.285 86.9669C190.848 87.6102 191.218 88.634 191.965 88.8499C192.712 89.0661 193.571 88.3976 193.545 87.6205C193.502 86.335 194.408 85.1443 194.3 83.8621C194.21 82.7834 193.427 81.9021 192.64 81.1578C191.895 80.4514 191 79.7473 189.974 79.795ZM183.823 84.9281C183.06 85.1037 182.798 86.2849 183.414 86.7676C183.947 86.2995 184.803 86.2506 185.386 86.6547C185.088 87.1599 184.275 86.8825 183.763 87.1686C183.33 87.4105 183.229 87.9804 183.188 88.4753C183.077 89.8148 183.051 91.1614 183.11 92.5045C183.149 93.3996 183.231 94.312 183.59 95.1326C183.949 95.9531 184.632 96.6781 185.506 96.8746C186.272 97.0471 187.085 96.7941 187.737 96.3576C188.389 95.9211 188.907 95.3145 189.405 94.7079C190.036 93.9379 190.659 93.1403 191.036 92.2187C191.414 91.2968 191.524 90.2233 191.121 89.3124C190.79 88.561 190.641 87.729 190.693 86.9093C190.734 86.2573 190.876 85.5236 190.468 85.0137C189.971 84.3929 188.989 84.5219 188.263 84.8471C187.537 85.1724 186.803 85.6467 186.016 85.5299C185.255 85.4167 184.573 84.7552 183.823 84.9281ZM155.671 128.615C155.671 128.937 155.757 129.282 155.89 129.532C156.242 130.192 159.438 129.547 159.933 129.498C162.765 129.214 165.598 128.931 168.43 128.648C168.865 128.605 169.389 128.493 169.525 128.079C169.592 127.873 169.538 127.649 169.483 127.44C169.355 126.95 169.227 126.46 169.099 125.97C169.022 125.675 168.936 125.365 168.721 125.148C168.362 124.786 167.781 124.806 167.274 124.851C163.833 125.155 160.393 125.459 156.953 125.763C156.497 125.803 155.963 125.895 155.762 126.307C155.675 126.487 155.673 126.695 155.673 126.896C155.672 127.469 155.672 128.042 155.671 128.615ZM228.993 126.695C229.122 126.874 229.376 126.891 229.596 126.892C233.503 126.911 237.41 126.93 241.317 126.949C241.574 126.95 241.849 126.946 242.063 126.803C242.418 126.565 242.45 126.064 242.446 125.637C242.442 125.123 242.434 124.595 242.247 124.116C242.06 123.638 241.65 123.211 241.139 123.156C237.463 122.764 233.781 124.085 230.094 123.822C229.554 123.784 229.079 124.244 228.914 124.759C228.749 125.276 228.82 125.834 228.893 126.37C228.909 126.484 228.926 126.602 228.993 126.695ZM228.833 128.753C228.729 129.854 228.805 130.971 229.059 132.047C232.3 131.936 235.539 131.753 238.773 131.499C239.307 131.456 240.009 131.232 239.97 130.697C239.929 130.135 239.889 129.573 239.848 129.01C239.834 128.826 239.817 128.63 239.703 128.485C239.547 128.286 239.265 128.247 239.013 128.225C235.866 127.949 232.699 127.894 229.544 128.06C229.367 128.069 229.176 128.084 229.041 128.199C228.887 128.33 228.852 128.552 228.833 128.753ZM169.36 130.431C169.304 130.004 168.717 129.937 168.289 129.986C165.221 130.331 162.153 130.675 159.085 131.02C158.954 131.035 158.817 131.052 158.711 131.13C158.502 131.283 158.505 131.592 158.533 131.85C158.621 132.646 158.793 133.514 159.417 134.016C160.259 134.695 161.484 134.402 162.542 134.178C164.511 133.76 166.557 133.704 168.546 134.013C168.981 134.081 169.39 133.721 169.534 133.306C169.678 132.89 169.623 132.435 169.566 131.999C169.497 131.476 169.429 130.954 169.36 130.431ZM189.673 101.184C190.001 100.75 190.302 100.295 190.572 99.8228C190.779 99.4624 190.973 99.0437 190.853 98.6463C190.775 98.3878 190.576 98.1873 190.411 97.9726C189.901 97.3036 189.703 96.405 189.887 95.5837C189.902 95.5134 189.92 95.4388 189.896 95.3709C189.801 95.1061 189.414 95.3591 189.269 95.6006C188.645 96.6418 187.568 97.4007 186.378 97.6391C186.119 97.6908 186.187 98.0937 186.051 98.2919C185.48 99.1211 184.303 100.219 185.386 101.504C186.199 102.468 186.372 102.681 186.599 102.75C187.773 103.111 188.932 102.162 189.673 101.184ZM198.196 145.783C198.516 145.725 198.836 145.667 199.156 145.61C199.779 145.498 200.424 145.376 200.94 145.011C201.622 144.528 202.047 143.645 202.859 143.448C203.056 143.4 203.328 143.197 203.161 143.082C203.121 143.054 203.068 143.054 203.019 143.055C200.839 143.082 198.661 143.178 196.488 143.344C196.759 144.056 197.073 144.75 197.43 145.423C197.501 145.556 197.581 145.696 197.716 145.765C197.861 145.839 198.036 145.812 198.196 145.783ZM204.585 143.481C203.578 143.628 202.717 144.29 202.025 145.038C201.858 145.219 202.033 145.575 202.279 145.552C202.546 145.131 203.12 145.059 203.619 145.029C204.762 144.962 205.904 144.894 207.047 144.827C206.748 143.853 205.593 143.334 204.585 143.481ZM191.644 92.1757C191.434 93.012 190.968 93.782 190.324 94.3563C190.365 94.5698 190.678 94.5492 190.881 94.4723C191.613 94.1972 192.368 93.8957 192.901 93.3238C193.435 92.7519 193.675 91.8292 193.244 91.1768C193.097 91.828 191.807 91.5281 191.644 92.1757ZM172.57 157.646C172.321 158.153 172.311 158.883 172.8 159.167C173.219 159.411 173.819 159.127 173.957 158.664C174.094 158.2 173.805 157.671 173.363 157.473C173.09 157.351 172.702 157.377 172.57 157.646ZM170.416 145.552C170.342 145.669 170.323 145.866 170.454 145.909C171.355 145.813 172.264 145.792 173.169 145.845C173.27 145.626 173.135 145.355 172.932 145.225C172.728 145.095 172.477 145.069 172.237 145.046C171.575 144.985 170.77 144.989 170.416 145.552ZM210.618 152.657C210.769 152.609 210.873 152.444 210.851 152.287C209.798 152.068 208.698 152.083 207.651 152.331C208.538 152.844 209.642 152.966 210.618 152.657ZM167.152 152.762C167.405 151.783 167.582 150.786 167.681 149.78C166.7 150.368 166.433 151.872 167.152 152.762ZM192.09 91.1551C192.491 91.1227 192.844 90.7814 192.89 90.3824C192.936 89.9837 192.671 89.5705 192.288 89.4474C191.927 89.8073 191.728 90.3239 191.755 90.8331C191.76 90.9317 191.779 91.0399 191.855 91.1022C191.919 91.1547 192.008 91.1618 192.09 91.1551ZM174.235 159.972C173.91 159.635 173.322 159.601 172.959 159.897C173.112 160.243 173.383 160.536 173.716 160.714C173.869 160.796 174.056 160.854 174.214 160.782C174.502 160.65 174.455 160.2 174.235 159.972ZM174.508 157.87C174.54 157.375 174.274 156.871 173.845 156.619C173.417 156.367 172.848 156.378 172.429 156.646C173.203 156.89 173.92 157.312 174.508 157.87ZM168.574 151.133C168.511 150.981 168.382 150.822 168.219 150.844C167.881 151.38 167.884 152.11 168.225 152.643C168.637 152.278 168.784 151.643 168.574 151.133ZM168.969 160.517C168.889 160.654 168.962 160.856 169.11 160.91C169.329 160.8 169.472 160.556 169.463 160.311C169.287 160.236 169.058 160.348 169.008 160.533M224.772 62.7352C224.67 62.8105 224.567 62.8855 224.465 62.9605C224.529 63.0765 224.593 63.1926 224.657 63.3086C224.844 63.2131 224.919 62.9491 224.811 62.7691L224.772 62.7352Z" fill="#333333"/>
<path d="M183.728 93.5254C183.946 93.5254 184.123 93.172 184.123 92.7361C184.123 92.3002 183.946 91.9468 183.728 91.9468C183.51 91.9468 183.333 92.3002 183.333 92.7361C183.333 93.172 183.51 93.5254 183.728 93.5254Z" fill="#333333"/>
<path fill-rule="evenodd" clip-rule="evenodd" d="M191.981 136.569C192.654 128.626 193.219 120.672 194 112.738C194.195 110.759 199.778 113.157 197.461 130.318C197.095 133.032 195.35 137.086 192.235 137.294L191.981 136.569Z" fill="#333333"/>
<path fill-rule="evenodd" clip-rule="evenodd" d="M55.1207 109.361C55.6215 120.145 53.8869 113.313 58.3798 116.201C59.1443 116.693 59.9806 117.61 59.8353 118.507C59.55 120.269 57.851 121.515 57.2471 123.195C54.2579 131.51 67.8045 131.881 70.2617 133.189C71.083 133.626 70.7139 135.223 70.1705 135.979C68.1948 138.725 56.6993 131.269 55.2513 130.154C45.6538 122.769 46.7971 117.937 54.3317 110.351L55.1207 109.361Z" fill="#333333"/>
<path d="M64.5387 98.2613C64.7567 98.2613 64.9334 97.9079 64.9334 97.472C64.9334 97.036 64.7567 96.6826 64.5387 96.6826C64.3207 96.6826 64.144 97.036 64.144 97.472C64.144 97.9079 64.3207 98.2613 64.5387 98.2613Z" fill="#333333"/>
</svg>
