<svg width="343" height="226" viewBox="0 0 343 226" fill="none" xmlns="http://www.w3.org/2000/svg">
<path fill-rule="evenodd" clip-rule="evenodd" d="M331.16 150.835C325.885 163.296 316.734 165.464 307.045 175.408C297.356 185.35 268.256 179.661 258.245 185.448C231.102 201.137 230.248 218.884 184.427 221.183C167.95 222.01 153.499 220.136 138.767 218.227C123.324 216.226 105.017 222.342 84.1224 209.525C33.1507 178.257 1.44155 126.848 0.253316 99.8216C-0.681078 78.5684 14.5487 63.9207 24.8048 54.1851C46.6053 33.4903 74.671 39.1792 100.963 31.8599C138.06 21.532 161.842 -0.296755 188.417 1.02666C225.934 0.0452449 249.339 30.4118 278.869 31.8599C299.866 32.8894 370.207 58.5951 331.16 150.835Z" fill="#1E1E1E"/>
<path fill-rule="evenodd" clip-rule="evenodd" d="M104.577 204.424C105.311 206.145 105.37 208.755 103.567 209.255C101.187 208.084 99.4915 205.626 99.2413 202.986C89.4823 203.411 79.7234 203.837 69.965 204.262C66.3378 204.42 61.8609 205.194 60.7812 208.66C60.3597 205.929 56.7527 205.301 53.9893 205.338C45.7312 205.449 37.473 205.56 29.2148 205.671C29.0889 201.901 28.963 198.131 28.8371 194.362C28.8127 193.631 28.7956 192.865 29.1232 192.212C30.0028 190.458 32.529 190.645 34.4386 191.095C33.8245 184.958 33.2109 178.82 32.5969 172.682C29.7496 173.334 30.6656 166.033 27.7996 166.597C26.0646 166.938 24.4289 165.345 24.0587 163.616C23.6884 161.887 24.2285 160.107 24.7629 158.422C26.3736 157.93 28.682 158.417 30.3144 157.93C31.9468 157.443 32.9414 156.502 32.8846 154.799C31.7006 119.445 29.1438 84.1367 25.2225 48.9802C22.7191 50.0573 19.738 48.1137 18.7309 45.5814C17.7238 43.0491 18.1551 40.1971 18.6821 37.5234C18.867 36.5851 19.0941 35.5879 19.7832 34.9247C20.6616 34.0791 22.0118 34.0264 23.231 34.0233C61.4895 33.9362 99.7479 33.8491 138.006 33.7624C138.84 33.7604 139.759 33.7893 140.375 34.3512C140.938 34.8644 141.087 35.6796 141.204 36.4326C141.659 39.3621 142.105 42.4158 141.211 45.242C140.317 48.0687 137.644 50.5691 134.7 50.2235C136.31 85.1156 137.921 120.008 139.531 154.9C142.156 154.326 145.225 155.298 146.535 157.644C147.844 159.99 146.65 163.535 144.028 164.123C145.701 165.513 144.893 168.473 143.053 169.633C141.212 170.792 138.871 170.674 136.705 170.476C134.538 170.278 132.226 170.067 130.306 171.088C130.759 175.292 130.702 179.551 130.137 183.742C132.001 182.631 134.522 182.748 136.276 184.025C137.493 184.912 138.598 182.754 138.587 181.248C138.56 177.74 138.533 174.233 138.506 170.726C140.406 175.082 140.935 180.025 139.999 184.686C142.341 184.868 144.684 185.051 147.025 185.233C147.73 185.288 148.492 185.368 149.009 185.85C149.523 186.329 149.656 187.081 149.746 187.778C150.322 192.281 150.236 196.867 149.491 201.344C134.316 200.292 119.916 200.629 104.832 202.591C104.453 202.591 103.843 202.702 104.577 204.424Z" fill="white"/>
<path d="M86.2768 127.119C86.4074 127.169 86.6759 126.786 86.8765 126.264C87.077 125.741 87.1337 125.277 87.0031 125.227C86.8725 125.177 86.604 125.56 86.4035 126.082C86.2029 126.605 86.1462 127.069 86.2768 127.119Z" fill="#00A3B9"/>
<path fill-rule="evenodd" clip-rule="evenodd" d="M205.218 131.351C205.218 131.351 203.089 82.9932 204.323 58.8368C204.458 56.1996 204.606 53.4966 203.825 50.9739C203.044 48.4512 201.119 46.1053 198.524 45.6164C198.012 41.0913 198.081 36.5004 198.727 31.9926C236.129 32.1872 273.532 32.3817 310.935 32.5763C311.07 35.4222 311.205 38.2682 311.34 41.1141C311.468 43.8086 310.401 47.6238 307.757 47.0872C306.683 46.8689 306.168 48.3509 306.112 49.4453C305.648 58.4361 305.184 67.4263 304.719 76.4171C303.341 103.137 301.961 129.896 302.887 156.635C305.277 156.754 307.668 156.873 310.058 156.993C310.692 158.494 311.34 160.09 311.103 161.703C310.867 163.315 309.37 164.859 307.777 164.518C309.165 167.756 305.461 171.815 302.11 170.727C302.379 174.598 302.648 178.47 302.917 182.341C302.967 183.071 303.043 183.862 303.538 184.401C305.085 186.082 308.397 183.487 310.03 185.084C310.251 188.892 310.472 192.699 310.693 196.507C310.753 197.545 310.76 198.728 310.005 199.444C309.499 199.924 308.769 200.067 308.081 200.183C294.664 202.451 280.911 202.719 267.415 200.975C268.14 204.445 268.701 208.545 266.247 211.103C264.437 212.99 264.629 215.697 265.445 214.419C265.287 216.078 263.744 217.486 262.078 217.493C260.648 217.644 260.932 215.256 261.908 214.2C264.05 211.881 266.82 209.807 267.502 206.724C268.184 203.642 260.723 205.214 260.933 207.101C259.584 205.578 259.759 202.955 261.301 201.627C257.282 202.543 253.111 202.795 249.011 202.367C254.19 201.583 259.369 200.798 264.547 200.013C263.073 195.932 246.267 206.735 245.895 214.856C245.089 210.183 245.683 205.277 247.581 200.93C247.125 200.205 246.533 199.566 245.845 199.054C250.567 197.205 241.085 207.341 239.545 203.49C234.356 204.081 229.166 204.672 223.977 205.263C224.164 206.214 224.654 207.102 225.358 207.767C222.281 208.213 219.19 205.281 219.474 202.184C217.96 204.914 220.296 208.17 222.7 210.161C225.104 212.153 228.019 214.39 227.917 217.51C225.527 218.348 222.591 216.644 222.132 214.154C223 215.772 222.011 212.23 220.962 212.562C219.016 213.177 217.593 218.619 218.529 216.81C218.427 219.243 216.072 221.346 213.643 221.174C211.922 217.793 214.766 213.068 218.559 213.006C220.122 212.981 221.05 211.021 220.638 209.512C220.226 208.004 218.965 206.904 217.766 205.9C216.959 206.954 215.917 207.826 214.738 208.436C214.7 206.657 215.05 204.871 215.756 203.238C214.161 205.049 213.262 207.457 213.279 209.871C212.466 207.881 212.539 205.549 213.474 203.614C208.756 204.417 203.966 204.794 199.181 204.738C198.392 199.273 197.604 193.807 196.816 188.341C199.775 187.541 202.841 187.135 205.907 187.138C204.371 177.944 205.907 177.689 203.998 173.549C203.739 172.987 202.818 174.061 202.191 172.795C201.564 171.528 201.284 168.228 201.284 168.228C201.284 168.228 198.725 167.855 198.524 167.166C197.732 164.463 196.843 162.048 198.767 160.594C200.82 159.044 204.034 160.372 206.184 158.961C205.731 157.176 206.349 150.937 204.877 147.059C203.718 144.007 201.305 145.372 198.736 143.164C197.069 141.732 195.251 140.273 194.524 138.2C193.796 136.126 194.788 133.285 196.965 132.982C199.094 132.687 200.703 134.792 201.791 136.646C201.302 135.01 202.61 133.092 204.311 132.952C206.416 139.59 205.218 131.351 205.218 131.351Z" fill="white"/>
<path d="M241.933 119.587C242.213 119.587 242.44 119.133 242.44 118.573C242.44 118.014 242.213 117.56 241.933 117.56C241.653 117.56 241.427 118.014 241.427 118.573C241.427 119.133 241.653 119.587 241.933 119.587Z" fill="#00A3B9"/>
<path fill-rule="evenodd" clip-rule="evenodd" d="M59.317 62.9955C59.5374 63.1678 59.5759 63.4865 59.4031 63.7064L52.7511 72.1991C52.5783 72.419 52.2602 72.4581 52.0398 72.2853C51.8194 72.113 51.7808 71.7943 51.9531 71.5739L58.6056 63.0817C58.7784 62.8613 59.0966 62.8228 59.317 62.9955Z" fill="#00A3B9"/>
<path fill-rule="evenodd" clip-rule="evenodd" d="M67.9815 65.427C68.1948 65.6084 68.2201 65.9286 68.0388 66.1414L59.1356 76.5879C58.9542 76.8007 58.6345 76.826 58.4212 76.6447C58.2084 76.4633 58.1831 76.1436 58.3645 75.9303L67.2676 65.4843C67.449 65.271 67.7687 65.2457 67.9815 65.427Z" fill="#00A3B9"/>
<path fill-rule="evenodd" clip-rule="evenodd" d="M82.1058 66.1166C82.3272 66.2879 82.3677 66.6061 82.196 66.8275L74.8731 76.2859C74.7019 76.5073 74.3832 76.5479 74.1623 76.3766C73.9409 76.2054 73.9003 75.8867 74.0716 75.6658L81.3949 66.2073C81.5662 65.9859 81.8844 65.9454 82.1058 66.1166Z" fill="#00A3B9"/>
<path fill-rule="evenodd" clip-rule="evenodd" d="M101.873 65.3526C102.099 65.5162 102.151 65.8329 101.987 66.0599L96.0234 74.3205C95.8598 74.5475 95.5431 74.5987 95.3161 74.4351C95.0891 74.2714 95.038 73.9547 95.2021 73.7278L101.166 65.4665C101.329 65.2401 101.646 65.1889 101.873 65.3526Z" fill="#00A3B9"/>
<path fill-rule="evenodd" clip-rule="evenodd" d="M237.347 63.8756C237.546 64.0727 237.548 64.3934 237.35 64.5921L230.367 71.6342C230.169 71.8328 229.849 71.8343 229.65 71.6373C229.452 71.4402 229.45 71.1194 229.647 70.9208L236.631 63.8787C236.828 63.68 237.149 63.6785 237.347 63.8756Z" fill="#00A3B9"/>
<path fill-rule="evenodd" clip-rule="evenodd" d="M247.009 65.8354C247.203 66.0371 247.197 66.3578 246.996 66.5518L237.819 75.383C237.618 75.5771 237.297 75.571 237.103 75.3694C236.909 75.1677 236.915 74.847 237.117 74.6529L246.293 65.8217C246.494 65.6277 246.815 65.6337 247.009 65.8354Z" fill="#00A3B9"/>
<path fill-rule="evenodd" clip-rule="evenodd" d="M269.052 70.2657C269.245 70.4684 269.238 70.7891 269.035 70.9821L262.986 76.7683C262.784 76.9618 262.463 76.9547 262.27 76.7521C262.076 76.5499 262.084 76.2292 262.286 76.0361L268.335 70.25C268.537 70.0565 268.858 70.0636 269.052 70.2657Z" fill="#00A3B9"/>
<path fill-rule="evenodd" clip-rule="evenodd" d="M280.559 70.6731C280.75 70.8778 280.738 71.1985 280.533 71.389L274.26 77.2197C274.055 77.4102 273.735 77.3986 273.544 77.1939C273.354 76.9887 273.365 76.6679 273.571 76.4774L279.843 70.6467C280.048 70.4562 280.369 70.4679 280.559 70.6731Z" fill="#00A3B9"/>
<path fill-rule="evenodd" clip-rule="evenodd" d="M170.119 107.787C169.917 106.011 169.83 104.221 169.859 102.433C168.735 101.993 167.484 102.065 166.28 102.144C161.68 102.445 157.079 102.746 152.479 103.047C151.719 103.096 150.943 103.145 150.207 102.948C149.455 102.746 148.595 102.312 147.973 102.779C147.433 103.184 147.478 103.992 147.576 104.659C147.761 105.915 147.946 107.17 148.132 108.425C148.163 108.639 148.205 108.872 148.371 109.011C148.523 109.138 148.738 109.15 148.937 109.155C155.391 109.326 161.851 109.267 168.301 108.977C169.118 108.941 170.212 108.6 170.119 107.787Z" fill="white"/>
<path fill-rule="evenodd" clip-rule="evenodd" d="M192.195 77.7142C192.338 77.1553 191.815 76.6071 191.25 76.4871C190.686 76.3665 190.106 76.5423 189.547 76.6826C187.316 77.2435 181.119 77.241 180.278 77.2465C177.815 77.2638 175.353 77.2805 172.891 77.2977C172.308 77.3018 171.814 77.7816 171.606 78.3273C171.399 78.8724 171.419 79.4738 171.44 80.057C171.463 80.6589 171.485 81.2614 171.507 81.8633C171.52 82.2225 171.567 82.642 171.876 82.827C172.009 82.907 172.169 82.9258 172.324 82.942C174.711 83.1938 177.117 83.2607 179.514 83.1426C183.755 82.9334 187.997 82.1455 192.221 82.5812C191.798 80.9964 191.789 79.3036 192.195 77.7142Z" fill="white"/>
<path fill-rule="evenodd" clip-rule="evenodd" d="M268.486 203.183C268.536 202.835 268.821 202.56 269.136 202.404C269.994 201.976 271.078 202.274 271.803 202.902C272.527 203.531 272.957 204.428 273.299 205.324C273.422 205.643 273.523 206.04 273.298 206.297C273.213 206.393 273.095 206.452 272.976 206.501C271.985 206.921 270.798 206.874 269.864 206.337C268.931 205.8 268.288 204.773 268.256 203.696C268.66 203.751 268.859 204.198 269.068 204.548C269.79 205.747 271.522 206.199 272.737 205.506C271.586 204.341 270.088 203.522 268.486 203.183Z" fill="#00A3B9"/>
<path fill-rule="evenodd" clip-rule="evenodd" d="M262.553 192.929C262.903 192.495 263.252 192.061 263.602 191.628C263.37 193.576 261.769 195.282 259.84 195.635C259.245 195.178 258.235 195.482 257.992 196.193C257.633 196.266 257.273 195.984 257.155 195.638C257.037 195.292 257.113 194.908 257.246 194.567C257.447 194.053 257.772 193.599 258.093 193.15C259.178 191.637 260.432 190.01 262.255 189.637C262.726 189.54 263.258 189.549 263.638 189.845C264.017 190.14 264.123 190.797 263.744 191.092C263.304 190.502 262.419 190.405 261.732 190.67C261.045 190.935 260.511 191.48 259.999 192.009C259.503 192.521 259.006 193.034 258.51 193.546C258.238 193.828 257.989 194.347 258.33 194.54C258.719 193.705 259.896 193.637 260.577 193.016C261.166 192.478 261.562 191.448 262.348 191.582C261.938 192.528 261.192 193.324 260.276 193.796C259.881 193.998 259.424 194.174 259.228 194.571C259.836 194.849 260.572 194.692 261.138 194.336C261.703 193.98 262.134 193.449 262.553 192.929Z" fill="#00A3B9"/>
<path fill-rule="evenodd" clip-rule="evenodd" d="M246.066 190.922C247.027 191.092 248.07 190.553 248.487 189.671C248.905 188.789 248.661 187.642 247.921 187.005C248.134 186.744 248.547 186.711 248.846 186.868C249.145 187.026 249.341 187.332 249.453 187.65C249.813 188.67 249.412 189.835 248.71 190.658C248.009 191.482 247.049 192.034 246.109 192.569C245.674 192.817 245.218 193.071 244.718 193.101C244.218 193.132 243.662 192.867 243.53 192.384C243.487 192.226 243.496 192.045 243.596 191.914C244.083 191.276 245.23 192.79 245.754 192.182C245.627 191.696 245.502 191.209 245.376 190.722C245.603 190.801 245.83 190.88 246.066 190.922Z" fill="#00A3B9"/>
<path fill-rule="evenodd" clip-rule="evenodd" d="M237.255 189.426C236.183 189.295 235.42 188.136 235.537 187.063C235.654 185.989 236.496 185.085 237.497 184.68C237.803 184.556 238.186 184.483 238.439 184.696C238.692 184.909 238.518 185.461 238.202 185.364C237.429 185.124 236.69 185.902 236.476 186.682C236.34 187.179 236.332 187.741 236.607 188.177C236.882 188.612 237.501 188.847 237.941 188.579C238.258 188.386 238.581 188.833 238.657 189.197C238.732 189.561 238.899 190.041 239.268 189.998C239.874 189.696 240.101 188.968 240.447 188.385C240.792 187.803 241.574 187.296 242.106 187.716C242.174 187.769 242.236 187.843 242.239 187.93C242.244 188.025 242.179 188.108 242.119 188.18C241.526 188.88 240.872 189.528 240.165 190.113C239.692 190.504 239.038 190.883 238.503 190.581C237.997 190.295 237.832 189.496 237.255 189.426Z" fill="#00A3B9"/>
<path fill-rule="evenodd" clip-rule="evenodd" d="M242.416 200.411C241.892 199.945 241.357 199.467 241.015 198.855C240.672 198.243 240.551 197.46 240.883 196.842C240.974 196.673 241.114 196.509 241.304 196.479C241.493 196.448 241.711 196.624 241.656 196.808C241.414 197.613 241.766 198.558 242.474 199.009C242.749 199.183 243.116 199.51 242.886 199.739C242.612 200.012 243.111 200.382 243.493 200.445C244.227 200.565 244.96 200.684 245.693 200.804C245.55 201.409 244.805 201.702 244.197 201.572C243.59 201.443 243.096 201.015 242.631 200.602C242.56 200.538 242.488 200.474 242.416 200.411Z" fill="#00A3B9"/>
<path fill-rule="evenodd" clip-rule="evenodd" d="M215.402 218.794C215.475 218.344 215.548 217.895 215.621 217.445C215.662 217.187 215.706 216.923 215.83 216.693C215.978 216.418 216.228 216.215 216.472 216.02C217.14 215.482 217.807 214.945 218.476 214.408C219.002 214.81 219.107 215.658 218.696 216.176C218.662 215.699 218.353 215.252 217.919 215.053C217.433 216.494 216.554 217.801 215.402 218.794Z" fill="#00A3B9"/>
<path fill-rule="evenodd" clip-rule="evenodd" d="M266.943 212.2C267.19 213.523 267.697 214.797 268.426 215.928C269 216.819 268.475 217.984 267.949 218.904C267.712 218.997 267.488 218.689 267.528 218.437C267.567 218.186 267.751 217.986 267.87 217.761C268.336 216.878 267.757 215.832 267.243 214.975C266.729 214.12 266.287 212.952 266.943 212.2Z" fill="#00A3B9"/>
<path fill-rule="evenodd" clip-rule="evenodd" d="M171.317 108.95C171.307 109.257 171.292 109.579 171.132 109.841C170.84 110.318 170.198 110.411 169.639 110.453C162.111 111.017 154.546 111.098 147.008 110.696C146.914 110.691 146.817 110.686 146.733 110.645C146.525 110.543 146.469 110.279 146.438 110.05C146.228 108.518 146.018 106.986 145.808 105.455C145.658 104.359 145.531 103.153 146.139 102.23C146.964 100.973 148.715 100.824 150.218 100.803C157.049 100.707 163.88 100.611 170.711 100.516C170.998 100.512 171.339 100.534 171.491 100.779C171.58 100.92 171.577 101.097 171.571 101.264C171.487 103.826 171.402 106.387 171.317 108.95ZM170.119 107.786C169.917 106.01 169.83 104.22 169.859 102.433C168.735 101.993 167.484 102.065 166.28 102.144C161.679 102.445 157.079 102.745 152.479 103.046C151.719 103.096 150.942 103.144 150.207 102.947C149.455 102.746 148.595 102.312 147.972 102.779C147.433 103.183 147.477 103.991 147.576 104.659C147.761 105.914 147.946 107.169 148.131 108.425C148.163 108.638 148.205 108.871 148.37 109.01C148.523 109.138 148.738 109.149 148.937 109.154C155.391 109.326 161.851 109.266 168.301 108.977C169.118 108.94 170.212 108.599 170.119 107.786Z" fill="#00A3B9"/>
<path fill-rule="evenodd" clip-rule="evenodd" d="M261.419 205.614C261.763 204.401 262.373 203.265 263.192 202.308C263.178 203.608 262.494 204.882 261.419 205.614Z" fill="#00A3B9"/>
<path fill-rule="evenodd" clip-rule="evenodd" d="M264.504 212.944C264.28 213.637 263.934 214.29 263.486 214.864C263.296 215.109 263.053 215.357 262.743 215.373C263.145 214.435 263.608 213.43 264.504 212.944Z" fill="#00A3B9"/>
<path fill-rule="evenodd" clip-rule="evenodd" d="M270.026 216.655C270.523 217.003 271.021 217.352 271.519 217.7C271.629 217.778 271.754 217.917 271.675 218.027C270.919 217.955 270.234 217.385 270.026 216.655Z" fill="#00A3B9"/>
<path fill-rule="evenodd" clip-rule="evenodd" d="M270.938 216.46C270.423 216.618 269.987 215.775 270.412 215.445C270.701 215.726 270.914 216.083 271.023 216.471L270.938 216.46Z" fill="#00A3B9"/>
<path fill-rule="evenodd" clip-rule="evenodd" d="M264.393 201.955C264.769 202.431 264.781 203.115 264.579 203.686C264.376 204.257 263.99 204.74 263.61 205.212C263.255 205.653 262.806 206.137 262.243 206.094C262.146 205.71 262.502 205.38 262.792 205.112C263.676 204.293 264.254 203.152 264.393 201.955Z" fill="#00A3B9"/>
<path fill-rule="evenodd" clip-rule="evenodd" d="M268.581 214.394C269.21 213.821 270.154 213.617 270.963 213.881C271.772 214.145 272.415 214.866 272.585 215.7C272.709 216.311 272.772 217.167 273.392 217.227C273.504 217.627 272.792 217.778 272.535 217.453C272.277 217.128 272.324 216.668 272.259 216.258C272.086 215.162 270.901 214.338 269.814 214.556C269.37 214.645 268.765 214.807 268.581 214.394Z" fill="#00A3B9"/>
<path fill-rule="evenodd" clip-rule="evenodd" d="M221.716 221.425C221.415 220.459 222.105 219.349 221.681 218.431C221.541 218.129 221.297 217.892 221.082 217.637C220.376 216.797 219.975 215.703 219.972 214.604C219.971 214.27 220.123 213.83 220.456 213.862C220.894 213.905 220.781 214.558 220.753 214.997C220.697 215.831 221.423 216.473 221.88 217.173C222.56 218.214 222.664 219.607 222.145 220.738C221.954 221.154 222.333 221.587 222.596 221.962C223.281 222.937 223.224 224.367 222.465 225.285C222.179 225.094 222.167 224.673 222.271 224.346C222.376 224.019 222.566 223.713 222.586 223.37C222.628 222.65 221.93 222.112 221.716 221.425Z" fill="#00A3B9"/>
<path fill-rule="evenodd" clip-rule="evenodd" d="M236.501 119.754C236.895 119.32 237.568 119.793 238.117 120C239.182 120.398 240.356 119.63 241.481 119.792C240.855 121.085 239.084 121.236 237.66 121.052C237.303 121.005 236.927 120.941 236.652 120.709C236.377 120.477 236.259 120.021 236.501 119.754Z" fill="#00A3B9"/>
<path fill-rule="evenodd" clip-rule="evenodd" d="M239.27 115.637C239.062 115.371 239.093 114.995 239.136 114.66C239.165 114.421 239.196 114.183 239.226 113.944C239.296 113.383 239.528 112.668 240.094 112.664C240.685 112.659 240.91 113.43 240.923 114.021C240.933 114.534 240.906 115.085 240.595 115.493C240.284 115.9 239.587 116.04 239.27 115.637Z" fill="#00A3B9"/>
<path fill-rule="evenodd" clip-rule="evenodd" d="M235.716 112.965C235.994 113.029 236.058 113.39 236.064 113.675C236.083 114.62 235.888 115.848 234.958 116.023C234.504 115.164 234.589 114.048 235.168 113.269C235.3 113.091 235.501 112.915 235.716 112.965Z" fill="#00A3B9"/>
<path fill-rule="evenodd" clip-rule="evenodd" d="M237.553 114.204C237.623 114.326 237.577 114.478 237.536 114.613C237.141 115.935 237.579 117.467 238.612 118.382C237.839 118.87 236.76 118.196 236.493 117.322C236.226 116.449 236.511 115.513 236.796 114.644C236.911 114.289 237.368 113.881 237.553 114.204Z" fill="#00A3B9"/>
<path fill-rule="evenodd" clip-rule="evenodd" d="M193.616 83.9553C192.259 84.042 190.903 84.1281 189.548 84.2142C183.68 84.5882 177.813 84.9616 171.946 85.335C171.118 85.3877 170.005 85.2195 169.909 84.3956C169.612 81.842 169.666 79.2479 170.07 76.709C170.238 75.6511 171.609 75.3684 172.68 75.3329C179.161 75.1191 185.642 74.9058 192.122 74.6919C192.92 74.6656 193.628 75.2787 193.962 76.0032C194.297 76.7277 194.336 77.549 194.37 78.3465C194.434 79.8721 194.499 81.3982 194.564 82.9238C194.575 83.1893 194.577 83.4821 194.406 83.6848C194.221 83.9031 193.901 83.9371 193.616 83.9553ZM192.195 77.7152C192.338 77.1564 191.814 76.6087 191.25 76.4881C190.686 76.3675 190.106 76.5433 189.547 76.6842C187.316 77.2445 181.119 77.242 180.278 77.2481C177.815 77.2648 175.353 77.282 172.891 77.2987C172.308 77.3028 171.814 77.7831 171.606 78.3283C171.399 78.8735 171.418 79.4749 171.44 80.0581C171.462 80.6605 171.485 81.2624 171.507 81.8648C171.52 82.2241 171.567 82.6436 171.876 82.828C172.009 82.9081 172.169 82.9268 172.324 82.943C174.711 83.1948 177.117 83.2622 179.514 83.1436C183.755 82.9344 187.997 82.1465 192.221 82.5828C191.798 80.9979 191.789 79.3046 192.195 77.7152Z" fill="#00A3B9"/>
<path fill-rule="evenodd" clip-rule="evenodd" d="M95.4215 187.72C95.1454 187.809 94.7304 187.824 94.6808 187.537C95.1003 187.037 95.9677 187.014 96.4131 187.492C96.176 187.75 95.7803 187.849 95.4489 187.734L95.4215 187.72Z" fill="#00A3B9"/>
<path fill-rule="evenodd" clip-rule="evenodd" d="M241.926 111.262C242.302 111.665 242.648 112.116 242.806 112.644C242.911 112.994 242.411 113.268 242.073 113.128C241.735 112.989 241.545 112.639 241.344 112.333C241.142 112.028 240.846 111.718 240.481 111.744C240.111 111.771 239.871 111.266 240.053 110.943C240.235 110.62 240.676 110.518 241.032 110.623C241.388 110.728 241.672 110.992 241.926 111.262Z" fill="#00A3B9"/>
<path fill-rule="evenodd" clip-rule="evenodd" d="M110.828 178.147C110.384 176.017 109.891 173.876 108.964 171.909C108.036 169.941 106.63 168.137 104.723 167.089C103.719 166.536 102.61 166.209 101.552 165.767C100.258 165.226 99.0371 164.51 97.9331 163.644C98.9186 163.088 100.14 163.61 101.144 164.13C103.486 165.344 105.881 166.598 107.647 168.556C109.998 171.162 110.966 174.709 111.665 178.148C111.411 178.294 111.081 178.293 110.828 178.147Z" fill="#00A3B9"/>
<path fill-rule="evenodd" clip-rule="evenodd" d="M99.8487 196.534C99.8533 196.363 99.8913 196.162 100.047 196.094C100.542 195.879 100.709 197.274 101.155 196.97C101.674 196.616 102.406 197.389 102.136 197.956C101.865 198.523 101.011 198.604 100.512 198.222C100.014 197.84 99.832 197.161 99.8487 196.534Z" fill="#00A3B9"/>
<path fill-rule="evenodd" clip-rule="evenodd" d="M98.1939 190.371C97.6356 189.437 97.8362 188.235 98.2339 187.222C98.4736 186.611 98.8404 185.97 99.4667 185.774C100.093 185.578 100.916 186.183 100.668 186.791C100.084 186.978 99.4748 187.201 99.077 187.669C98.6788 188.137 98.5927 188.926 99.0552 189.33C99.2853 189.531 99.2392 189.899 99.1373 190.187C99.035 190.474 98.8946 190.783 98.9975 191.071C99.0998 191.359 99.604 191.453 99.6759 191.156C99.7555 190.83 100.262 190.843 100.501 191.078C100.74 191.314 100.836 191.662 101.057 191.915C101.278 192.168 101.757 192.261 101.907 191.96C102.05 191.674 102.516 191.693 102.71 191.947C102.904 192.201 102.865 192.573 102.711 192.854C102.376 193.463 101.518 193.715 100.907 193.383C100.547 193.188 100.3 192.842 99.9951 192.569C99.6906 192.296 99.2559 192.087 98.8799 192.249C98.5212 192.403 98.2081 191.911 98.2258 191.521C98.2436 191.131 98.3941 190.706 98.1939 190.371Z" fill="#00A3B9"/>
<path fill-rule="evenodd" clip-rule="evenodd" d="M85.0577 126.432C85.7827 125.804 86.0411 124.694 85.6667 123.811C85.5273 123.481 85.3916 122.966 85.7391 122.88C86.7976 123.806 86.8872 125.63 85.9251 126.655C85.7579 126.834 85.5339 126.998 85.2912 126.965C85.0491 126.933 84.8727 126.592 85.0577 126.432Z" fill="#00A3B9"/>
<path fill-rule="evenodd" clip-rule="evenodd" d="M83.379 120.844C83.9196 120.858 84.3265 121.404 84.3731 121.942C84.4192 122.481 84.1973 123.004 83.9606 123.49C83.8142 123.79 83.57 124.137 83.2407 124.08C82.9919 124.038 82.8475 123.783 82.7401 123.555C82.5019 123.048 82.2714 122.506 82.3246 121.948C82.3778 121.39 82.8186 120.828 83.379 120.844Z" fill="#00A3B9"/>
<path fill-rule="evenodd" clip-rule="evenodd" d="M87.1729 123.379C86.7093 123.505 86.4524 122.848 86.4666 122.368C86.4793 121.943 86.5401 121.498 86.7889 121.153C87.0371 120.807 87.6568 120.393 87.8934 120.964C88.1295 121.536 87.9886 122.401 87.5484 123.055C87.4541 123.196 87.3356 123.334 87.1729 123.379Z" fill="#00A3B9"/>
<path fill-rule="evenodd" clip-rule="evenodd" d="M81.8448 126.734C82.0034 126.704 82.1625 126.674 82.3216 126.645C82.3693 127.175 82.884 127.533 83.379 127.728C83.8746 127.922 84.4263 128.046 84.7987 128.427C84.9335 128.564 85.0257 128.816 84.8691 128.929C84.8007 128.978 84.709 128.976 84.6244 128.971C83.3248 128.885 81.9117 128.034 81.8448 126.734Z" fill="#00A3B9"/>
<path fill-rule="evenodd" clip-rule="evenodd" d="M81.6736 120.088C81.3194 120.008 81.3098 119.44 81.6011 119.224C81.8924 119.008 82.2998 119.057 82.6484 119.158C83.4165 119.381 84.1233 119.812 84.6735 120.393C83.718 120.819 82.5237 119.478 81.6736 120.088Z" fill="#00A3B9"/>
<path fill-rule="evenodd" clip-rule="evenodd" d="M59.5054 189.902C60.4265 190.334 61.6603 189.463 61.563 188.45C62.1558 188.964 62.8104 189.687 62.5439 190.425C62.4446 190.7 62.2272 190.916 61.9962 191.096C61.1865 191.724 60.1595 192.002 59.1467 192.161C58.0857 192.327 56.8951 192.346 56.0596 191.671C55.2347 191.004 55.0082 189.705 55.559 188.799C55.6948 188.575 55.8868 188.366 56.1401 188.304C56.6959 188.167 57.1631 188.816 57.1565 189.389C57.1499 189.961 56.8637 190.492 56.7684 191.056C56.7512 191.156 56.7405 191.261 56.7654 191.36C56.8692 191.772 57.501 191.787 57.8147 191.5C58.1283 191.213 58.2443 190.775 58.4612 190.409C58.678 190.043 59.1204 189.722 59.5054 189.902ZM59.5237 191.672C59.703 191.504 59.8824 191.337 60.0617 191.169C59.9938 190.954 59.705 190.844 59.512 190.961C59.319 191.077 59.2815 191.384 59.4401 191.544L59.5237 191.672Z" fill="#00A3B9"/>
<path fill-rule="evenodd" clip-rule="evenodd" d="M55.2728 195.953C55.4881 196.561 56.3302 196.717 56.9184 196.453C57.0334 196.401 57.1505 196.331 57.2027 196.216C57.3552 195.883 56.8688 195.547 56.9382 195.187C56.997 194.883 57.4008 194.797 57.7038 194.861C58.0067 194.924 58.3188 195.067 58.6127 194.971C58.9537 194.859 59.1153 194.475 59.2009 194.126C59.2861 193.777 59.3535 193.391 59.625 193.157C59.8971 192.923 60.4458 193.023 60.457 193.382C60.4793 194.077 59.9493 194.662 59.3945 195.08C58.8397 195.499 58.2048 195.856 57.8405 196.448C57.495 197.01 57.2944 197.842 56.6377 197.908C56.4275 197.928 56.2192 197.853 56.0287 197.762C54.6582 197.106 53.8424 195.458 54.151 193.97C54.2878 193.31 54.9485 192.585 55.5251 192.934C55.9917 193.216 55.8985 193.923 55.6604 194.414C55.4227 194.904 55.0909 195.439 55.2728 195.953Z" fill="#00A3B9"/>
<path fill-rule="evenodd" clip-rule="evenodd" d="M91.998 151.235C92.6232 159.933 98.3714 167.295 103.874 174.061C105.437 175.983 107.103 177.983 109.406 178.895C113.743 180.612 119.127 178.011 123.134 180.399C102.17 180.447 81.208 181.596 60.3643 183.837C58.5707 184.03 56.7178 184.226 54.9931 183.696C53.2684 183.166 51.6922 181.708 51.6207 179.905C50.7047 156.867 49.7886 133.828 48.8731 110.789C48.7033 106.522 48.5316 102.236 47.7528 98.0366C46.7334 92.5403 46.7091 86.9143 46.6878 81.3242C46.6605 74.0556 46.6331 66.7869 46.6052 59.5188C70.2326 58.4958 93.897 58.322 117.537 58.9979C118.507 60.4409 118.703 62.2512 118.865 63.982C121.609 93.282 122.46 122.722 123.311 152.138C123.565 160.952 123.82 169.767 124.075 178.581C123.638 178.435 123.201 178.29 122.763 178.144C121.733 150.308 120.702 122.473 119.672 94.6379C119.652 94.1064 119.598 93.5035 119.179 93.1761C118.858 92.9253 118.417 92.9162 118.009 92.9172C96.0949 92.9973 74.1811 93.0773 52.2672 93.1569C50.5684 93.163 48.1815 94.0466 48.7327 95.6538C51.3947 103.414 50.4559 111.867 50.4878 120.071C50.5055 124.63 50.8329 129.181 51.1602 133.729C51.5599 139.275 51.9592 144.82 52.3584 150.366C53.3069 147.905 54.2554 145.444 55.2039 142.982C55.4238 142.412 55.6224 141.701 55.2165 141.243C52.2019 137.842 53.1468 131.766 57.0522 129.442C57.8021 128.996 58.6411 128.666 59.2552 128.046C60.9834 126.302 60.1662 123.226 61.4409 121.127C63.3328 118.011 69.1777 117.895 69.3809 114.256C69.5643 110.968 72.5486 108.317 75.7801 107.687C79.0116 107.058 82.3602 108.082 85.2705 109.622C88.1114 111.124 90.9279 113.562 91.05 116.774C91.0982 118.038 90.7141 119.273 90.3346 120.479C88.9585 124.849 87.3427 129.551 83.5427 132.109C88.4453 137.259 91.4888 144.143 91.998 151.235ZM88.3865 162.864C91.2076 168.418 96.5621 172.374 99.3153 177.962C99.4389 178.212 99.5671 178.478 99.8007 178.632C100.066 178.807 100.407 178.799 100.725 178.79C103.134 178.721 105.55 178.967 107.895 179.522C102.345 174.708 98.1586 168.533 94.3611 162.243C92.9916 159.975 91.6271 157.566 91.4929 154.919C91.1007 147.202 88.2679 139.626 83.5002 133.544C81.7476 131.308 77.976 131.741 75.963 133.745C73.9495 135.749 73.305 138.732 73.0117 141.558C72.9164 142.477 72.8516 143.431 73.1561 144.304C73.4611 145.177 74.2282 145.953 75.1518 145.986C76.076 146.018 76.9753 145.047 76.6551 144.179C76.9829 144.882 77.3113 145.585 77.6396 146.288C76.2929 147.736 73.6805 147.265 72.4422 145.724C71.2034 144.183 71.0985 141.996 71.5216 140.065C72.5197 135.506 76.3263 131.687 80.8812 130.674C80.9349 129.785 79.6201 129.521 78.8105 129.891C78.0013 130.262 77.2297 130.946 76.3526 130.792C75.5511 130.65 75.0941 131.644 74.8093 132.407C73.2062 136.703 68.6199 138.923 64.9111 141.62C63.6465 142.54 62.3985 143.58 60.8806 143.954C59.3626 144.329 57.4692 143.773 56.9281 142.306C52.2845 154.305 51.1845 167.65 53.8014 180.247C53.9874 181.143 54.8112 181.795 55.6898 182.049C56.5683 182.302 57.5036 182.231 58.4151 182.157C71.9315 181.064 85.4483 179.971 98.9647 178.877C95.7453 172.674 89.6886 168.209 86.9298 161.788C86.2864 160.29 85.8324 158.703 85.0151 157.292C83.7778 155.156 81.7603 153.512 80.75 151.259C79.5305 152.937 78.3104 154.615 77.0903 156.293C76.8162 156.671 76.9429 157.194 77.0807 157.64C77.3867 158.629 77.7065 159.644 78.3575 160.448C79.0086 161.252 80.0782 161.807 81.0803 161.549C83.1242 161.025 85.4524 161.908 86.6349 163.656C84.135 163.184 81.6352 162.713 79.1353 162.241C78.7735 162.173 78.3935 162.096 78.1128 161.858C77.8747 161.656 77.7379 161.361 77.6082 161.077C77.143 160.055 76.6779 159.034 76.2128 158.012C75.8075 157.122 75.4097 156.046 75.927 155.215C76.3648 154.512 77.2748 154.3 77.9578 153.83C79.8415 152.534 79.5948 149.664 78.7365 147.545C77.8777 145.425 76.5913 143.242 77.0873 141.009C78.1037 144.312 79.1434 147.666 81.0403 150.554C82.4407 152.687 84.2789 154.517 85.5628 156.722C86.6973 158.67 87.3656 160.854 88.3865 162.864ZM48.2473 61.6311C48.3051 66.793 48.3629 71.9549 48.4206 77.1173C48.4338 78.2548 48.8518 79.7931 49.9857 79.7034C72.3941 77.9224 94.9037 77.4163 117.369 78.1879C117.992 78.2092 118.506 77.6372 118.644 77.0302C118.782 76.4232 118.639 75.7919 118.505 75.1839C117.486 70.5504 117.002 65.7994 117.064 61.0555C117.074 60.3026 116.072 60.0488 115.319 60.0351C93.2946 59.6328 71.2606 59.7544 49.2419 60.3994C49.0256 60.406 48.7966 60.4161 48.6147 60.5331C48.2747 60.7515 48.2428 61.2273 48.2473 61.6311ZM119.598 90.7817C119.682 86.9092 119.447 83.0302 118.896 79.1962C117.092 79.8746 115.114 80.0824 113.209 79.7941C111.32 79.5083 109.401 79.4921 107.49 79.4764C98.7326 79.4039 89.9734 79.3315 81.2161 79.486C70.6197 79.6735 60.0314 80.1928 49.4502 80.7952C49.1614 80.812 48.8493 80.8373 48.6304 81.0268C48.3456 81.2725 48.3218 81.6976 48.3218 82.0736C48.3183 85.0735 48.4475 88.0735 48.7074 91.0623C48.7231 91.2432 48.7439 91.4357 48.8589 91.5761C49.0403 91.7975 49.3711 91.8005 49.6564 91.7853C70.5817 90.657 91.5562 91.3851 112.512 91.4043C114.89 91.4069 117.3 91.3957 119.598 90.7817ZM70.7646 112.4C70.1972 113.77 70.1738 115.362 69.3601 116.602C67.7074 119.121 63.6019 119.086 62.056 121.672C60.8046 123.766 61.7606 126.812 60.1175 128.615C59.2911 129.522 58.0179 129.847 56.9868 130.51C54.8254 131.9 53.9235 134.825 54.5873 137.308C55.251 139.79 57.2766 141.776 59.6489 142.765C60.0704 142.941 60.5229 143.091 60.9763 143.035C61.4881 142.972 61.9294 142.657 62.3453 142.352C65.2161 140.247 68.0864 138.143 70.9571 136.038C72.0141 135.263 73.1115 134.441 73.682 133.262C74.6492 131.263 73.951 128.561 75.4766 126.948C76.0654 126.325 76.9105 125.975 77.4389 125.3C77.9674 124.626 77.9025 123.363 77.0645 123.186C76.151 122.992 76.3917 121.539 77.1172 120.951C77.8427 120.363 78.8733 119.995 79.1464 119.102C79.4038 118.26 79.0167 117 79.8497 116.714C80.329 116.55 80.8037 116.923 81.2283 117.199C83.0994 118.419 85.9246 117.781 87.0899 115.875C87.5429 115.135 88.7077 115.923 88.92 116.765C89.1318 117.607 89.1637 118.692 89.9627 119.031C90.7541 117.79 90.516 116.101 89.7403 114.849C88.9646 113.597 87.7425 112.696 86.5214 111.874C84.0155 110.184 81.2663 108.646 78.2532 108.419C75.24 108.192 71.9208 109.608 70.7646 112.4ZM79.7458 123.245C79.0491 125.799 75.4604 126.907 75.166 129.538C75.8369 130.274 77.0681 129.926 77.8975 129.375C78.3205 129.094 78.7289 128.759 78.9594 128.307C79.1905 127.855 79.2047 127.262 78.8799 126.872C78.5977 126.533 79.2341 126.073 79.6115 126.302C79.9885 126.53 80.0832 127.022 80.1977 127.448C80.4425 128.356 80.943 129.193 81.627 129.838C82.197 130.376 83.0295 130.792 83.7485 130.482C84.0449 130.354 84.2799 130.119 84.4993 129.882C86.7733 127.425 88.1874 124.187 88.4442 120.849C88.4736 120.47 88.4569 120.022 88.1463 119.802C87.8413 119.587 87.4274 119.712 87.0575 119.762C86.6876 119.813 86.1962 119.674 86.1789 119.301C86.6015 118.892 87.3245 118.842 87.7993 119.19C87.9994 119.336 88.1955 118.99 88.1884 118.743C88.1681 118.034 87.9401 117.332 87.5398 116.747C86.6587 117.729 85.5157 118.526 84.2181 118.767C82.9211 119.01 81.4674 118.62 80.6309 117.6C80.1258 118.677 79.9018 119.885 79.9865 121.072C80.0169 121.499 79.3972 121.63 78.9924 121.493C78.5881 121.355 78.1255 121.116 77.7693 121.352C77.4237 121.582 77.4627 122.139 77.7394 122.449C78.0155 122.758 78.4386 122.883 78.8383 122.993C79.1408 123.078 79.4433 123.161 79.7458 123.245ZM54.2468 147.891C54.3086 147.629 54.337 147.286 54.1009 147.156C53.5055 148.906 52.9467 150.669 52.4243 152.442C52.2237 153.123 52.0367 153.892 52.3812 154.512C52.6295 154.522 52.7572 154.223 52.8139 153.981C53.2917 151.951 53.7695 149.921 54.2468 147.891Z" fill="#00A3B9"/>
<path fill-rule="evenodd" clip-rule="evenodd" d="M110.206 199.101C123.106 198.061 136.066 197.757 149.001 198.19C148.624 193.841 148.247 189.492 147.87 185.143C134.673 185.738 121.477 186.333 108.28 186.928C107.874 190.791 106.376 194.533 104.003 197.609C102.86 199.091 103.843 201.184 104.577 202.905C105.311 204.627 105.37 207.237 103.567 207.737C101.187 206.566 99.4915 204.108 99.2413 201.468C89.4823 201.893 79.7234 202.319 69.965 202.744C66.3378 202.902 61.8609 203.676 60.7812 207.142C60.3597 204.411 56.7527 203.783 53.9893 203.82C45.7312 203.931 37.473 204.042 29.2148 204.153C29.0889 200.383 28.963 196.613 28.8371 192.844C28.8127 192.113 28.7956 191.347 29.1232 190.694C30.0028 188.94 32.529 189.127 34.4386 189.577C33.8245 183.439 33.2109 177.302 32.5969 171.164C29.7496 171.816 30.6656 164.515 27.7996 165.079C26.0646 165.42 24.4289 163.827 24.0587 162.098C23.6884 160.369 24.2285 158.589 24.7629 156.904C26.3736 156.412 28.682 156.899 30.3144 156.412C31.9468 155.925 32.9414 154.984 32.8846 153.282C31.7006 117.927 29.1438 82.6182 25.2225 47.4622C22.7191 48.5393 19.738 46.5958 18.7309 44.0634C17.7238 41.5311 18.1551 38.6791 18.6821 36.0049C18.867 35.0666 19.0941 34.0699 19.7832 33.4067C20.6616 32.5611 22.0118 32.5079 23.231 32.5054C61.4895 32.4182 99.7479 32.3311 138.006 32.2439C138.84 32.2424 139.759 32.2713 140.375 32.8332C140.938 33.3464 141.087 34.1611 141.204 34.9146C141.659 37.8441 142.105 40.8978 141.211 43.724C140.317 46.5502 137.644 49.0511 134.7 48.705C136.31 83.5976 137.921 118.49 139.531 153.382C142.156 152.808 145.225 153.78 146.535 156.126C147.844 158.472 146.65 162.017 144.028 162.605C145.701 163.995 144.893 166.955 143.053 168.115C141.212 169.274 138.871 169.156 136.705 168.958C134.538 168.76 132.226 168.549 130.306 169.57C130.759 173.774 130.702 178.033 130.137 182.224C132.001 181.113 134.522 181.229 136.276 182.507C137.493 183.394 138.598 181.236 138.587 179.73C138.56 176.222 138.533 172.715 138.506 169.207C140.406 173.564 140.935 178.507 139.999 183.167C142.341 183.35 144.684 183.533 147.025 183.715C147.73 183.77 148.492 183.85 149.009 184.332C149.523 184.811 149.656 185.563 149.746 186.26C150.322 190.763 150.236 195.349 149.491 199.826C134.316 198.774 119.036 199.234 103.952 201.196C105.516 199.579 107.963 199.282 110.206 199.101ZM65.1836 187.679C66.2725 184.651 70.2493 184.107 73.4661 184.071C74.9471 184.054 76.4276 184.038 77.9086 184.021C81.1112 183.985 84.326 183.95 87.5023 184.36C87.8975 184.832 88.2927 185.303 88.6879 185.774C89.9541 185.372 91.4568 185.905 92.1854 187.016C94.3519 184.767 97.0246 182.809 100.115 182.354C103.204 181.899 106.719 183.327 107.901 186.218C108.327 184.752 108.86 183.196 110.092 182.294C111.324 181.392 113.455 181.611 113.959 183.053C115.948 180.848 119.966 181.032 121.745 183.409C121.765 182.251 123.335 181.844 124.469 182.079C125.603 182.313 126.854 182.816 127.845 182.218C128.912 181.574 128.977 180.078 128.916 178.833C126.929 137.961 124.941 97.0886 122.954 56.2169C122.94 55.9296 122.914 55.6139 122.71 55.4113C122.498 55.1995 122.165 55.1827 121.865 55.1792C95.8674 54.8483 69.8698 54.5175 43.8717 54.1866C43.3134 54.1795 42.6876 54.1988 42.2985 54.5996C41.9312 54.9775 41.9074 55.5612 41.9053 56.0882C41.7908 88.8776 43.097 121.673 45.8193 154.349C45.9267 155.633 46.6356 157.365 47.8703 156.997C47.9326 160.686 47.9955 164.375 48.0578 168.064C48.072 168.899 48.0183 169.876 47.3317 170.353C46.9507 170.619 46.4608 170.657 45.9972 170.686C42.2012 170.925 38.4053 171.164 34.6093 171.403C35.2021 177.27 35.7949 183.135 36.3877 189.001C39.7849 189.115 43.1923 188.937 46.5591 188.468C44.9458 183.373 44.3784 177.951 44.9023 172.633C46.0407 172.726 46.3995 174.199 46.4577 175.34C46.5971 178.078 46.7364 180.815 46.8752 183.553C46.9492 185.001 47.0586 186.55 47.9509 187.693C48.8426 188.837 50.8227 189.225 51.6936 188.066C54.7959 183.936 61.8498 183.734 65.1836 187.679ZM137.28 136.925C135.905 107.549 134.529 78.1722 133.153 48.7957C97.5292 48.4355 61.9055 48.0752 26.2818 47.715C31.4003 83.5692 32.8694 119.832 34.3317 156.02C37.6843 156.417 41.0835 156.416 44.4361 156.018C43.4709 141.724 42.5062 127.431 41.541 113.138C41.198 108.058 40.855 102.977 40.6868 97.8887C40.547 93.6555 40.5282 89.4192 40.5095 85.1835C40.4664 75.382 40.4228 65.5801 40.3798 55.7781C40.3747 54.7014 40.7126 53.2549 41.7893 53.2599C68.8149 53.3922 95.84 53.5244 122.865 53.6567C123.46 53.6597 124.161 53.719 124.47 54.2277C124.619 54.4739 124.638 54.7754 124.652 55.0637C125.749 76.6745 126.845 98.2864 127.703 119.908C127.847 123.514 127.983 127.12 128.119 130.726C128.403 138.226 128.687 145.726 128.97 153.226C128.997 153.942 129.976 154.114 130.691 154.067C133.147 153.904 135.604 153.741 138.06 153.578C137.8 148.027 137.54 142.476 137.28 136.925ZM19.6237 43.2021C20.1333 44.9744 21.6164 46.6064 23.4592 46.6773C50.2435 47.713 77.0791 46.1484 103.862 47.2215C114.716 47.6562 125.652 48.5201 136.394 46.8987C137.128 46.7883 137.901 46.6479 138.468 46.1681C138.999 45.7187 139.269 45.0378 139.481 44.375C140.352 41.6441 140.562 38.7054 140.089 35.8782C139.971 35.1714 139.763 34.3998 139.163 34.0091C138.715 33.7178 138.146 33.7072 137.612 33.7056C121.477 33.6671 105.342 33.6286 89.2077 33.5901C86.5989 33.584 83.9901 33.578 81.3818 33.5719C72.8358 33.5511 64.2904 33.5309 55.7444 33.5106C44.6353 33.4842 33.5256 33.4579 22.4174 33.6297C20.6107 33.6575 19.8625 35.9223 19.6151 37.7119C19.3626 39.5389 19.1139 41.4298 19.6237 43.2021ZM90.2971 188.26C82.0359 188.56 73.7747 188.859 65.5135 189.159C66.1949 189.311 66.2644 190.288 65.9695 190.921C65.6746 191.554 65.1679 192.152 65.2338 192.848C65.4425 195.03 64.7656 197.286 63.3895 198.993C62.4147 200.203 61.0158 201.712 61.8229 203.04C64.1424 201.897 66.8055 201.734 69.3874 201.592C78.8738 201.07 88.3601 200.548 97.8464 200.026C98.464 197.726 95.0658 195.581 96.0087 193.395C96.2241 192.896 95.88 192.345 95.5527 191.911C94.2151 190.136 92.5188 188.18 90.2971 188.26ZM30.5811 192.997C30.7813 196.224 31.1864 199.438 31.7933 202.614C39.9243 202.589 48.0548 202.564 56.1857 202.54C56.5916 202.538 57.1692 202.213 56.9057 201.904C55.6152 200.39 54.3247 198.877 53.0343 197.365C52.3158 196.522 51.5705 195.625 51.3754 194.535C51.0811 192.888 52.0159 190.859 50.8135 189.696C44.4979 190.768 38.0714 191.185 31.6707 190.94C30.791 190.906 30.5266 192.118 30.5811 192.997ZM97.8428 196.409C98.5892 197.678 98.1296 199.602 99.3178 200.472C101.325 201.942 101.001 205.745 103.385 206.459C103.81 206.031 104.246 205.586 104.465 205.024C104.683 204.462 104.626 203.746 104.168 203.354C102.91 202.28 102.619 200.403 102.963 198.784C103.307 197.166 104.172 195.716 104.913 194.237C105.772 192.524 106.477 190.735 107.018 188.898C107.259 188.076 107.42 187.06 106.795 186.475C106.275 185.988 105.351 185.973 105.029 185.336C104.862 185.005 104.919 184.59 104.734 184.268C104.531 183.917 104.105 183.775 103.715 183.665C102.443 183.307 101.127 182.987 99.8138 183.13C98.5 183.272 97.174 183.96 96.6035 185.152C96.1202 186.161 94.4218 185.67 93.6355 186.467C92.839 187.273 93.5848 188.654 94.4968 189.327C95.4083 190.001 96.5843 190.582 96.8164 191.691C97.0241 192.688 96.3492 193.742 96.6613 194.711C96.8736 195.371 97.4912 195.811 97.8428 196.409ZM26.3736 163.574C26.7649 164.192 27.6202 164.27 28.3512 164.272C34.0819 164.284 39.7905 163.632 45.4839 162.981C46.5135 162.863 46.7663 161.47 46.5935 160.448C46.4202 159.426 46.1659 158.186 46.9522 157.511C40.395 157.04 33.7987 157.11 27.2524 157.718C26.9312 157.748 26.5807 157.793 26.3578 158.026C26.1156 158.279 26.1044 158.668 26.1077 159.018C26.1183 160.14 26.1288 161.261 26.1394 162.382C26.1432 162.793 26.1539 163.227 26.3736 163.574ZM63.2578 187.546C62.0408 186.714 60.613 185.842 59.1898 186.224C58.8234 186.323 58.4065 186.496 58.0928 186.282C56.5222 185.212 54.0197 186.101 53.4761 187.923C53.3028 188.504 52.6735 188.804 52.2915 189.275C51.909 189.746 52.0508 190.724 52.6512 190.636C53.1498 190.563 53.4046 191.288 53.1923 191.745C52.9801 192.202 52.5311 192.506 52.2773 192.941C51.6014 194.101 52.5372 195.509 53.4224 196.518C54.8046 198.094 56.1867 199.67 57.5689 201.246C58.7343 202.575 59.9249 203.946 60.5238 205.608C61.3836 205.034 61.2063 203.738 60.8906 202.753C60.575 201.77 60.2786 200.534 61.0381 199.832C61.3522 199.542 61.8153 199.393 62.0089 199.012C62.2024 198.63 61.6562 198.051 61.4161 198.405C60.9869 199.039 60.271 199.603 59.5221 199.447C58.7728 199.29 58.446 198.049 59.1589 197.771C59.4086 198.278 60.1762 198 60.6282 197.662C61.2727 197.179 61.9172 196.696 62.5616 196.213C63.3976 195.587 64.299 194.857 64.4621 193.825C64.6364 192.725 63.956 191.403 64.715 190.588C64.0806 190.04 64.4353 188.947 64.0021 188.229C63.8268 187.938 63.538 187.738 63.2578 187.546ZM129.231 162.112C129.949 161.763 130.766 161.69 131.562 161.621C135.645 161.266 139.725 160.866 143.8 160.42C144.307 160.365 144.831 160.303 145.27 160.043C146.154 159.519 146.423 158.269 146.026 157.322C145.63 156.374 144.707 155.726 143.727 155.42C142.747 155.114 141.701 155.104 140.674 155.113C137.273 155.144 133.873 155.352 130.493 155.736C129.894 155.805 129.223 155.919 128.875 156.412C128.562 156.853 128.619 157.447 128.69 157.984C128.87 159.36 129.05 160.736 129.231 162.112ZM32.0603 169.063C32.529 169.809 33.5078 170.076 34.3874 170.02C35.2665 169.965 36.1086 169.653 36.9775 169.509C39.7748 169.046 42.792 170.319 45.4074 169.225C45.6157 169.138 45.8269 169.029 45.9531 168.843C46.0777 168.658 46.101 168.426 46.1183 168.204C46.2009 167.145 46.2297 166.082 46.2044 165.02C46.2003 164.855 46.1862 164.669 46.0615 164.56C45.9653 164.476 45.8285 164.461 45.7008 164.451C41.0709 164.094 36.4729 165.539 31.8303 165.471C31.5186 165.467 31.4409 165.902 31.4733 166.212C31.5293 166.747 31.5984 167.282 31.6803 167.814C31.7472 168.247 31.8272 168.691 32.0603 169.063ZM143.472 163.016C143.43 162.795 143.373 162.562 143.209 162.408C142.977 162.19 142.617 162.205 142.3 162.234C138.601 162.575 134.904 162.939 131.21 163.326C130.705 163.379 130.125 163.479 129.873 163.92C129.566 164.458 129.948 165.117 129.973 165.735C129.989 166.123 129.865 166.54 130.047 166.882C130.289 167.337 130.909 167.39 131.425 167.381C132.921 167.356 134.417 167.307 135.913 167.257C138.246 167.18 140.58 167.103 142.913 167.026C143.373 167.011 143.569 166.438 143.612 165.98C143.706 164.992 143.658 163.991 143.472 163.016ZM129.229 183.572C129.039 183.468 128.899 183.288 128.709 183.186C128.304 182.97 127.801 183.161 127.423 183.422C127.044 183.682 126.694 184.017 126.247 184.12C125.799 184.222 125.223 183.936 125.247 183.478C125.282 182.849 124.372 182.601 123.803 182.872C123.234 183.144 122.822 183.688 122.234 183.917C121.844 184.069 121.385 184.078 121.064 184.347C120.744 184.617 120.817 185.31 121.234 185.281C125.551 184.978 129.868 184.674 134.185 184.37C134.549 184.344 134.971 184.284 135.152 183.967C135.426 183.486 134.831 182.905 134.278 182.916C133.724 182.927 133.241 183.27 132.727 183.475C131.836 183.83 130.842 183.774 129.884 183.711C129.66 183.697 129.426 183.68 129.229 183.572ZM76.9996 187.316C80.3416 187.106 83.6835 186.895 87.0255 186.685C87.2231 186.672 87.4405 186.651 87.5773 186.508C87.8438 186.231 87.558 185.733 87.1851 185.639C86.8122 185.546 86.4282 185.698 86.0553 185.791C85.6823 185.885 85.2289 185.898 84.9766 185.607C84.4466 184.997 83.4039 186.23 82.7148 185.806C81.7648 185.223 80.6436 184.884 79.5329 184.977C78.4218 185.07 77.332 185.624 76.7022 186.544C76.5471 186.771 76.4489 187.135 76.6855 187.274C76.7782 187.329 76.8927 187.323 76.9996 187.316ZM113.145 182.458C112.634 182.169 112.008 182.559 111.596 182.977C111.102 183.477 110.671 184.284 111.106 184.836C111.404 185.215 111.956 185.25 112.438 185.253C113.585 185.26 114.733 185.266 115.881 185.273C116.087 185.274 116.302 185.273 116.485 185.18C116.767 185.036 116.902 184.715 117.014 184.419C117.238 183.831 117.407 183.041 116.893 182.678C116.701 182.543 116.457 182.511 116.224 182.482C115.728 182.422 115.149 182.39 114.809 182.756C114.349 183.252 114.534 184.275 113.89 184.482C113.562 183.817 113.79 182.823 113.145 182.458ZM74.5352 187.077C74.6988 187.069 74.867 187.06 75.0155 186.992C75.5516 186.743 75.4254 185.848 74.9086 185.562C74.3918 185.277 73.7402 185.444 73.2178 185.72C72.7436 185.971 72.1797 185.694 71.6735 185.517C70.2782 185.029 68.6234 185.386 67.5533 186.405C67.2777 186.668 67.0264 187.075 67.2123 187.407C69.6534 187.297 72.0941 187.187 74.5352 187.077ZM117.825 185.397C117.909 185.451 118.013 185.46 118.113 185.464C118.873 185.499 119.821 185.228 119.943 184.478C120.014 184.043 119.714 183.579 119.288 183.465C118.558 183.27 117.914 184.028 117.711 184.754C117.647 184.979 117.629 185.27 117.825 185.397ZM110.371 183.92C110.405 183.602 110.23 183.124 109.946 183.271C109.655 183.808 109.476 184.405 109.425 185.013C109.407 185.234 109.41 185.475 109.54 185.655C109.67 185.835 109.971 185.901 110.112 185.729C110.181 185.646 110.195 185.532 110.207 185.425C110.261 184.923 110.316 184.422 110.371 183.92ZM62.5181 197.219C62.2956 197.66 62.4542 198.256 62.8661 198.527C63.1539 198.174 63.4599 197.748 63.3535 197.304C63.2466 196.861 62.4568 196.726 62.3904 197.177M90.2494 187.231C90.5479 187.276 90.9263 187.232 91.0363 186.951C90.7171 186.714 90.2864 186.634 89.9034 186.741C89.8147 186.857 89.7818 187.014 89.8167 187.156C89.9409 187.239 90.0995 187.268 90.2454 187.235L90.2494 187.231Z" fill="#00A3B9"/>
<path fill-rule="evenodd" clip-rule="evenodd" d="M286.986 59.7706C288.158 59.8015 289.486 59.9049 290.225 60.8164C290.833 61.5657 290.833 62.6221 290.804 63.5863C289.672 101.552 288.322 139.511 286.753 177.462C285.348 166.4 285.874 155.195 286.403 144.057C287.332 124.516 288.26 104.974 289.188 85.4318C289.119 88.7565 287.964 93.1954 284.64 93.0976C266.248 92.5555 247.857 92.0134 229.465 91.4712C228.038 91.4292 226.293 91.1738 225.787 89.8392C245.992 90.3864 266.197 90.9337 286.401 91.4809C287.275 88.3127 287.507 84.9692 287.078 81.7108C266.81 81.3126 246.542 80.9143 226.274 80.5161C225.853 79.4171 227.531 78.7975 228.708 78.8228C247.878 79.2342 267.049 79.6456 286.22 80.0575C287.235 80.0793 287.619 78.7529 287.687 77.74C287.973 73.4182 288.258 69.0968 288.544 64.775C288.607 63.8265 288.633 62.7655 288.001 62.0557C287.346 61.3205 286.242 61.2476 285.258 61.2268C265.577 60.8118 245.895 60.3969 226.214 59.9819C224.91 85.7991 224.504 111.661 224.997 137.506C227.011 132.282 231.237 127.953 236.411 125.812C232.984 122.61 231.873 117.177 233.768 112.887C231.586 114.012 229.743 110.533 230.408 108.17C230.603 107.474 231.688 106.803 231.974 106.111C232.659 104.454 232.338 103.412 232.016 101.135C231.696 98.8579 234.813 98.2114 236.676 99.32C238.538 100.429 240.381 102.369 242.459 101.753C244.98 101.006 247.653 103.005 248.604 105.456C249.554 107.907 249.237 110.643 248.905 113.252C248.427 117.016 247.207 121.631 243.488 122.39C243.21 125.074 247.159 125.46 249.82 125.91C253.448 126.523 256.433 129.289 258.178 132.529C259.924 135.769 260.61 139.461 261.16 143.1C262.923 154.758 263.487 166.938 259.682 178.098C268.346 177.96 277.011 177.822 285.676 177.685C280.637 179.44 275.189 179.509 269.854 179.521C255.264 179.555 240.673 179.311 226.092 178.788C225.215 178.757 224.26 178.695 223.606 178.11C222.905 177.484 222.766 176.456 222.685 175.52C222.166 169.49 222.227 163.411 222.868 157.393C223.408 164.08 223.948 170.768 224.487 177.455C231.568 177.718 238.648 177.979 245.729 178.242C248.418 178.341 251.828 177.971 252.666 175.414C252.661 176.257 252.655 177.101 252.65 177.944C254.505 178.348 256.438 178.389 258.308 178.063C261.558 168.512 262.217 158.093 260.194 148.209C258.008 147.975 256.152 150.047 255.69 152.197C255.229 154.347 255.746 156.567 256 158.75C256.644 164.278 255.543 169.996 252.892 174.889C255.157 168.412 255.656 161.326 254.321 154.595C253.35 149.698 251.423 144.904 251.62 139.916C253.209 142.894 253.969 146.309 253.794 149.68C255.952 148.782 258.11 147.886 260.267 146.989C259.916 142.131 259.518 137.106 257.202 132.821C254.886 128.537 250.092 125.186 245.314 126.13C244.89 129.116 242.859 132.253 239.849 132.446C236.839 132.638 234.521 128.02 237.089 126.436C231.016 128.154 227.445 134.257 224.514 139.845C223.342 142.079 222.142 144.443 222.225 146.964C222.308 149.485 224.183 152.136 226.705 152.124C229.627 148.995 231.325 144.75 231.365 140.469C232.123 151.54 232.091 162.665 231.269 173.732C231.186 174.854 229.981 176.341 229.355 175.406C230.891 166.981 231.074 158.311 229.893 149.829C227.172 153.58 223.431 156.585 219.181 158.435C217.23 159.283 216.728 161.86 217.047 163.964C217.366 166.068 218.229 168.141 217.952 170.251C217.676 172.361 216.534 174.304 213.573 173.549C210.611 172.795 206.331 174.013 206.331 174.013C206.331 174.013 206.886 183.734 207.85 186.627C211.567 189.512 217.147 184.048 221.44 185.974C224.11 187.172 227.152 187.106 230.077 187.018C231.904 186.963 234.473 185.589 233.409 184.104C228.76 184.592 224.06 184.585 219.413 184.084C217.415 183.868 215.952 181.935 215.602 179.956C215.252 177.976 215.762 175.958 216.269 174.013C216.578 175.604 216.466 178.383 216.637 179.521C216.809 180.659 217.308 182.544 218.559 182.666C228.369 183.624 231.66 183.001 238.526 181.399C239.733 181.118 241.22 180.763 242.459 180.771C243.942 180.78 245.329 181.579 246.768 181.936C251.765 183.174 257.003 182.788 262.136 182.394C272.042 181.632 281.949 180.871 291.855 180.11C295.888 173.322 288.239 163.019 293.673 157.291C294.132 122.85 294.59 88.4089 295.049 53.9683C269.277 53.154 243.48 53.1556 217.708 53.9728C215.947 83.8687 215.613 113.848 216.707 143.776C215.073 139.503 214.959 134.823 214.887 130.248C214.5 105.527 214.791 80.7942 215.76 56.0887C215.805 54.9568 215.922 53.6769 216.809 52.9722C217.474 52.4432 218.391 52.3981 219.241 52.3763C244.732 51.7237 270.239 51.7349 295.729 52.4098C295.729 76.9086 297.028 97.8714 295.337 120.535C294.399 133.11 295.049 144.761 295.049 157.393C297.503 157.687 300.749 156.524 301.531 154.179C302.314 151.834 302.012 149.286 301.763 146.827C298.41 113.796 306.025 80.4634 303.546 47.3553C271.784 45.9006 239.964 45.7187 208.188 46.8096C207.53 46.8324 206.81 46.8805 206.331 47.3319C205.795 47.8381 205.754 48.6619 205.75 49.3991C205.572 76.7166 205.395 104.034 205.218 131.351C203.554 107.221 203.089 82.9932 204.323 58.8368C204.458 56.1996 204.606 53.4966 203.825 50.9739C203.044 48.4512 201.119 46.1053 198.524 45.6164C198.012 41.0913 198.081 36.5004 198.727 31.9926C236.129 32.1872 273.532 32.3817 310.935 32.5763C311.07 35.4222 311.205 38.2682 311.34 41.1141C311.468 43.8086 310.401 47.6238 307.757 47.0872C306.683 46.8689 306.168 48.3509 306.112 49.4453C305.648 58.4361 305.183 67.4263 304.719 76.4171C303.341 103.137 301.961 129.896 302.887 156.635C305.277 156.754 307.668 156.873 310.058 156.993C310.692 158.494 311.34 160.09 311.103 161.703C310.867 163.315 309.37 164.859 307.777 164.518C309.165 167.756 305.461 171.815 302.11 170.727C302.379 174.598 302.648 178.47 302.917 182.341C302.967 183.071 303.043 183.862 303.538 184.401C305.085 186.082 308.397 183.487 310.03 185.084C310.251 188.892 310.472 192.699 310.693 196.507C310.753 197.545 310.76 198.728 310.005 199.444C309.499 199.924 308.769 200.067 308.081 200.183C294.664 202.451 280.911 202.719 267.415 200.975C268.14 204.445 268.7 208.545 266.247 211.103C264.437 212.99 260.979 214.46 261.803 216.941C263.286 216.628 264.629 215.697 265.445 214.419C265.287 216.078 263.744 217.486 262.078 217.493C260.648 217.644 260.932 215.256 261.908 214.2C264.05 211.881 266.82 209.807 267.502 206.724C268.184 203.642 264.654 199.875 262.156 201.805C260.654 202.966 260.722 205.214 260.933 207.101C259.584 205.578 259.759 202.955 261.301 201.627C257.282 202.543 253.111 202.795 249.011 202.367C254.19 201.583 259.369 200.798 264.547 200.013C263.073 195.932 263.458 191.22 265.574 187.432C262.333 187.076 259.035 187.257 255.852 187.964C254.962 188.162 254.052 188.416 253.34 188.986C252.592 189.585 252.141 190.471 251.732 191.338C248.264 198.691 246.267 206.735 245.895 214.856C245.089 210.183 245.683 205.277 247.581 200.93C247.125 200.205 246.533 199.566 245.845 199.054C250.567 197.205 252.832 190.817 250.33 186.407C249.936 185.713 249.449 185.074 248.895 184.5C245.568 181.051 239.694 180.45 235.737 183.153C234.046 185.282 234.863 185.998 234.147 187.26C233.71 188.03 232.741 188.513 232.324 189.31C232.169 189.607 232.13 190.052 231.974 190.35C233.131 191.295 234.582 191.874 236.072 191.985C235.925 193.583 235.778 195.181 235.631 196.778C236.476 196.926 237.321 197.073 238.166 197.22C237.035 198.346 238.044 200.694 239.64 200.649C241.148 205.446 242.657 210.245 244.165 215.043C242.625 211.192 241.085 207.341 239.545 203.49C234.356 204.081 229.166 204.672 223.976 205.263C224.164 206.214 224.654 207.102 225.358 207.767C222.281 208.213 219.19 205.281 219.474 202.184C217.96 204.914 220.296 208.17 222.7 210.161C225.104 212.153 228.019 214.39 227.917 217.51C225.527 218.348 222.591 216.644 222.132 214.154C223 215.772 224.877 216.788 226.706 216.632C225.517 215.437 224.327 214.242 223.137 213.047C224.017 213.575 224.896 214.102 225.775 214.629C226.17 213.603 225.257 212.451 224.193 212.173C223.128 211.896 222.011 212.23 220.962 212.562C219.016 213.177 217.005 213.83 215.493 215.201C213.981 216.572 213.114 218.878 214.015 220.709C215.941 220.046 217.593 218.619 218.529 216.81C218.427 219.243 216.072 221.346 213.643 221.174C211.922 217.793 214.766 213.068 218.559 213.006C220.122 212.981 221.049 211.021 220.638 209.512C220.226 208.004 218.965 206.904 217.766 205.9C216.959 206.954 215.917 207.826 214.738 208.436C214.7 206.657 215.05 204.871 215.756 203.238C214.161 205.049 213.262 207.457 213.279 209.871C212.466 207.881 212.538 205.549 213.474 203.614C208.756 204.417 203.966 204.794 199.181 204.738C198.392 199.273 197.604 193.807 196.816 188.341C199.775 187.541 202.841 187.135 205.907 187.138C204.371 177.944 205.907 177.689 203.998 173.549C203.739 172.987 202.818 174.061 202.191 172.795C201.564 171.528 201.284 168.228 201.284 168.228C201.284 168.228 198.725 167.855 198.524 167.166C197.732 164.463 196.842 162.048 198.767 160.594C200.82 159.044 204.034 160.372 206.184 158.961C205.376 155.771 205.219 152.417 205.727 149.165C206.99 151.313 206.541 154.044 207.236 156.437C207.931 158.831 211.207 160.841 212.773 158.903C210.478 154.81 207.401 148.924 204.291 145.409C202.304 143.163 199.484 143.699 197.421 141.219C195.357 138.739 194.744 138.247 194.017 136.173C193.289 134.099 194.282 131.259 196.458 130.956C198.587 130.66 200.196 132.766 201.284 134.619C200.795 132.983 202.104 131.065 203.805 130.925C205.91 137.563 209.724 143.652 214.779 148.442C216.365 149.946 219.566 150.956 220.197 148.864C219.072 147.105 221.027 145.089 222.114 143.307C223.429 141.153 223.487 138.489 223.506 135.965C223.699 110.892 223.891 85.8189 224.083 60.7454C224.099 58.7725 226.767 58.201 228.74 58.2526C248.155 58.7588 267.571 59.265 286.986 59.7706ZM199.972 44.7135C200.264 44.9379 200.663 44.9481 201.032 44.9481C208.601 44.9552 216.171 44.9623 223.741 44.9689C228.128 44.9729 232.515 44.977 236.902 44.981C245.303 44.9886 253.705 44.9962 262.106 45.0038C277.153 45.0175 292.201 45.0312 307.248 45.0449C308.066 45.0454 309.037 44.9648 309.453 44.2595C309.664 43.8993 309.671 43.4585 309.672 43.0405C309.677 40.2265 309.682 37.4119 309.687 34.5979C309.688 34.305 309.677 33.9813 309.476 33.7685C309.262 33.5415 308.913 33.5248 308.601 33.5227C272.913 33.312 237.226 33.1012 201.538 32.8899C201.096 32.8874 200.601 32.9056 200.293 33.2228C200.015 33.5086 199.981 33.9448 199.963 34.3435C199.826 37.2999 199.69 40.2563 199.554 43.2133C199.529 43.7534 199.544 44.3837 199.972 44.7135ZM264.529 195.725C264.307 195.506 263.894 195.738 263.836 196.045C263.779 196.352 263.946 196.652 264.11 196.918C264.684 197.85 265.331 198.792 266.281 199.337C267.203 199.864 268.302 199.958 269.361 200.039C273.007 200.319 276.652 200.6 280.298 200.88C282.641 201.06 284.989 201.241 287.34 201.2C294.641 201.074 301.789 198.823 309.091 198.787C309.691 198.784 309.855 197.966 309.828 197.367C309.684 194.251 309.54 191.135 309.396 188.018C309.357 187.174 309.023 186.049 308.181 186.117C294.265 187.248 280.281 187.542 266.33 186.995C266.411 189.82 265.591 192.664 264.018 195.012C265.524 195.078 267.038 194.961 268.516 194.666C267.398 194.298 266.22 194.116 265.043 194.13C267.028 193.075 269.737 193.664 271.105 195.449C271.231 195.614 271.351 195.805 271.334 196.011C271.298 196.413 270.806 196.576 270.408 196.641C268.373 196.977 265.998 197.174 264.529 195.725ZM213.879 197.723C213.547 197.964 213.08 198.205 212.763 197.945C212.61 197.819 212.554 197.613 212.505 197.421C212.254 196.429 212.001 195.412 212.096 194.393C212.19 193.374 212.7 192.332 213.618 191.878C214.549 191.417 215.647 190.612 215.362 189.612C215.091 188.661 213.829 188.502 212.84 188.531C208.218 188.663 203.595 188.796 198.972 188.928C198.784 188.934 198.574 188.948 198.444 189.084C198.287 189.248 198.316 189.508 198.355 189.732C199.091 193.939 199.827 198.146 200.563 202.354C200.621 202.683 200.706 203.052 200.995 203.218C201.186 203.327 201.42 203.317 201.639 203.304C204.639 203.119 207.631 202.831 210.611 202.443C213.061 202.123 215.951 201.884 217.6 203.724C217.588 202.1 218.81 200.778 219.656 199.392C220.503 198.007 220.875 195.919 219.551 194.978C218.18 194.004 216.989 192.779 216.053 191.381C215.479 192.101 216.172 193.11 216.313 194.019C216.552 195.56 215.141 196.808 213.879 197.723ZM194.683 133.509C194.731 133.962 195.017 134.349 195.294 134.711C196.601 136.422 197.908 138.132 199.216 139.843C197.728 138.644 196.241 137.446 194.753 136.247C196.305 139.608 199.218 142.315 202.682 143.618C203.258 143.835 203.857 144.019 204.371 144.359C205.269 144.953 205.802 145.949 206.324 146.891C208.11 150.11 210.191 153.166 212.53 156.009C213.574 157.277 214.965 158.62 216.59 158.38C220.047 157.868 223.262 155.888 225.273 153.03C224.346 152.055 223.419 151.081 222.492 150.106C222.17 149.768 221.826 149.416 221.377 149.29C220.927 149.164 220.35 149.367 220.242 149.821C219.92 151.176 218.178 151.764 216.846 151.354C215.515 150.943 214.521 149.857 213.595 148.816C209.155 143.821 204.528 138.446 203.459 131.849C202.681 131.465 202.169 132.714 202.191 133.581C202.216 134.547 202.242 135.512 202.267 136.477C199.822 135.478 198.981 131.577 196.339 131.589C197.56 133.69 198.921 135.709 200.408 137.631C198.216 136.569 196.411 134.729 195.39 132.518C194.935 132.534 194.635 133.055 194.683 133.509ZM294.2 177.059C293.877 178.717 292.979 180.346 291.49 181.143C290.426 181.713 289.18 181.807 287.976 181.889C280.003 182.438 272.03 182.986 264.058 183.535C264.947 184.729 266.071 186.044 267.56 186.012C278.728 185.768 289.896 185.525 301.065 185.282C301.458 185.273 301.912 185.233 302.136 184.91C302.307 184.662 302.278 184.334 302.243 184.036C301.752 179.851 301.262 175.666 300.771 171.48C300.739 171.211 300.695 170.916 300.493 170.736C300.255 170.523 299.894 170.55 299.577 170.59C298.188 170.764 296.8 170.937 295.412 171.111C294.848 171.182 294.117 171.448 294.176 172.012C294.35 173.693 294.523 175.402 294.2 177.059ZM225.928 203.871C229.792 203.578 233.64 203.07 237.447 202.348C238.121 202.22 238.947 201.922 238.994 201.238C238.203 201.3 237.397 200.838 237.049 200.125C236.703 199.411 236.838 198.492 237.376 197.909C236.767 197.927 236.128 197.939 235.584 197.664C235.04 197.389 234.639 196.727 234.87 196.162C235.246 195.243 235.284 194.189 234.976 193.245C234.791 192.677 234.352 192.074 233.757 192.124C232.738 192.208 231.718 191.432 231.528 190.426C231.338 189.421 232.006 188.326 232.986 188.034C232.931 187.777 232.586 187.736 232.324 187.754C227.247 188.097 222.168 188.44 217.09 188.782C216.914 188.794 216.704 188.828 216.63 188.988C216.585 189.088 216.61 189.204 216.637 189.31C217.117 191.139 218.327 192.767 219.94 193.754C219.129 192.922 219.859 191.351 220.988 191.075C222.117 190.799 223.283 191.454 224.075 192.305C224.866 193.157 225.415 194.208 226.19 195.074C226.416 195.327 226.67 195.58 226.748 195.91C226.827 196.24 226.627 196.661 226.288 196.668C226.139 196.671 226 196.595 225.87 196.521C224.252 195.604 222.635 194.687 221.018 193.771C221.361 193.123 222.369 193.34 222.927 193.816C223.484 194.292 223.973 194.968 224.703 195.039C224.389 194.503 224.076 193.967 223.763 193.431C223.295 192.63 222.553 191.706 221.656 191.943C220.93 192.135 220.612 193.057 220.81 193.782C221.008 194.506 221.564 195.068 222.099 195.595C222.936 196.42 224.101 197.31 225.165 196.812C225.482 196.663 225.789 197.161 225.612 197.463C225.435 197.766 225.034 197.847 224.684 197.841C223.681 197.822 222.699 197.312 222.106 196.503C221.9 197.658 221.693 198.813 221.487 199.968C222.843 200.43 223.899 201.675 224.136 203.087C224.254 203.797 225.21 203.925 225.928 203.871ZM242.858 102.466C242.075 102.503 241.345 102.884 240.566 102.981C239.604 103.101 238.594 102.754 237.908 102.069C237.045 101.207 234.437 98.9826 233.512 99.8226C232.588 100.662 232.397 103.953 233.461 105.731C233.663 106.068 233.463 106.52 233.158 106.768C232.853 107.016 232.465 107.134 232.125 107.332C231.17 107.89 230.692 109.149 231.036 110.2C231.381 111.251 232.512 111.984 233.612 111.868C232.814 110.893 232.914 109.305 233.827 108.437C234.741 107.57 236.332 107.553 237.264 108.4C237.865 108.947 238.82 108.831 239.563 108.503C240.306 108.176 240.983 107.671 241.78 107.512C242.822 107.304 243.969 107.78 244.557 108.666C245.145 109.552 245.138 110.793 244.542 111.674C243.981 112.499 244.455 113.814 245.414 114.091C246.373 114.369 247.476 113.51 247.443 112.513C247.388 110.862 248.55 109.334 248.413 107.688C248.297 106.303 247.291 105.171 246.281 104.216C245.324 103.309 244.175 102.405 242.858 102.466ZM234.962 109.056C233.982 109.282 233.645 110.798 234.437 111.418C235.121 110.817 236.22 110.754 236.968 111.273C236.586 111.921 235.542 111.565 234.885 111.932C234.328 112.243 234.199 112.975 234.147 113.61C234.004 115.33 233.97 117.058 234.046 118.783C234.096 119.932 234.202 121.103 234.663 122.156C235.124 123.21 236 124.141 237.122 124.393C238.105 124.614 239.149 124.29 239.987 123.729C240.824 123.169 241.488 122.39 242.127 121.611C242.938 120.623 243.738 119.599 244.222 118.416C244.707 117.232 244.848 115.854 244.331 114.685C243.905 113.72 243.715 112.652 243.781 111.6C243.834 110.763 244.017 109.821 243.493 109.166C242.855 108.369 241.593 108.535 240.662 108.952C239.73 109.37 238.787 109.979 237.778 109.829C236.8 109.683 235.925 108.834 234.962 109.056ZM198.821 165.141C198.82 165.554 198.93 165.997 199.102 166.319C199.554 167.166 203.657 166.337 204.291 166.274C207.928 165.91 211.565 165.547 215.201 165.184C215.759 165.128 216.432 164.984 216.606 164.452C216.693 164.188 216.623 163.901 216.552 163.632C216.388 163.003 216.223 162.374 216.059 161.745C215.96 161.366 215.85 160.969 215.574 160.69C215.113 160.225 214.368 160.251 213.716 160.308C209.299 160.699 204.883 161.089 200.466 161.479C199.881 161.531 199.195 161.649 198.938 162.178C198.826 162.409 198.823 162.676 198.823 162.934C198.822 163.669 198.822 164.405 198.821 165.141ZM292.95 162.676C293.115 162.905 293.442 162.928 293.725 162.929C298.74 162.953 303.756 162.978 308.771 163.002C309.102 163.003 309.455 162.998 309.729 162.814C310.185 162.508 310.226 161.866 310.221 161.318C310.216 160.658 310.206 159.98 309.966 159.366C309.725 158.751 309.199 158.203 308.543 158.133C303.824 157.63 299.097 159.325 294.364 158.988C293.67 158.938 293.061 159.529 292.849 160.191C292.637 160.854 292.729 161.57 292.822 162.259C292.842 162.405 292.864 162.557 292.95 162.676ZM292.744 165.318C292.611 166.731 292.709 168.165 293.035 169.546C297.196 169.404 301.354 169.169 305.505 168.843C306.192 168.789 307.093 168.5 307.042 167.813C306.99 167.092 306.938 166.37 306.885 165.648C306.868 165.412 306.845 165.16 306.699 164.974C306.499 164.718 306.138 164.668 305.814 164.64C301.774 164.286 297.708 164.215 293.658 164.428C293.431 164.44 293.186 164.46 293.012 164.607C292.814 164.775 292.769 165.059 292.744 165.318ZM216.394 167.472C216.322 166.924 215.569 166.838 215.02 166.9C211.081 167.343 207.142 167.786 203.203 168.228C203.035 168.247 202.86 168.269 202.723 168.369C202.455 168.566 202.458 168.962 202.495 169.294C202.607 170.316 202.829 171.43 203.63 172.075C204.711 172.946 206.283 172.57 207.641 172.282C210.169 171.745 212.795 171.674 215.349 172.071C215.908 172.158 216.433 171.696 216.618 171.163C216.803 170.629 216.732 170.045 216.658 169.485C216.57 168.814 216.482 168.143 216.394 167.472ZM242.472 129.925C242.893 129.368 243.279 128.784 243.627 128.178C243.892 127.715 244.14 127.178 243.986 126.667C243.886 126.335 243.631 126.078 243.42 125.802C242.765 124.944 242.511 123.79 242.746 122.736C242.766 122.645 242.789 122.55 242.758 122.463C242.636 122.123 242.139 122.447 241.954 122.757C241.152 124.094 239.77 125.068 238.242 125.374C237.909 125.441 237.997 125.958 237.822 126.212C237.089 127.277 235.578 128.687 236.968 130.336C238.012 131.574 238.234 131.846 238.526 131.936C240.032 132.399 241.52 131.181 242.472 129.925ZM253.414 187.18C253.825 187.106 254.235 187.032 254.646 186.958C255.446 186.814 256.273 186.659 256.937 186.189C257.812 185.569 258.358 184.435 259.4 184.183C259.652 184.121 260.002 183.861 259.788 183.713C259.736 183.677 259.668 183.677 259.605 183.678C256.807 183.713 254.011 183.837 251.221 184.05C251.569 184.963 251.972 185.855 252.43 186.718C252.521 186.889 252.624 187.069 252.797 187.157C252.984 187.252 253.208 187.218 253.414 187.18ZM261.616 184.225C260.322 184.414 259.218 185.264 258.33 186.224C258.115 186.457 258.34 186.913 258.655 186.884C258.998 186.344 259.736 186.251 260.375 186.213C261.842 186.127 263.309 186.04 264.776 185.953C264.392 184.703 262.91 184.037 261.616 184.225ZM245.003 118.361C244.733 119.434 244.134 120.423 243.308 121.16C243.361 121.434 243.762 121.408 244.023 121.309C244.963 120.956 245.932 120.569 246.616 119.834C247.301 119.1 247.609 117.916 247.056 117.078C246.868 117.914 245.212 117.529 245.003 118.361ZM220.515 202.41C220.196 203.062 220.183 203.998 220.811 204.363C221.348 204.676 222.119 204.312 222.295 203.717C222.472 203.121 222.1 202.443 221.534 202.189C221.183 202.031 220.685 202.064 220.515 202.41ZM217.75 186.884C217.655 187.035 217.63 187.287 217.799 187.343C218.956 187.22 220.123 187.192 221.284 187.26C221.414 186.979 221.24 186.632 220.98 186.464C220.719 186.297 220.396 186.264 220.087 186.235C219.238 186.156 218.205 186.161 217.75 186.884ZM269.361 196.006C269.555 195.944 269.688 195.732 269.66 195.531C268.308 195.249 266.895 195.268 265.552 195.587C266.69 196.246 268.107 196.402 269.361 196.006ZM213.56 196.14C213.884 194.884 214.111 193.603 214.239 192.312C212.979 193.067 212.637 194.998 213.56 196.14ZM245.575 117.05C246.089 117.009 246.542 116.57 246.602 116.058C246.661 115.547 246.32 115.016 245.829 114.858C245.366 115.32 245.111 115.983 245.145 116.637C245.151 116.764 245.175 116.902 245.273 116.982C245.355 117.05 245.469 117.059 245.575 117.05ZM222.653 205.396C222.236 204.964 221.48 204.92 221.015 205.3C221.211 205.744 221.559 206.12 221.987 206.349C222.183 206.455 222.423 206.529 222.626 206.436C222.995 206.267 222.935 205.689 222.653 205.396ZM223.004 202.698C223.045 202.062 222.702 201.415 222.152 201.092C221.603 200.768 220.872 200.782 220.335 201.127C221.328 201.44 222.248 201.982 223.004 202.698ZM215.385 194.049C215.304 193.854 215.139 193.649 214.929 193.678C214.496 194.366 214.499 195.303 214.937 195.988C215.467 195.519 215.655 194.703 215.385 194.049ZM215.893 206.096C215.79 206.272 215.883 206.531 216.074 206.601C216.354 206.459 216.538 206.146 216.526 205.831C216.3 205.736 216.006 205.88 215.943 206.117M287.531 80.5652C287.4 80.662 287.269 80.7583 287.138 80.8545C287.22 81.0035 287.302 81.1525 287.384 81.3014C287.623 81.1788 287.72 80.8398 287.581 80.6088L287.531 80.5652Z" fill="#00A3B9"/>
<path d="M234.84 120.093C235.12 120.093 235.347 119.64 235.347 119.08C235.347 118.52 235.12 118.067 234.84 118.067C234.56 118.067 234.333 118.52 234.333 119.08C234.333 119.64 234.56 120.093 234.84 120.093Z" fill="#00A3B9"/>
<path fill-rule="evenodd" clip-rule="evenodd" d="M245.436 175.352C246.3 165.154 247.025 154.944 248.028 144.758C248.278 142.218 255.445 145.295 252.47 167.327C252 170.811 249.76 176.016 245.762 176.283L245.436 175.352Z" fill="#00A3B9"/>
<path fill-rule="evenodd" clip-rule="evenodd" d="M69.736 140.423C70.379 154.267 68.1522 145.497 73.9201 149.204C74.9015 149.835 75.9751 151.013 75.7887 152.165C75.4224 154.427 73.2412 156.027 72.466 158.183C68.6285 168.857 86.0193 169.334 89.1738 171.013C90.2282 171.574 89.7545 173.625 89.0568 174.594C86.5204 178.12 71.7627 168.548 69.9038 167.117C57.5826 157.636 59.0505 151.433 68.7232 141.694L69.736 140.423Z" fill="#00A3B9"/>
<path d="M81.8266 126.173C82.1064 126.173 82.3333 125.72 82.3333 125.16C82.3333 124.6 82.1064 124.147 81.8266 124.147C81.5468 124.147 81.3199 124.6 81.3199 125.16C81.3199 125.72 81.5468 126.173 81.8266 126.173Z" fill="#00A3B9"/>
</svg>
